<svg xmlns="http://www.w3.org/2000/svg" xmlns:xlink="http://www.w3.org/1999/xlink" viewBox="0 0 1275.12 954.35"><defs><style>.cls-1{fill:#2f3545;}.cls-2{fill:url(#Dégradé_sans_nom_18);}.cls-3{fill:url(#Dégradé_sans_nom_8);}</style><linearGradient id="Dégradé_sans_nom_18" x1="637.5" y1="503.71" x2="1275.12" y2="503.71" gradientUnits="userSpaceOnUse"><stop offset="0" stop-color="#232a3a" stop-opacity="0.8"/><stop offset="1" stop-color="#232a3a" stop-opacity="0"/></linearGradient><linearGradient id="Dégradé_sans_nom_8" y1="477.15" x2="637.61" y2="477.15" gradientUnits="userSpaceOnUse"><stop offset="0" stop-color="#232a3a"/><stop offset="1" stop-color="#232a3a" stop-opacity="0"/></linearGradient></defs><title>Fichier 6home</title><g id="Calque_2" data-name="Calque 2"><g id="Calque_1-2" data-name="Calque 1"><path class="cls-1" d="M306.5,53.07,242.5,0H20.5A20,20,0,0,0,.5,20V53.07h0V934.35a20,20,0,0,0,20,20H1255.12a20,20,0,0,0,20-20V73.07a20,20,0,0,0-20-20Z"/><path class="cls-2" d="M637.5,53.07h617.61a20,20,0,0,1,20,20V934.35a20,20,0,0,1-20,20H637.5a0,0,0,0,1,0,0V53.07A0,0,0,0,1,637.5,53.07Z"/><path class="cls-3" d="M20,0,242.5,0l64,53H637.61V954.31H20a20,20,0,0,1-20-20V20A20,20,0,0,1,20,0Z"/></g></g></svg>