<svg xmlns="http://www.w3.org/2000/svg" xmlns:xlink="http://www.w3.org/1999/xlink" viewBox="0 0 638.85 590.37"><defs><style>.cls-1{fill:url(#Dégradé_sans_nom_14);}.cls-2{fill:#3c4353;}.cls-3{fill:#2f3545;}.cls-4{fill:#585f71;}.cls-5{fill:#fff;}</style><linearGradient id="Dégradé_sans_nom_14" x1="31.54" y1="402.19" x2="424.91" y2="543.17" gradientUnits="userSpaceOnUse"><stop offset="0" stop-color="#2f3545" stop-opacity="0"/><stop offset="1" stop-color="#2f3545"/></linearGradient></defs><title>Fichier 1home</title><g id="Calque_2" data-name="Calque 2"><g id="Calque_1-2" data-name="Calque 1"><polygon class="cls-1" points="415 590.37 0 469.37 309 434.37 479.46 484.24 415 590.37"/><path class="cls-2" d="M428.35,207.54V93.72L445.53,0h74.56l33.06,89.05V198.21S463.9,207.18,428.35,207.54Z"/><path class="cls-3" d="M385.11,198.21V90.84L421,0h24.52L428.35,93.72V207.54S405.57,205.39,385.11,198.21Z"/><ellipse class="cls-4" cx="550.82" cy="230.36" rx="16.57" ry="27.48"/><polygon class="cls-4" points="544.07 202.88 550.83 202.88 557.18 218.07 544.07 202.88"/><polygon class="cls-4" points="544.07 257.84 550.83 257.84 553.74 252.67 544.07 257.84"/><ellipse class="cls-2" cx="544.07" cy="230.36" rx="16.57" ry="27.48"/><polygon class="cls-3" points="514.07 375.16 530.88 336.46 516.83 331.93 499.59 366.32 514.07 375.16"/><polygon class="cls-4" points="428.35 207.54 428.35 317.42 438.61 345.79 538.07 335.73 553.15 304.13 553.15 198.21 428.35 207.54"/><polygon class="cls-2" points="385.11 198.21 385.11 304.85 428.35 317.42 428.35 207.54 385.11 198.21"/><polygon class="cls-3" points="438.61 345.79 406.73 335.73 385.11 304.85 428.35 317.42 438.61 345.79"/><polygon class="cls-3" points="283.9 529.11 415.32 590.05 415.93 573.98 283.9 515.04 283.9 529.11"/><polygon class="cls-4" points="638.85 561.92 638.85 545.53 415.93 573.98 415.32 590.05 638.85 561.92"/><polygon class="cls-2" points="483.48 483.93 638.85 545.53 415.93 573.98 283.9 515.04 483.48 483.93"/><polygon class="cls-4" points="435.01 537.14 435.01 557.91 573.89 539.82 573.89 521.74 435.01 537.14"/><polygon class="cls-3" points="347.92 499.98 435.01 537.14 435.01 557.91 348.19 519.39 347.92 499.98"/><polygon class="cls-2" points="479.46 484.24 573.89 521.74 435.01 537.14 347.92 499.98 479.46 484.24"/><polygon class="cls-3" points="449.64 504.23 449.64 521.74 403.15 504.23 403.15 486.11 449.64 504.23"/><polygon class="cls-4" points="515.23 513.04 515.23 495.86 449.64 504.23 449.64 521.74 515.23 513.04"/><polygon class="cls-2" points="467.46 478.21 515.23 495.86 449.64 504.23 403.15 486.11 467.46 478.21"/><path class="cls-2" d="M488.66,390.79v91.08L435,477.3V387S456.29,400.17,488.66,390.79Z"/><path class="cls-4" d="M433,492.15s15.79,17.65,56.67,3.71v-39S457.47,462,434,454.52Z"/><path class="cls-4" d="M432.61,391.25s25.16,13.51,63.86.86V376.48s-28.37,9.67-63.48,0Z"/><ellipse class="cls-2" cx="464.73" cy="375.06" rx="31.74" ry="8.22"/><path class="cls-5" d="M485.88,268.33c-1.67,2.22-3.36,4.42-5,6.69a2.26,2.26,0,0,0,.1,2.63,10.76,10.76,0,0,0,5.36,4.31c1.28.49,2.38-.09,3.23-1.27,3.3-4.54,1.23-9.59-1.55-12.3A1.51,1.51,0,0,0,485.88,268.33Z"/><path class="cls-5" d="M484.08,246.36c-1.55-.26-3.09.76-4,2.52a2.13,2.13,0,0,0,0,2.39,2,2,0,0,0,2.27,1,13.73,13.73,0,0,0,1.94-1l-.05-.11a7.24,7.24,0,0,0,.95-.79,2.72,2.72,0,0,0,.76-2.66A2,2,0,0,0,484.08,246.36Z"/><path class="cls-5" d="M481.52,254.14c-.13-.07-.24-.18-.36-.26a2.68,2.68,0,0,0-4,.66,3.57,3.57,0,0,0,.69,4.42,16.93,16.93,0,0,0,5.88,4.21,7.19,7.19,0,0,0,2.29.6,2.14,2.14,0,0,0,2.18-1.62c.39-1-.2-1.72-.77-2.37s-1.39-1.53-2.1-2.31l.58-1.38C483.78,256.81,482.86,254.94,481.52,254.14Z"/><path class="cls-5" d="M480.06,273.3a27.14,27.14,0,0,0,1.91-3c-3.07-.5-5.22-2.4-7.48-4.15-1.59,1.83-1.54,3.93.15,5.38a24.39,24.39,0,0,0,3.13,2.14A1.7,1.7,0,0,0,480.06,273.3Z"/><path class="cls-5" d="M479.67,268.33c2.28,2,5.34-.4,6.36-3.08-3.88-.61-6.84-3.32-9.85-5.84a4.2,4.2,0,0,0-.13,6.07C477.16,266.57,478.5,267.32,479.67,268.33Z"/><path class="cls-5" d="M491.58,241.5a1.47,1.47,0,0,1,.12,2c-.74,1.2-1.4,2.45-2.23,3.91,2.18-.65,2.82-2.63,3.84-4.2a5.38,5.38,0,0,0,6.32-.79l-9.29-7A7.07,7.07,0,0,0,491.58,241.5Z"/><path class="cls-5" d="M512.67,289.33l-4-5.64c-2.62-3.72-5.27-7.43-7.85-11.19a2.7,2.7,0,0,1-.25-1.68,28.38,28.38,0,0,0-.27-11.28A17.63,17.63,0,0,0,491.51,248a1.1,1.1,0,0,0-1,.07c-2.35,1.47-4.67,3-7,4.47-.66.41-.63.85-.21,1.46a3.94,3.94,0,0,0,4,1.9,9.79,9.79,0,0,0,2.92-1.1c.6-.32.88-.26,1.18.4.43.9,1,1.74,1.36,2.66a1.73,1.73,0,0,1,0,1.23,22.3,22.3,0,0,1-1.51,2.38,8.47,8.47,0,0,0,1.21,10.91,38.5,38.5,0,0,0,4.07,3.06c-.32.68-.7,1.62-1.17,2.48-1.08,1.93-2.26,3.78-3.28,5.75a6.75,6.75,0,0,0,.36,7c1.37,2.26,2.56,4.67,3.85,7"/><path class="cls-5" d="M501.51,238l-1,2.29-.24-.06a11.78,11.78,0,0,1,.25-1.18,2,2,0,0,0-.85-2.52c-2.12-1.47-4.13-3.12-6.22-4.65-2.49-1.82-1.88-2.13-3.67,1a1,1,0,0,0,.28,1.54c3.09,2.32,6.15,4.7,9.27,7,2.05,1.5,2.09,1.43,3.36-1l.06-.11a1,1,0,0,0-.25-1.54C502.2,238.54,501.88,238.3,501.51,238Z"/><path class="cls-5" d="M493.14,230.9l7.58,5.7A9.88,9.88,0,0,0,499,231c2.15.85,3,2.68,2.78,5.4a5.6,5.6,0,0,0,.17,1.2l.3-.07a7,7,0,0,0-3-7.53C497.22,228.79,494.28,229.16,493.14,230.9Z"/><polyline class="cls-3" points="401.83 257.81 401.83 309.71 428.35 385.67 411.86 379.59 384.48 304.85 384.48 257.81"/><polygon class="cls-3" points="428.35 384.67 514.07 375.16 499.59 366.32 420.84 374.99 428.35 384.67"/><polygon class="cls-2" points="406.73 202.88 406.42 93.2 435.01 0 425.06 0 396.86 92.64 396.86 201.78 406.73 202.88"/><ellipse class="cls-3" cx="393.34" cy="237.49" rx="16.57" ry="27.48"/><polygon class="cls-3" points="386.58 210.01 393.34 210.01 399.7 225.21 386.58 210.01"/><polygon class="cls-3" points="386.58 264.98 393.34 264.98 396.26 259.81 386.58 264.98"/><ellipse class="cls-2" cx="386.58" cy="237.49" rx="16.57" ry="27.48"/></g></g></svg>