<svg xmlns="http://www.w3.org/2000/svg" viewBox="0 0 883.33 144"><defs><style>.cls-1{fill:#603747;}.cls-2{fill:#2f3545;}</style></defs><title>Fichier 13home</title><g id="Calque_2" data-name="Calque 2"><g id="Calque_1-2" data-name="Calque 1"><path class="cls-1" d="M771.73,144h-745a110.33,110.33,0,0,1,0-144h745a110.33,110.33,0,0,0,0,144Z"/><path class="cls-2" d="M642.73,144h-113a110.33,110.33,0,0,1,0-144h113a110.33,110.33,0,0,0,0,144Z"/><path class="cls-2" d="M222.73,144h-113a110.33,110.33,0,0,1,0-144h113a110.33,110.33,0,0,0,0,144Z"/><path class="cls-2" d="M771.73,0h0a110.33,110.33,0,0,0,0,144h0l90-54V54Z"/><path class="cls-1" d="M861.23,53.76v36l18-10.82a8.37,8.37,0,0,0,0-14.36Z"/></g></g></svg>