<svg xmlns="http://www.w3.org/2000/svg" viewBox="0 0 360.58 333.19"><defs><style>.cls-1{fill:#f66f7c;}</style></defs><title>Fichier 9home</title><g id="Calque_2" data-name="Calque 2"><g id="Calque_1-2" data-name="Calque 1"><path class="cls-1" d="M283.62,158.25c-.71-.91-1.91-1.88-3.08-1.19,1.34.81.82,1.06,2.41,2,.19.78-.38,1.4-.87,1.28.34.27-.26,1.23.58,1.63a2.7,2.7,0,0,0,.08-3.7C283,157.93,283.37,158.19,283.62,158.25Z"/><path class="cls-1" d="M248.43,90.85a1.27,1.27,0,0,0-.33-.42Z"/><path class="cls-1" d="M202,73.26c.38,0,.55-.12.57-.24C202.23,73.08,201.94,73.14,202,73.26Z"/><path class="cls-1" d="M193.45,71.65c.19,0,.34,0,.51.08C193.76,71.61,193.57,71.55,193.45,71.65Z"/><path class="cls-1" d="M248.1,90.43l-.85-1.11C246.93,89.62,247.63,90,248.1,90.43Z"/><path class="cls-1" d="M279.17,148.13a1.72,1.72,0,0,0,.46.6,6.32,6.32,0,0,1-.25-.6Z"/><path class="cls-1" d="M265,104.44l.27.31a3.82,3.82,0,0,0,.63-.09Z"/><path class="cls-1" d="M275,118.17c-.15-.36-1.19.1-1.69.22a1.22,1.22,0,0,1,1.08.33A2,2,0,0,0,275,118.17Z"/><path class="cls-1" d="M282.89,143.65l.26.42C283.07,144,283,143.77,282.89,143.65Z"/><path class="cls-1" d="M256.68,95.58a1,1,0,0,0,.15-.4A.64.64,0,0,0,256.68,95.58Z"/><path class="cls-1" d="M276.8,181.4a1.77,1.77,0,0,0,.2,0C276.91,181.33,276.83,181.29,276.8,181.4Z"/><path class="cls-1" d="M284.3,163.63l.06.26a4.48,4.48,0,0,0,.63.06Z"/><path class="cls-1" d="M177.41,72h.07C177.87,71.81,177.64,71.88,177.41,72Z"/><path class="cls-1" d="M105.46,183.23c.61-1.81,1.86,2.32,2.39-.32C107.48,183.24,105.64,181.08,105.46,183.23Z"/><path class="cls-1" d="M279.24,147.7a4.52,4.52,0,0,1-.12-.64A1.61,1.61,0,0,0,279.24,147.7Z"/><path class="cls-1" d="M144.36,87.11c-.08-.09-.23-.16-.59-.19A1.37,1.37,0,0,0,144.36,87.11Z"/><path class="cls-1" d="M168.9,76.52l-.68.07A2.22,2.22,0,0,0,168.9,76.52Z"/><path class="cls-1" d="M133.46,97.14a1,1,0,0,0-.49.47.67.67,0,0,0,.2,0A.6.6,0,0,1,133.46,97.14Z"/><path class="cls-1" d="M133.46,97.14l.28-.14A1.46,1.46,0,0,0,133.46,97.14Z"/><path class="cls-1" d="M123.93,107.77a1.37,1.37,0,0,0,.34-.07l.24-.4Z"/><path class="cls-1" d="M279.24,147.7c0,.15.09.29.14.43a.46.46,0,0,0,.41-.12A.61.61,0,0,1,279.24,147.7Z"/><path class="cls-1" d="M139.41,103.85l-1.63,1.32A12,12,0,0,0,139.41,103.85Z"/><path class="cls-1" d="M173,243.79h.51A.57.57,0,0,0,173,243.79Z"/><path class="cls-1" d="M133.68,109.85a3,3,0,0,0-1.37.4,1,1,0,0,0,.06.37Z"/><path class="cls-1" d="M167.88,77.66l.1-.08Z"/><path class="cls-1" d="M168.28,77.23a1.31,1.31,0,0,1-.3.35C168.25,77.39,168.59,77.28,168.28,77.23Z"/><path class="cls-1" d="M178.5,72.26a2.44,2.44,0,0,0,.52-.19A3.27,3.27,0,0,0,178.5,72.26Z"/><path class="cls-1" d="M184.74,79.87l-.2,0A.72.72,0,0,0,184.74,79.87Z"/><path class="cls-1" d="M218.49,251.85a2.25,2.25,0,0,1-.26,0A1.12,1.12,0,0,0,218.49,251.85Z"/><path class="cls-1" d="M167.18,241.22a4,4,0,0,1-.49,0Z"/><path class="cls-1" d="M270.49,214.94c.1-.05.2-.12.34-.21Z"/><path class="cls-1" d="M282.47,155a.27.27,0,0,0,.07-.26Z"/><path class="cls-1" d="M243,241.58l0,.42a3.28,3.28,0,0,0,.31-.2c.08-.06.1-.13.2-.21A3.92,3.92,0,0,0,243,241.58Z"/><path class="cls-1" d="M248.49,91.09a1,1,0,0,1,0-.16l0-.08A.71.71,0,0,1,248.49,91.09Z"/><polygon class="cls-1" points="177.35 244.36 177.29 244.64 177.69 244.47 177.35 244.36"/><path class="cls-1" d="M262.49,109.84a.76.76,0,0,0,0-.41A.63.63,0,0,0,262.49,109.84Z"/><path class="cls-1" d="M268,117.42l.4,1.37A8.19,8.19,0,0,0,268,117.42Z"/><path class="cls-1" d="M271.27,124.11a1.82,1.82,0,0,0,.49-.1v0Z"/><path class="cls-1" d="M171.62,83.57a1,1,0,0,0-.26.12C170.8,84.09,171.2,83.87,171.62,83.57Z"/><path class="cls-1" d="M206,77.91a6.84,6.84,0,0,1-1.19.38C205.41,78.46,205.89,78.54,206,77.91Z"/><path class="cls-1" d="M139.59,103.7s0,0,0,0l-.17.16Z"/><path class="cls-1" d="M203.16,78.15a2.44,2.44,0,0,0,1.64.14A3.78,3.78,0,0,0,203.16,78.15Z"/><path class="cls-1" d="M280,155a.29.29,0,0,1,.19,0l-.18-.38Z"/><path class="cls-1" d="M280.37,155.39c0-.18,0-.34-.16-.38Z"/><path class="cls-1" d="M280.37,155.39c0,.28,0,.64.34.8Z"/><path class="cls-1" d="M278.94,144.92l-.43,0A.83.83,0,0,0,278.94,144.92Z"/><path class="cls-1" d="M278.14,142.06c.1.71-.44,1.93,0,2.83h.33C277.81,144.6,279,142.54,278.14,142.06Z"/><path class="cls-1" d="M276.57,120.34c-.78-.62-1-.75-.8.36C276.6,121.88,276.32,120.39,276.57,120.34Z"/><path class="cls-1" d="M233.5,80.06c-1.08-.32-.17.36-.55.87Z"/><polygon class="cls-1" points="216.75 73.27 214.84 73.21 216.23 73.3 216.75 73.27"/><path class="cls-1" d="M124.76,105.1l1.19.54C126.26,104.94,125.28,103.9,124.76,105.1Z"/><path class="cls-1" d="M107.11,144.56a1.8,1.8,0,0,0-.88,2.32C106.49,145.93,107.14,145.07,107.11,144.56Z"/><path class="cls-1" d="M162.85,250.94c.56.09,1.12.2,1.7.26-.25-.11-.49-.21-.72-.33Z"/><path class="cls-1" d="M6.9,126.5c.45-1.21.58-1.74.49-1.85C7,125.77,6.68,126.72,6.9,126.5Z"/><path class="cls-1" d="M.16,155.3c0-.67-.13-1.24-.11-1.85A4.45,4.45,0,0,0,.16,155.3Z"/><path class="cls-1" d="M224.35,34.16a22.4,22.4,0,0,0,.78,2.15c-.19-.7-.34-1.38-.54-2.06A1.44,1.44,0,0,1,224.35,34.16Z"/><path class="cls-1" d="M104.13,55.87l.29-1.4a12.6,12.6,0,0,0-.25-1.28C104.11,54.08,104.14,55,104.13,55.87Z"/><path class="cls-1" d="M142,14.26c-1.19.52-1.11,1.73-1.33,2.38a6,6,0,0,1,2.18-1.91C142.8,14.53,142.54,14.37,142,14.26Z"/><path class="cls-1" d="M224.54,21.18c.2.28.38.58.56.88A7.88,7.88,0,0,0,224.54,21.18Z"/><path class="cls-1" d="M225.1,22.06c.11.18.22.36.31.49C225.3,22.39,225.2,22.22,225.1,22.06Z"/><path class="cls-1" d="M110.9,96.38a1,1,0,0,0-.14.64C110.89,97,110.91,96.72,110.9,96.38Z"/><path class="cls-1" d="M246.83,29.3c-.05-.08-.12-.06-.17-.11C246.6,29.51,246.62,29.64,246.83,29.3Z"/><path class="cls-1" d="M222.72,87.6l.05-.91a1.77,1.77,0,0,0-.6-.27Z"/><path class="cls-1" d="M39.63,191.13l-.23-.08C38,190.85,38.77,191,39.63,191.13Z"/><path class="cls-1" d="M187.75,274.41c-.74-1-1.37-1.15-.64,2.24-.34-2.79.62-.73,1.53,1s1.74,3,1-1.05C189.51,277,188.53,275.34,187.75,274.41Z"/><path class="cls-1" d="M224.2,32.8c-.18-.68-.37-1.37-.56-2.06C223.87,31.68,224,32.32,224.2,32.8Z"/><path class="cls-1" d="M101,191.73a4.1,4.1,0,0,0,1.34-.09C102.25,191.55,101.93,191.55,101,191.73Z"/><path class="cls-1" d="M70.7,192.64l2.21.22A22.12,22.12,0,0,0,70.7,192.64Z"/><path class="cls-1" d="M64,223.48A6.61,6.61,0,0,0,63,225a2.56,2.56,0,0,0,.39-.36,4.7,4.7,0,0,1,1-1.55Z"/><path class="cls-1" d="M64.35,223.11l.68-.74C64.76,222.64,64.54,222.88,64.35,223.11Z"/><path class="cls-1" d="M51.87,269.45c.05-.27.07-.63.11-.95-.08-.49-.17-1.07-.25-1.57Z"/><path class="cls-1" d="M333.85,63.7c0-.28-.09-.34-.18.15,0,.25-.1.63-.16,1.19a18.84,18.84,0,0,1-.34,2.25,11.35,11.35,0,0,1,1.31-1.84C334.05,65.73,334,64.26,333.85,63.7Z"/><path class="cls-1" d="M225,34a2,2,0,0,1-.77-1.2c.14.5.26,1,.39,1.45C224.78,34.34,224.94,34.34,225,34Z"/><path class="cls-1" d="M67.17,234.91c.47-.85,1.19-1.73,1.83-2.73s1.3-2.07,2-3.08c-.7.93-1.3,1.93-2,2.88S67.72,233.89,67.17,234.91Z"/><path class="cls-1" d="M287,222.35a5.33,5.33,0,0,0-1.59-.41Z"/><path class="cls-1" d="M60.21,256.48a16.63,16.63,0,0,1,.51-2.28c-.15.29-.3.58-.43.88s-.2.62-.28.94q-.25.94-.45,2a3.1,3.1,0,0,0,.23.82Z"/><path class="cls-1" d="M360.5,165.84q0-.94-.09-1.92c0-.33,0-.64-.06-1l-.12-1.05a30.15,30.15,0,0,0-.77-4.11,21.18,21.18,0,0,0-2.63-6.21c-.81-1.13-1.42-1.62-1.71-1.23a5,5,0,0,0-.86-2.17,22.35,22.35,0,0,0-3.76-4.47,33.28,33.28,0,0,0-5.68-4.18,45.5,45.5,0,0,0-5.66-2.74l1.5-.46c-3-.83-4.6-1-6.39-1.36s-3.79-.93-7.7-1.83c-1.79-.62-1.37-1.32,1-.35a14.48,14.48,0,0,0-5.69-1.19,28.49,28.49,0,0,1-6.69-1c1-.09,1.94-.19,2.92-.25a26.73,26.73,0,0,0-5.82-.65c-1.14.06-1.93.26-3.73.5a58.29,58.29,0,0,1-7.66-.65c-2.63-.37-4.88-.85-5.35-1.36-.88.6-4.37,1.38-8.13,1.18,0,0,0,0,0,0a14.87,14.87,0,0,1,3.32-.51c2.34-1.32,4.93-2.66,7.43-4.28s5-3.28,7.37-5c1.18-.84,2.24-1.81,3.28-2.68a37.6,37.6,0,0,0,2.88-2.66c.85-.9,1.63-1.77,2.3-2.6a13.58,13.58,0,0,0,1.66-2.38c2-2.26,2.92-1.94,4-2.48a43.82,43.82,0,0,0-3.12,3.64c1-1.15,2.32-2.49,3.69-3.93s2.7-3.08,3.93-4.6,2.22-3,3-4.26a5.33,5.33,0,0,0,.95-2.74c2.44-2.9,2.12-1.86,1.9-1.14-.11.36-.2.63.11.26.15-.19.4-.53.8-1.1s.84-1.44,1.49-2.58L332,91.78c.8-1,1.55-2.09,2.27-3.12s1.25-2.15,1.83-3.22a41.21,41.21,0,0,0,2.73-6.5c.39-1.07.6-2.21.88-3.29a31.49,31.49,0,0,0,.68-3.29,52.54,52.54,0,0,0,.6-6.61c0-1.1,0-2.21.07-3.32l-.21-3.37c0-.56-.06-1.13-.08-1.7s-.16-1.13-.24-1.71c-.14-1.14-.28-2.31-.43-3.49A113.39,113.39,0,0,0,336.62,38a3.88,3.88,0,0,1,.28,1.67,48.77,48.77,0,0,0-10.64-16.77,75.5,75.5,0,0,0-15.84-12.17l-4.35-2.39L305,7.72l-1.12-.54-2.24-1.07a83.32,83.32,0,0,0-9.28-3.56A53.37,53.37,0,0,0,272.53.15a18.22,18.22,0,0,0-7.37,2.16,40.45,40.45,0,0,0-4.42,3.19c-.66-.1-1.33-.18-2-.26a45.65,45.65,0,0,0-5.45,5.7c-1.89,2-3.64,3.71-5.41,5.43s-3.51,3.43-5.21,5.32a37.53,37.53,0,0,0-8.53,14.88l1.48-1.23A89,89,0,0,0,232,44c-1.1,2.91-1.93,5.17-2.24,4.64A5.48,5.48,0,0,1,229,52l-.4,0a20.13,20.13,0,0,0,0-7.5c-.53-3.87-1.71-8-2.41-11.31.76.8,1.49,1.63,2.2,2.49a50.06,50.06,0,0,0-3-6.56c0-.77.1-1.48.39-1.6s.79.34,1.41,2a12.14,12.14,0,0,0-.65-2.84A8.36,8.36,0,0,0,225.8,25a14.94,14.94,0,0,1-1.61-3.85c-.11-.5.07-.34.35,0-.49-.69-.94-1.39-1.48-2l-.78-1-.84-.94c.43.29.55,0,.76-.13s.47,0,1,1a27,27,0,0,0-1.44-2.32,21,21,0,0,0-2-2.25l-1-1c-.34-.29-.69-.55-1-.81a18.25,18.25,0,0,0-2-1.35c-.63-.41-1.25-.74-1.84-1s-1.1-.62-1.62-.87A12.42,12.42,0,0,1,211,7.61a6.75,6.75,0,0,1-1.13-.87l.74.22c-.74-.29-1.39-.57-2-.76l-1.54-.46a9.62,9.62,0,0,0-1.95-.37c-.86-.09-1,.07-1,.29,0,.46.26.9-4.26.77a32.22,32.22,0,0,0-2.82-1.89l-1.49-.91c-.5-.28-1-.54-1.53-.82L192.79,4c-1.27-.07-3.79-.11-3.34-.61-4.69,1.08.82.47-1.87,1.42a23.9,23.9,0,0,0-5.2,0c-1.86.24-3.78.52-5.54.89l-2.51.47c-.78.16-1.51.28-2.15.36a4,4,0,0,1-2.69-.28c-1.89,1.41,5.8-.67-.32,1.49-2.34-1.58-7.12,2.28-12.61,3.16,1.26-1.56,6.46-2.65.86-1.83a8.21,8.21,0,0,1-2.77,1.72c-1.15.48-2.51.82-3.9,1.24s-2.84.76-4.2,1.2a25.14,25.14,0,0,0-3.68,1.48c.1.36-.41.85-1.34,1.44s-2.28,1.28-3.82,2.14a62.85,62.85,0,0,0-10.1,6.4c.08-.33-3.16,1.58-6.83,4.65a60.11,60.11,0,0,0-9.86,10.53l-.08-.32c.21,1-.8,3.12-1.86,5.74a43.2,43.2,0,0,0-2.76,8.54,1.43,1.43,0,0,1-.67-1.31,7,7,0,0,1,0-1.35c.07-.54.19-1.19.35-2a45.59,45.59,0,0,0-1.51,5.25,44.87,44.87,0,0,1-.1,6.52l-1-1.46a42.93,42.93,0,0,0,.54,11.09c.61,3.81,1.46,7.76,2.4,12.21.55.1.74-1.82,1.24-2.62.24-.4.55-.52,1,0a18.13,18.13,0,0,1,1.84,3.8c-.4.49-1.23,1.14-2.16-1.14A25.3,25.3,0,0,1,109.81,87c-.73-1-1.4-2.14-2.08-3.25.88,4,1.38,1.78,2.41,4.83-.77.22.37,2.43-.39,2.23a15,15,0,0,1-.61-1.79,8.06,8.06,0,0,0-.84-2c1.08,3.53,2.49,7.77,2.6,9.37.26-.49.95-.45,2.23,1.91,1.62,3.07,1.74,3.68,1.58,4s-.53.41.31,2.28c1.31,1.2,3.17,5.28,4.25,4.73a5.74,5.74,0,0,1,1,3.14c.13.15.28.32.43.51a1.66,1.66,0,0,0-.54,2l-.39-.25.23-.32c-6-3.48-13.12-8-17.86-9.6-1.78-1-3.91-2.9-2.92-2.91-2.42-1.09-3.83-1.56-5.46-2.26s-3.46-1.62-6.89-3.38c5.2,1.45-1.44-1.33,5.24,1.71-3.09-1.58-5-2.61-7-3.46a30.89,30.89,0,0,0-8-2.12c1.36-.1.21-.83-1.75-1.52A30.4,30.4,0,0,0,69,89.4c1.58.56,3.13,1.17,4.66,1.8-3.66-.79-6.88-1.49-10.21-2l2-1.07a37.33,37.33,0,0,0-20.33.79,84.75,84.75,0,0,0-8.59,3.25c-2.72,1.18-5.36,2.33-8.12,3.41-1.4,1.5.4.47,2.25-.49a18.26,18.26,0,0,1,2.47-1c.58-.13.74,0,.09.63-3,1.51-6.12,3.11-8.66,4.63A27.91,27.91,0,0,0,19.32,103a19.84,19.84,0,0,0-2.15,2.26,12.67,12.67,0,0,0-1.42,2,17.2,17.2,0,0,0-1.61,3.31c-.41,1.06-.83,2.12-1.41,3.44a51.4,51.4,0,0,1-2.67,4.88c.51-.43,1.17-.73,1.34-.14s-.15,2.08-1.42,5.3c-1.44,2.89-2.58,4.57-3.34,5s-1-.37-.4-2.37c.54-1.49,1-2.11,1.15-2,.68-2,1.75-4.64.14-2.49l.08,1A32.12,32.12,0,0,0,6,126c-.54,1.17-1.13,2.42-1.64,3.53-1,2.25-1.72,3.88-1.73,2.72-.58,2.51-.5,3.11-.19,2.61a11.1,11.1,0,0,0,.67-1.44c.29-.66.65-1.47,1-2.33A42.59,42.59,0,0,0,.9,141.79a58.85,58.85,0,0,0-.85,11.66c.18-1.52.68-2.87.74-1.41a24.57,24.57,0,0,0,.8,6.76,6.47,6.47,0,0,0,.53,1.47,5.67,5.67,0,0,0,.47.79,15.11,15.11,0,0,1,1,1.35c.47.66,1,1.79,2.09,3.74.42,1.23.61,1.74.54,2s-.25.29-.35.37-.14.85,3.11,4.22a19.8,19.8,0,0,1,1.47,2.13c.14.35,0,.39-.39.26A14.34,14.34,0,0,1,7,173a117.2,117.2,0,0,0,9,7.9,46.31,46.31,0,0,0,7.49,5c-.7-.23-1.39-.5-2.09-.78s-1.4-.53-2.09-.85c1.25.54,2.37,1,3.42,1.5s2.06.91,3.08,1.31c-.66-.59-1.3-1.25-1.93-1.86,2.27,1.23,4.31,1.93,4.12,2.31,2.66.29-1.3-2.12,3.78-1.25a17.78,17.78,0,0,0,2.8,1c1.06.31,2.22.56,3.29.84,2.17.51,4.05,1,4.48,1.71-5-1.32-4.78-1-4.41-.49s.74.92-1.43.52l.84.22c1,.25,2.12.56,3.32.92.34.22-.4.19-1.08.09,4.78,1.66,6,1.42,7.25,1.17s2.55-.67,7.59,0c-1.37.54,2.2,1.63,3.87,1.62-4.09-.44-1.81-1.36,1.95-1.55,6.42,1.06,7,.06,10.41.29l-3.84-.44c1.34-.65,4.55-.37,9-.53.37.56-4.07.29-2.48.57,5-1.12,11.24,1.43,18.17.3,3.23.35.36,1.33,3.21,1.52a37.75,37.75,0,0,1,4.44-.5l-.93.56c-2.14,1.32-4.37,2.82-4.47,3.78l-1.36.47-1.33.56-2.66,1.12a25.36,25.36,0,0,0-5.14,3.76c-1.27,1.22-2.25,2.34-3.21,3.44s-1.82,2.3-2.93,3.58c-.55.64-1.16,1.31-1.86,2s-1.53,1.44-2.36,2.34c.7-1.39.2-1.36,0-1.65s0-.85,2.27-3.35c-1.22,1.15-2.47,2.13-3.25,3s-1.23,1.52-1.05,1.73a8.64,8.64,0,0,0-1.61,1.67l-1,1.29-.53.7-.49.78a26.79,26.79,0,0,1-4,5.28c-.47,1.4,0,2.23-2.06,5.33-.21.16-.29,0-.31-.07a4.47,4.47,0,0,1-.25.72c-.16.48-.37,1.08-.52,1.59-.31,1-.36,1.7.75.47a33.55,33.55,0,0,0-2.5,3.37,37.19,37.19,0,0,0-2.09,4.24c-.32.76-.69,1.52-1,2.32l-.72,2.48c-.23.83-.47,1.67-.7,2.52a24.81,24.81,0,0,0-.5,2.57l-.42,2.58-.21,1.27c-.05.43-.07.85-.1,1.28-.14,1.68-.27,3.33-.4,4.89s-.06,3.07-.16,4.46l-.09,1c0,.33,0,.66,0,1,0,.64-.07,1.24-.13,1.82.15.91.29,1.85.44,2.79s.47,1.89.7,2.84.49,1.92.74,2.88.66,1.88,1,2.81.67,1.85,1,2.77.81,1.75,1.2,2.6l1.16,2.49,1.28,2.23c-.41-.25-.35.18-.9-1a17,17,0,0,0,2.49,4.24,12.25,12.25,0,0,0,2.1,1.77,15.11,15.11,0,0,1,2.23,1.88A31.63,31.63,0,0,1,69,301c1.41,2.26.32,1.45-.9.36s-2.3-2.64-1.41-1.22a1.78,1.78,0,0,0,.08,1.23,4.4,4.4,0,0,0,.94,1.5,36.7,36.7,0,0,0,3.73,3.49c1.6,1.12,3.32,2.36,5,3.58a31.91,31.91,0,0,1,4.71,3.57c-.54-.22-1-.52-1.55-.78a14.62,14.62,0,0,0,3.84,2.4c.75.36,1.53.72,2.34,1.06s1.72.57,2.61.87a57.43,57.43,0,0,0,5.7,1.56c2,.42,4,1.07,6.21,1.45,0,0-.47.14-.13.37.77,0,1.62,0,2.53,0s1.87.14,2.89.08,2.09,0,3.18,0l1.67,0,.84,0,.86-.06,3.45-.2c1.16-.09,2.32-.06,3.45-.25l3.35-.43c1.08-.16,2.15-.21,3.15-.46a6.89,6.89,0,0,1-1.56.72l-1,.33c-.4.17-.3.3.54.75,1.86-.21,1.53-.64,1.67-1.09s.72-1,4.29-1.73a38.08,38.08,0,0,0,4.9-.19,19.31,19.31,0,0,1,2.39,0,2.76,2.76,0,0,1,1.45.29,34.1,34.1,0,0,1-3.42,1l-3.45.88a14.48,14.48,0,0,0,6.4-1.06l3.18-1.37c1-.43,2-.8,2.89-1.15l-.21.77a36.58,36.58,0,0,0,9.56-5.91c1.08-1,2.2-1.92,3.62-3.08.67-.62,1.42-1.29,2.29-2l1.4-1.16,1.49-1.4-1.19.47a15.6,15.6,0,0,1,2.23-2.84,13.67,13.67,0,0,1,1.68-1.42,10.24,10.24,0,0,0,3.72-4.38l2.44-.55c.55-.91,1.22-2.2,2-3.69s1.57-3.28,2.46-5.11c1.56-3.75,3.15-7.88,4.26-11.39a36.54,36.54,0,0,1-2.18,8.51,86.86,86.86,0,0,1-3.94,9,36.55,36.55,0,0,0,2.11-3.44c.39-.69.81-1.4,1.19-2.14l1.07-2.25a35,35,0,0,0,1.71-4.22,10,10,0,0,0,.7-2.81,21.43,21.43,0,0,1-1.91,5.08c1.07-5.14,2.95-11.41,5-19.24a.49.49,0,0,0,.23.13c.31,1.49.64,3,1,4.51.46-3.21.75-2,1.22-.2S187,271.85,188,271c1.19,3.68,1.66,5.09,1.61,5.49l-.15-.81c.06.35.09.54.14.84h0q1.13,5.83,2.83,11.63c.25,1.44-.25.64-.86-.47s-1.27-2.53-1.46-2.26c.78,2,1.22,3.29,1.47,4.11a4,4,0,0,1,.22,1.53c0,.63-.34,1,.67,3.74.27-1.47,2.38,2.23,4.71,6.73-.9-2.23-1.7-4.48-2.43-6.74a49.06,49.06,0,0,1,5.43,10.11,24,24,0,0,0,2.07,4.05,28.23,28.23,0,0,0,4.74,5.49q-1.62-1.25-3.18-2.58A79.06,79.06,0,0,0,215,322.58a40.79,40.79,0,0,0,7.6,4.59,21.11,21.11,0,0,0,6.49,1.94c1,.68,2.24,1.9-.6,1a39.9,39.9,0,0,0,12.29,3,48.21,48.21,0,0,0,12.8-.79A72.68,72.68,0,0,0,265,329c3.48-1.24,6.59-2.58,9.37-3.64l-.77,1.06a37,37,0,0,0,3.3-2.33,16.06,16.06,0,0,1,3.92-2.23c0,.3-.67,1.11.47.45,1.22-.94,5.73-4.9,8.91-7-.7.86-1.45,1.64-2.19,2.47a46.64,46.64,0,0,0,7.94-6.37,43.46,43.46,0,0,0,5.49-6.88,51.89,51.89,0,0,0,6.72-15.94c.41.12,1-.5,1.57-1.66a20.42,20.42,0,0,0,.82-2.11,26.55,26.55,0,0,0,.68-2.7,36.24,36.24,0,0,0,.14-11.82l.29.17a46.93,46.93,0,0,0-4-12.21,61.5,61.5,0,0,0-5.85-9.69,131.61,131.61,0,0,0-14.68-16.4c-.18-.29-.38-.6-.59-.91h0l3.14.74c1,.27,2,.37,3,.57s1.87.36,2.74.55,1.72.28,2.49.44a29.42,29.42,0,0,1,4,1c1-.13,2-.24,3.11-.33l1.62-.12c.55-.07,1.09-.17,1.64-.25,1.09-.18,2.17-.35,3.22-.54a28.9,28.9,0,0,0,3-.87v1.15a29.68,29.68,0,0,0,3.85-.8c1.21-.33,2.35-.63,3.46-1l3.17-1.22c.51-.21,1.05-.38,1.55-.64l1.5-.76a47.18,47.18,0,0,0,13-9.54l-1.51,2.5a16.55,16.55,0,0,0,4.85-7.29c.4-1.18.76-2.32,1.27-3.51a23.2,23.2,0,0,1,2-3.89c.87-.25,1.68-.55,2.51-.87A77.93,77.93,0,0,0,358,188.79a47.4,47.4,0,0,0,1.68-19.35c.25.21.74.59.83,2.72,0-.78,0-1.73,0-2.8l0-1.7C360.56,167.07,360.53,166.46,360.5,165.84Zm-81.34-37.15h0S279.21,128.68,279.16,128.69Zm-11,6.35c-.34.16.19.22,1.07.25l-2.41.58-.11,0C266.38,135.57,266.88,135.16,268.19,135Zm12.19,1.37a1.1,1.1,0,0,1-1,0ZM230.41,71q-.65,3.09-1.2,6.21c1.5-3.36,1.25-5.72,1.31-8.33a6.61,6.61,0,0,0,1.7-2.83c0-2.52.08-5,.19-7.59,1-.65.47,3.56,2.24-1.05.22-3.54-2.54,2.7-1.37-2.94,1.92-3.17,2.22-1.94,2.95-6.15.56-.34.62.33.39,1.58.81-3.7,3.16-8.77,3.1-10.79,1.24-1.48,2.54-4.31,3.81-6.59s2.48-4,3.13-3.36a21.63,21.63,0,0,1,1.49-3.83c.39-.87.9-1.73,1.39-2.59a23.68,23.68,0,0,1,1.57-2.28c-1.07,3,.82.55,3.31-2s5.74-4.89,5.81-3.51c1-2,4.17-4.31,8-5.83a33.69,33.69,0,0,1,6.12-1.67c2.09-.4,4.17-.53,6.07-.75a4.45,4.45,0,0,1-1.91.33,17.79,17.79,0,0,1,4.59.72c1.14.38,2.08.72,3.37,1.19a2.11,2.11,0,0,1,1.59-.65,16.62,16.62,0,0,1,3,.1c2.28.28,4.95.9,6.89,1.26,2.26,1.82,1.26,1.88-.11,1.77a16.71,16.71,0,0,0-2-.11c-.55.06-.86.26-.61.74.06-.32.65-.34,1.5-.17a21.37,21.37,0,0,1,3,.82c2.1.66,4,1.46,3.39.53,3.27,2.93,3,2.22,4.21,4.41.82-.63,1.68-.15,2.78.61.54.38,1.15.82,1.84,1.23a9.7,9.7,0,0,0,1.11.58,12,12,0,0,0,1.21.54c2.08,2.31,2.08,2.89,2.26,3.38a2.3,2.3,0,0,0,.68.86c.42.42,1.13,1,2.41,2.07.9,1.29.18,1-.75.49S316.77,26,316.77,26c4.65,4.55,3.24,1.11,4.85,1.5,2.79,2.89,3.17,3.79,3,4.24s-.81.49-.38,1.79a32,32,0,0,0,2.3,2.55,14.4,14.4,0,0,1,1.05,1.21l1,1.19,1,1.16c.15.2.31.38.45.58l.36.61a19.9,19.9,0,0,1,1.24,2.49c-.12.34.07,1-.54.36a9.33,9.33,0,0,1,.57.87c.16.33.31.67.46,1,.3.72.59,1.51.89,2.35a17.06,17.06,0,0,1,.67,2.69c.17.94.43,1.89.53,2.87.14,2,.48,4,.46,5.87,0,1,.11,1.87.19,2.76a22.26,22.26,0,0,0,.14,2.52,2,2,0,0,1-.46.76c.85-.89,1.62-1,2.12-.7-.08.78-.11,1.54-.12,2.26s-.15,1.38-.21,2a3.89,3.89,0,0,1-1,2.62,5.43,5.43,0,0,0,0-3c-.09,1.08-.16,2.18-.28,3.28-.56.61-.78.64-.82.34a2.58,2.58,0,0,1,.06-.67c0-.28.08-.62.14-1,.23-1.44.59-3.23.08-3.31-.24,1.53-.35,3.16-.64,4.78s-.59,3.27-1,4.84-.93,3.09-1.49,4.47A36.27,36.27,0,0,1,329.45,85c-.83.13.34-2.46,1.21-4.42.71-2,1.17-3.39-.57-.67l1.62-3.33a14.85,14.85,0,0,0,.73-1.69l.67-1.73c-3.7,4.69,1.44-4.16-2.26,0-.7,2.23-1.52,3.89-2,5.37-.13.37-.26.73-.39,1.07l-.43,1-.79,1.87c-.27.61-.5,1.23-.81,1.86l-1.08,2c-.39.7-.82,1.45-1.33,2.27s-1.2,1.65-1.93,2.61c-.64,2.23,1.32,0,.67,2.3a25.26,25.26,0,0,1-4.94,6.06,15,15,0,0,1-3.68,2.37c-2.24,1-3.9,1.76-7.27,5.68a27.23,27.23,0,0,1-2,3.51,12.29,12.29,0,0,1-2.05,2,22.61,22.61,0,0,1-3.89,2.28l1.26-2.65a34.6,34.6,0,0,0-4.09,3,16.5,16.5,0,0,0-1.87,1.81,9.91,9.91,0,0,1-2.05,1.73,28.65,28.65,0,0,1-4.89,2.19,20.38,20.38,0,0,1,3.61-2.34c1.29-.74,2.18-1.34,1.52-1a30.43,30.43,0,0,0-3.32,1.3,5.2,5.2,0,0,0-1.47,1.13,7.51,7.51,0,0,1-3.5,2.57l-1.5-.84c-2.11.94-4.3,1.87-6.55,2.77a2.32,2.32,0,0,1-1-1.81c1.19,0,1.4,1.62,1.5-.3-1,0-1.31-.79-1.45-1.69a5,5,0,0,0-.72-2.43c-.64.33-1.15-.25-1.7-1.14a17.93,17.93,0,0,0-2-2.88c.52-.16-1.8-4.1-2.75-6.16l.23-.09c-1.44.57-2.56-1.41-3.88-2.44a1.66,1.66,0,0,1,2.06-.08c-.33-.4-.68-.79-1-1.18a2.68,2.68,0,0,1-1.89-.83l1.08-.43a8.53,8.53,0,0,0-1.19-1l-1.39-.94a8.44,8.44,0,0,1-2.53-2.61c-.81.64-.52,3.45-3,2.06.31-.46.89-1.22,1.57-.88-.22-.11-.93-.25-1.11-.75l1.45.09c-.59-1.12-1,.13-1.62-.59.55-.56-.13-.9.4-1.26.23.11.38.81.86.84a5.27,5.27,0,0,1-1.27-2.83.89.89,0,0,1-1.38.35c-1.6-1.3.09-1.18-.57-2.28-.72.07-1.41-1.18-2.18-.28-.47-.38-.21-.88-.2-1.28a15.39,15.39,0,0,1-2.44-1.35c-.87-.46-1.55-.67-1.43.19l.18.22a1.15,1.15,0,0,1-.17-.06,8.25,8.25,0,0,1-2.39-1.2A23.67,23.67,0,0,1,244,88.24a15.45,15.45,0,0,0-4.39-3l.19-.34c-1-.34-2.06-.77-3.06-1.17a6.41,6.41,0,0,0-2.82-.6c-.55-.25-1-1.25-.57-1.57-1.58-.36-1.87-.09-3.76-1.51,1.75,0-.28-.77,1.72.13a14.41,14.41,0,0,0-2.48-1.5c.05-1.81.12-3.63.22-5.45ZM227.6,58.42c.06-.31.13-.62.19-.93A2.33,2.33,0,0,1,227.6,58.42Zm.2-8.31c.06,1.14.11,2.28.14,3.42a3.14,3.14,0,0,0,.18-.31c-.37,1.7-.72,3.41-1,5.11a2.87,2.87,0,0,1-.38-1.37C226.22,52.35,227.38,50.39,227.8,50.11ZM112.93,87.55a56.79,56.79,0,0,1-3.82-10.83,28.56,28.56,0,0,1-.46-11.11c0,1.74.67,4.1.57,2.73a43.65,43.65,0,0,1,.35-12.24c-1.12.77-.91,1.46-1.95,4a18.91,18.91,0,0,1,.78-8.42c-.53,2.89-.12,2.94.49,2S110.44,51,111.11,50c-.42.27-.4-.61-.74-.53.5-.68.84-1.22,1.1-1.65a3.92,3.92,0,0,0,.51-1,1.8,1.8,0,0,0-.08-1.21,2.43,2.43,0,0,1,.11-1.67,12.24,12.24,0,0,1,2.49-3.79c0,.22.07.44.12.67,1.71-2.93,3.29-5.8,6-8.32.92-.16.35.57-.38,1.43s-1.55,1.94-1.3,2.31c.86-.95,1.6-2,2.4-3,.39-.51.78-1,1.16-1.52l1.23-1.45a15.64,15.64,0,0,1,5.73-4.52,68.12,68.12,0,0,0-5.6,5.12,68.22,68.22,0,0,0,8.17-4.75l-.33.17,1.14-.63-.81.46,2-1.09c.68-.35,1.39-.67,2.09-1a33.55,33.55,0,0,0-3.33,1.64c.88-.5,1.76-1,2.67-1.42,1.29-.65,2.58-1.3,3.91-1.87-.7.25-1.42.48-2.11.75a15.6,15.6,0,0,1,3.74-3.43,31.94,31.94,0,0,1,4.61-2.44l2.53-1.11c.87-.36,1.76-.72,2.66-1.13a53.56,53.56,0,0,0,5.61-2.88c-7.48,4.53-1,1.42-1.2,2.78,2.19-.47,5.53-1.14,4.72-.52a11.76,11.76,0,0,1,2.66-1.2c.88-.26,1.78-.44,2.72-.64A24.85,24.85,0,0,0,172,10.28c.34.32,4.27-.93,3.57.24,5.11-1.26-1.35-.46-1-1,3.87-1.49,8.75-1.91,13.93-1.82,1.3,0,2.61.11,3.94.15s2.67.16,4,.33c2.7.25,5.43.56,8.23,1a43.85,43.85,0,0,1,5.8,1.76c.81.28,1.53.6,2.23.91s1.34.64,2,1a21.9,21.9,0,0,1,7.94,7c.32.77.25,1.08.08,1.07a2.55,2.55,0,0,1-.94-.67c-.41-.36-.83-.83-1.18-1.18l-.61-.6a91.13,91.13,0,0,1,5.77,12.36c-.57-.86-.59.21-.65,1.71a10.05,10.05,0,0,0,1.35,3.14c.4.74.77,1.67.78,4.26a21,21,0,0,1-2.08-3.58,73.87,73.87,0,0,1,2.43,13.58c-.69,1.24-1-2.88-1.54-4.5.26,2.62.39,6,.46,9a52.24,52.24,0,0,0,.32,5.47c-.21,1.23-.42,2.46-.62,3.69-.08.28-.16.53-.24.77-.3-.32-.68-.29-1.14.29a15.53,15.53,0,0,1,.35,1.8c-.61,1.26-1,1.05-1.39,1.07-.59,0-1.36.58-2.73,7.17h0a12.9,12.9,0,0,0-2.91,0c-1.9.15-3.56.12-4.92-1.46-1.28.71,2.16,1.05.95,1.94-1.85-.51-3.56-2.77-4.18-2.87-2.61-1.06-2.76,1.57-5.48.8.32.5.52,1.78-1.56,2.07-1.87-.31-2.24-2.16-1-2.45.47,0,.69.16.65.32.64-.12,1.49-.26.76-.83l-.29.45A10.79,10.79,0,0,0,201,72c-.71-.19-1.23-.37-.89-.76-1.52.42-.67.77.42,1-2.5-.73-3.94-.19-6.54-.54.42.25.81.79.4.8-3.81-.46-1.64.88-4.16,1.27-1.5-.61.4-1.76-2.13-1-1.62-.37-.46-1.23.15-1.66a4.52,4.52,0,0,1-1.7.42,6.44,6.44,0,0,1-1.59-.07,23.37,23.37,0,0,0-2.63-.46l1.21-.54a6.94,6.94,0,0,1-2,.48c.29.27.58.56.86.84-.76-.08-1.38.06-1.43-.34-.65.74.82,1.45-.51,2.55-1-.29-2.81,1-3.38-.12,2.83-.16,0-1,1.43-1.68a4.88,4.88,0,0,1-1.33.13c-.14-.12.05-.28.24-.39-3.17-.45-1,1.7-4,2.35.21-.78-1-1.14-1.47-.84,1.2-.33.86,1-.08,1.82-2,0-1.93,1-2.92,1.19l1.19-.07c-.17.78-1.13,1-2.32,1.61-.09-.15,0-.28.11-.4-1.19.87-3.44-.44-4.92,1-1.08-.09-.57-1.21-1.5-1.19-1.87,1.7-2.78.11-4.78,1.83,1.06.57,1.07.31-.13,1.87L160,78.87l-1.82,2.34c1.12-.48,2.1-1.63,2.85-1.74-.84,1.18-.8.94,0,1.42C159,80.28,158.4,83,156.3,83l-1-2.15a6.54,6.54,0,0,0-3.66,2.06,12.52,12.52,0,0,1-3.94,2.87c.42-.1.82-.22,1.25-.29,0,1-1.9,1.36-2.73,2.34-.34-.73-1.15-.55-1.86-.67.38.45-2.33,1.58-1.68,3.06-.66,0-1.34.08-2,.16-2.7,1.59-1.38,3.89-3.72,5.59.11-1.22-1.27-.77-.18-2.53-.75.64-1.52,1.11-1.17,1.53-.37,0-.72.65-1.1,1.31s-.77,1.34-1.36,1.38c-.06.53.42,1.22-.41,1.92-.2,0-.28-.28-.28-.28.26.27-.82,1.58.46,1.52a4.87,4.87,0,0,0-2.54,1.15,12,12,0,0,0-2.07,2.19,22.82,22.82,0,0,1-1.91,2.24,4.44,4.44,0,0,1-2.15,1.35l-.72,1.19C120.16,101.16,116.14,94.5,112.93,87.55Zm7.8,25.43.21.26-.1.16C120.72,113.19,120.58,113.17,120.73,113ZM66.61,185.4c1.06.61-1.19,1-3.93,1.35s-6,.4-6.68.64c1.91-.91-1-1.34-3.65-1.95s-5-1.31-1.58-2.26c-1.58-.08-3.59-.05-3.33.55-2.29-.58-2.94-1-.5-1.21a53.07,53.07,0,0,0-6.94-.65,20.32,20.32,0,0,1-6.19-1.29c.15-.36,1.68-.06,2.57-.27a35.32,35.32,0,0,1-6.14-1,25.63,25.63,0,0,1-7.35-3.23c.45,0-.05-.64,1.61.26a74.51,74.51,0,0,1-6.61-3.77,35.79,35.79,0,0,1-5.47-4.45,22.84,22.84,0,0,1-4.16-5.93,20.37,20.37,0,0,1-2-8c1.08,1.62,1.09.58,1-.88A22.49,22.49,0,0,1,7.42,151c.09-.72.36-1.3.72-1.44L8.07,148l0-1.56c0-.52,0-1,.06-1.57l.16-1.58c-.37.79-.8,1.6-1.1,2.42,0-.69.18-1.38.27-2.06s.14-1.36.25-2c.24-1.33.35-2.66.66-3.94a27.45,27.45,0,0,1,2.37-7.29c-.39,1.42-.61,2.86-.92,4.27a100.64,100.64,0,0,1,3.84-10.21c-1,1.79-2.06,3.6-3,5.47.75-2.91.3-2.94,0-3.14s-.34-.58,1.56-4.07c-.28.76.37-.59,1.4-2.38.55-.89,1.17-1.89,1.83-2.8a18,18,0,0,1,1.94-2.23h0a23.42,23.42,0,0,1,5.75-8.47c1.11-.49.6,1.77,1.33,1.45.46-1.44,2.76-3.93,5.44-6.09s5.7-4,7-5.32c-.94.82-.62,1.54-.21,1.51a25.21,25.21,0,0,1,1.7-1.89A8.44,8.44,0,0,1,41,96c.4,0,.45.21.36.58C45.09,95.5,44.4,95.3,43.86,95s-.9-.63,3.9-1.16a19.74,19.74,0,0,1-1.84.75,68.22,68.22,0,0,1,13.88-1,48.39,48.39,0,0,1,13.36,2.26c1.07,1.08-.83.62-2.68.26s-3.66-.67-2.33.24c12.41,2.22,25.9,6.85,36.69,13.53l-2-1.32c1.28-.48,3.23.92,5.54,2.79s5,4.21,8,5.56c-1.4-.74-2.37-.14-1.88-.11.73.52,1.47,1,2.21,1.54a4,4,0,0,1-1.7,2.52l.09-.52c-1.49,1-.92,3.85-2.09,6.11,0,0-.16-.21-.35-.18a11.73,11.73,0,0,1-.06,3.77c-.18,1.37-.56,2.74-.74,4-.72-1.06-.15-1.23-1.28-1.14-.21,1.09,1.67.26,1.25,2.4-.75.48-1.73,1.81-2.82,1.7.16-.67.39-1.32.59-2a1.61,1.61,0,0,0-1.11,1.63,5.11,5.11,0,0,1-.2,1.94l-.56-.31c-.71,3.15.88,3.58,0,6.85l.54-.24c1.13,2.1-1.16,1.35-.36,3.38l-1.65.28c0,.32.11.76.18,1.28s.21,1.1.32,1.72a34.2,34.2,0,0,1,.46,3.66c-1.07-1.34-1.31-4-1.79-5.68-.18,1.22-.42,4.18.28,4.88-.1-.5-.4-1.16-.1-1.62a9.57,9.57,0,0,1,1.3,6c-1.54-.3-1.78,1.28-1.93,3.14s-.1,4-1.28,4.93a16.39,16.39,0,0,1,.35,1.63c.1.54.17,1.08.22,1.63.1,1.08.07,2.19.07,3.33a32.5,32.5,0,0,0,.55,7.16c2-2.2.32,1.46,2.67.68.35,1.1.45,1.53.32,1.67l0-.26c0,.12,0,.18-.06.27h0c-.1.64-.2,1.29-.31,1.93-1.58.14-3.23.26-5,.33-3.59,0,2-.92,3.14-1.34C91.89,185.72,78.9,185.11,66.61,185.4Zm40,5.79.13-.6,1.11-.19a2.51,2.51,0,0,1,0,.27c-.3.15-.58.31-.86.46Zm-6.51-.49a18.7,18.7,0,0,0,6.42-.07,3.17,3.17,0,0,1,.07.56h-.08c-.35-.55-2.53.16-4.19.44,0,0,0,.09-.06.15a27.89,27.89,0,0,1-3.81.35C102.5,191.1,102.09,191.36,100.11,190.7Zm73.78,81.5a75.83,75.83,0,0,1-10.06,17.4,57.85,57.85,0,0,1-14.27,12.89,30.59,30.59,0,0,0-4,2.95c-.84.79-1.27,1.58-1.9,2.21a9,9,0,0,1-2.62,2,10.32,10.32,0,0,1-1.1.53c-.42.14-.89.29-1.41.43a35.44,35.44,0,0,1-3.8.85c1-.74,1.92-1.57,2.85-2.34a51.44,51.44,0,0,1-14.11,3.89l-3.74.34-1.88.17H112.3a14.13,14.13,0,0,1-1.85-.13l-1.85-.18a63.58,63.58,0,0,1-14.29-3.13,66.91,66.91,0,0,1-6.65-2.76L86,306.59a11.88,11.88,0,0,1-1.59-.81c-1-.6-2.06-1.18-3.1-1.76,1.12.37,1.37.05,2.89,1.05a20.55,20.55,0,0,0-3.07-2.48c-1.18-1-2.53-2-3.83-2.91-2.39-2-4.64-3.59-4.89-3.42-1.84-2.3.09-1-.76-2.61a12.61,12.61,0,0,0-.93-1.25c-.32-.42-.64-.89-1-1.33-.7-.89-1.5-1.77-2.24-2.62C66.22,286.62,65,285,65,283.8c0-.2.17,0,.41.36l.28.37c-.07-.1-.14-.2-.21-.32-.26-.42-.48-.94-.74-1.48-.49-1.1-1.08-2.3-1.52-3.39-.77-2.21-1.45-3.83-1.59-2.49-.51-1.69-.74-3.41-1.14-5a47.73,47.73,0,0,1-.87-4.83,26.56,26.56,0,0,1-.37-4.65c0-.75,0-1.49,0-2.22s.21-1.44.34-2.14a10.3,10.3,0,0,1-.14-3.49c.21-1.32.52-2.74.8-4.07a15.06,15.06,0,0,1,.5-1.9c.17-.6.31-1.15.41-1.66a3,3,0,0,0-.15-2.22c.19.13.42.05.65-.21a5.34,5.34,0,0,0,.89-1.18,45.84,45.84,0,0,0,2.1-4.33c.89-1.65,1.68-3.52,2.49-5.19a43.82,43.82,0,0,0,2.07-4.23c-.18.8.45,0,1.12-.66s1.45-1.27,1.21-.35c.78-1,1.53-2,2.2-3,.33-.47.63-.94.94-1.35l.87-1.14c1-1.4,1.45-2.33.8-2.31.51-.36,1-.72,1.47-1.1s.93-.78,1.43-1.14c1-.73,1.87-1.51,2.74-2.31s1.65-1.67,2.52-2.42,1.7-1.52,2.51-2.26,1.6-1.46,2.38-2.13a24.91,24.91,0,0,1,2.41-1.67,11.44,11.44,0,0,1,4.64-1.82c1.37-1,2.82-1.82,4.21-2.73.71-.44,1.41-.88,2.1-1.33s1.39-.9,2.13-1.27l4.2-2.24c.88,1.74,2,3.49,3.44,4-.12.42-.54,1.11-1,.42a13.36,13.36,0,0,0,1.71,3.1c.71,1,1.44,2,2.23,2.92a29.53,29.53,0,0,1,2.08,2.73,8,8,0,0,1,1.31,2.66l-.69,0c.62.61,1.71.62,1.83,1.8-.24.1-.69.06-.49.4.43.26,2.15,1.22,2.51,2.32l-1.1-.37a9.5,9.5,0,0,0,3.8,4A23.69,23.69,0,0,1,129,225c-1.3,1.15.63,4.11,1.71,5.51l-.21.14A20.4,20.4,0,0,0,133.2,233a31.87,31.87,0,0,0,2.87,1.71c1,.53,2,.95,3,1.43s2,1,3.06,1.5a7.25,7.25,0,0,0,1.78,2.43,26.1,26.1,0,0,0,3,2.33c1.1.8,2.35,1.47,3.5,2.24s2.27,1.48,3.21,2.26c-.5-.61.74-1.16,1.55-1,.82.86,3.27.19,2.43,1.59l-.34-.19c.1,1.77,2.36,2.4,4,3.05l1.05-1.85c1.57,2.31,4.61,3,7.35,3.53a33.68,33.68,0,0,1,3.78.75,3.68,3.68,0,0,1,2.42,1.57c1.1-.22,2.32-.06,3.43-.27A96.72,96.72,0,0,1,173.89,272.2ZM294.27,257a49.16,49.16,0,0,1,5.43,11.75c.55-.06,1.06.85,1.55,2.13s.94,2.91,1.53,4.33a29.88,29.88,0,0,1-1.57,11.13,42.22,42.22,0,0,1-5.65,10.85c-1.6,2.61-1.78,3.1-1.58,3.29s.66.05-.05,1.34c-.27-.08-.85.28-1.51.8s-1.51,1.15-2.18,1.69c-1.39,1.06-2.32,1.63-.84-.19a80.83,80.83,0,0,1-9.93,8.09c-.79.58-1.62,1.15-2.5,1.74s-1.81,1.24-2.84,1.88l-1.61,1-1.79,1.05c-.62.38-1.28.75-2,1.12s-1.43.78-2.21,1.16c1.55-.21,3.19-.8,2.53-.1a16.63,16.63,0,0,1-1.81.83c-.63.21-1.25.38-1.78.5-1.08.25-1.85.22-1.76-.07.19-.11.39-.2.58-.33a35.21,35.21,0,0,1-24.23,2.4A45.7,45.7,0,0,1,229.29,319c-3.21-1.76-6.06-3.61-8.71-5.12l.59.33a58.88,58.88,0,0,1-9.7-8.27c-3.53-4.78,2.8,2.31.59-1.52a43.84,43.84,0,0,1-5.94-7.39,57.56,57.56,0,0,1-3.93-7.24c-2.2-4.79-3.89-9.44-6.27-14.81,0-4.46-1.93-11.4-3.34-19,1.85,0,3.71.47,5.59.56a15.08,15.08,0,0,0,2.85,0,9.48,9.48,0,0,0,2.77-.87.88.88,0,0,1-.72.86c1.78,0,7.06.37,6.08-1.83.26,1.54,3.89-.48,5.71-1.53l-.08,1.17c1.39-1.78,1.34-2.17,3.54-3.09.51,0,.66.57.17.65,1.62,0,1-1.4,3.2-1.43l-.62.91c1.88-.45,1.64-.75,2.38-1.88,1-.81,3.51-.88,4.13,0a2.29,2.29,0,0,1,1.87-2c.28.29,0,.66-.17.85a6.5,6.5,0,0,0,2.05-.66,10.48,10.48,0,0,0,1.44-1,4.1,4.1,0,0,1,2.84-1.27.77.77,0,0,0,.63.42,27,27,0,0,1-4.11,1.71c.4.94,2.4.24,1.44,2.23.63-.71,1.42-1.74,2.3-2.64a6.31,6.31,0,0,1,2.83-2,1.51,1.51,0,0,1,.41.19l-.14.2a2,2,0,0,0,1.07-.74,6.34,6.34,0,0,0,1.62-.57c.62.61,2.35-.78,3.24-1.33-.66-.91.57-1.49-1-1.59.18,0-.09.22-.65.62a1.92,1.92,0,0,0-.32.32V242c-.57.37-1.33.83-2.19,1.35.43-.9.91-1.74,2.22-1.77.08-.88.17-1.84.25-2.3,2,.6,4.77-.19,5.62.34,1.12-1.18,2.6-2.34,3.76-3.66a12.15,12.15,0,0,0,1.5-2,5,5,0,0,0,.63-2.12c.48-.79,1.16-.21,1.64-.19-.25.5-.74.88-.75,1.29,1-1.54,3.79-3.74,3.06-5.08,2.07-1.08.06,1.86,2.08-.49l0,.62a8,8,0,0,0,3.26-2.77,13.25,13.25,0,0,0,.82-1.53c2,1.6,3.92,3.23,5.82,4.93-3.25-3.41-1.49-3.82,1.51-1.34l.27,2c2.38,1.09-2.65-3.1,1.8-.35,3.49,3.5,1.37,3.33-.95,1.72q2.32,1.86,4.59,3.8c0,.52-1.17-.31-1.77-.21,1.15.56,2.73,2.59,4.35,4.72s3.32,4.31,4.95,5.2l-.09.5A105.18,105.18,0,0,1,294.27,257Zm-62.86-16a13.47,13.47,0,0,0,1.62-.69c.29.28.34.73-.05.88C233.07,240.78,232.1,241,231.41,240.92Zm3.62-1.81.85-.5-.84.52ZM241.9,244a11.58,11.58,0,0,0,1-.72s0-.11,0-.16a1.49,1.49,0,0,1,.05.62C242.41,244.18,242.1,244.11,241.9,244Zm15.63-23c.65-.41,1.27-.84,1.88-1.29-1.65-.09-.94-.41-.73-.72l1.17.87-.27.67-.72-.31.7.36c-.08.18-.15.35-.23.52a5,5,0,0,1-1.59,2.1C256.56,222.37,259.74,220.34,257.53,220.9ZM351.7,175a62,62,0,0,1-2.05,12.47,49.71,49.71,0,0,1-4.34,11,41.76,41.76,0,0,1-2.84,4.6c-.5.7-1.07,1.34-1.58,2a20,20,0,0,1-1.61,1.79A7.1,7.1,0,0,1,337.6,210a34.93,34.93,0,0,1-3.89,3.92c-2.84,2.6-5.9,4.54-5.72,5.8a29,29,0,0,1-4.86,1.9l-.85.27-.81.16-1.53.33-1.66.39c-.63.1-1.34.22-2.17.38a23.06,23.06,0,0,1-2.93.49l-1.86.23c-.34,0-.68.1-1.05.12l-1.14,0a20.09,20.09,0,0,0-4.27,1,13.42,13.42,0,0,1-5.08.85v-1.24c-1,.12-2,.29-3,.38l-3,.13-1.41-1c-.47-.33-.92-.74-1.37-1.1l-4-.72c1.55.49,3.21,1.41,2.89,1.69a22.15,22.15,0,0,1-5-1.37,30.08,30.08,0,0,1-4.71-2.15c-1.4-.8-2.58-1.54-3.41-2.13s-1.27-1.09-1.24-1.23l-3.54-1.51c-.5-.23-1-.43-1.52-.67l.07,0-.07,0-.06,0-.17-.14a15.79,15.79,0,0,0,1.64-1.93c.57-.79,1.12-1.6,1.63-2.43a58.8,58.8,0,0,0,2.63-5.27c1.68-3.56,3-7.17,5.38-10.34,1.09-1.9.28-2.44,0-3.89l1.3-.08c-.22-.85-.47-1.7-.71-2.54a3.79,3.79,0,0,1,.61-2.16,21.25,21.25,0,0,1,1.33-1.9,8.44,8.44,0,0,0,1.2-2.14,5,5,0,0,0,0-2.8l-.89.36a20.85,20.85,0,0,0,.4-2.74c.1-.92.26-1.62.71-1.44-.13-.17-.78-.58-.29-1.08l.64,0c-.11-.61-.21-1.21-.33-1.81l-.4-1.8c.64-2.69,2.51.63,2.85-3.43-.2-1.54-1.73-4.31-2.17-3.74-.05.6-.43,1.52-1.07,1.55l-.29-1.34a21.36,21.36,0,0,0-2.16-.33.67.67,0,0,0,.11-.6l-1.34-.54.38,1.21h0c-.78.19-1.5.76-2.12,2.14l1.08,2.2-.95.65c0-.6,0-1.21,0-1.81-.86,1-.16,1.66.29,2.43a1.64,1.64,0,0,0-1.06.83l1.61,2.27c-.76.18-1.34-1.08-1.9.28.7,1.08,1.75-.78,2.08.93-1,.94-1.62.54-1.06,1.84-.49.11-.76-.19-.91-.69a5.88,5.88,0,0,1,.2,1.94,2,2,0,0,0,.5,1.62c-.61.44-.71,1.35-.86,2.1s-.44,1.32-1.28,1.08a5.77,5.77,0,0,1,.76,3.15c-1.57-2.27-1.11,3.56-3.17,2.46.75.91.57,2.11.24,3.41-.17.64-.35,1.32-.52,2a7.16,7.16,0,0,0-.27,2c-.09-.18-.28-.54-.11-.7-.64,1.19-1.31,1.33-1.95,2,1.38.76.85,2.8,1.25,4.26-2,.86-1.25-1.7-2.78-1.83.59.22.59,1,.58,1.72s-.07,1.35.53,1.33c-1.41.7-.9.77-2.35.74,1.63,1.1-.21,1.19.31,2.66-1.75,1.1-1.83-.51-2.3,1.51-1,.5-.71-1.36-.71-1.36-1,1.7.78,1.55,1.29,2.36-.95,2.26-1.52.37-2.6.65A7.81,7.81,0,0,0,265,210c0,.19,0,.37,0,.54-4.76-3.76-9.59-7.35-13.71-10.52,1.32,1.16.13,1.11-1.54.47-1.45-1.22-2.95-2.44-4.4-3.57l-.58.8-.72-.37-4.48,6.16c.23.15.44.31.66.46l-.66.91,2.35,1.34-1.49.06,2.92,1.92c2.24,2.82,7.06,6.26,11,9l1.13-.67c.86.62,1.71,1.25,2.57,1.89l-.34-.06a8.91,8.91,0,0,0-2,2.32,6.52,6.52,0,0,1-2,2.26c.05,1,.93.65,1,1.65-1,1.93-2.22,1.87-3.26,1.69s-1.91-.38-2.46,1.3c0,1.18.8,2.71-1.48,3.35l-.36-1.67c-2.27,1.6,0,2.74-3,3.64.09-.8,1.51-1.69,1.06-1.6-2.25.12-.59,1.49-1.8,2.35l-1-.95c-2.36,1.79-4.66,4.38-7.54,6.12,0-.45.28-1.08-.6-1.1a19.71,19.71,0,0,1-5.84,2.85,38.19,38.19,0,0,1-6.31,1.24l-1.08,1.6c-.35.11-.79-.32-.49-.64-1.62,0,.14.74-.45,1.38-.84.33-1.32-.32-.88-.81-2.3,1.81-7.21,4-10.31,3.21l.51-.45c-2.29-.12-2.23,2.73-4.48,1.93l.38-.26c-2.5,0-5.1.34-7.58.35-.61,0-1.22,0-1.82,0s-1.17-.12-1.73-.21a9.38,9.38,0,0,1-2.93-.9c-.18-1.67-.31-3.32-.36-4.92a37.33,37.33,0,0,1,.9-10.45l-.77.61a7.76,7.76,0,0,1,0-2l-.91,0,0-.72-8.07-.27c0,.24,0,.48-.05.72l-.94,0c0,1.34-.64,2.23-.78,3.86.57-.32.66-3.35,1-1.43a98.32,98.32,0,0,1-.53,12.68l-.51-.2c-1-.27-1.82,1.13-3.17,1.08l.24-1.21-2,.85c-.19-.54-.37-1.1-.55-1.66l-1.25,0c.44.2.85.82.69,1.14a5.11,5.11,0,0,1-2.88-1.13c-.79-.63-1.28-1.35-1.2-1.65-1.53-.15-3.07-.29-4.6-.55.21-.33.7-.34,1.22-.36-1.83,0,.38-1.38-1.9-1.13.16.37-.43.62-.57.84a5.87,5.87,0,0,0-2-1.54,18.1,18.1,0,0,0-2.8-1.11l.68-.6c-1.41-.87-3-1.5-4.64-2.32-.81-.4-1.65-.78-2.46-1.21s-1.61-.93-2.39-1.43a1,1,0,0,1-1.16,1.64l.34-1.32c-1,.28.71,1-1.08,1.06-1.09-.95.06-1.77.95-1.66l-1.65-.62c.14-.37.59-.31,1-.65-1,.24-1.61-2.72-3.21-2.24l.16-.37c-.72-.57-1.37-1-2-1.46l-1.62-1.19a25.2,25.2,0,0,1-3.13-2.45c-.81.78-1.51-.23-2.81-.22-.66-1-1.27-2-1.94-3.11a18.5,18.5,0,0,0-2.27-3.2c-1.65-1.11-1.09.18-2.15-.07.7-.76-1.05-2.84.4-2.18-1.09-1.21-1.71-2-2.49-2.9-.39-.43-.81-.87-1.33-1.38s-1.07-1.15-1.8-1.92c-.11.61,0,1.14-.43,1.1-.55-.55-.57-1.68-.09-1.85l.2.11c-1.88-1.59-2.6-4.34-3.12-6.92-.31-1.27-.5-2.55-.88-3.63a6.35,6.35,0,0,0-.72-1.48,4.25,4.25,0,0,0-1-1.18l.17.15-.69-.88,1.84-.82,1.08-.48,1.11-.4,4.25-1.56c1.38-.27,2.77-.58,4.2-.92l-.13-.57L131,189l-1.59-6.9-.44.09-.14-.61-2.8,1.15-3.34.56c.12-.82,3.3-1.36,6.59-1.95l1.93,8.4c-4,1.4-8.54,2.8-7.86,3.69,2.93-1.12,5.57-2.2,8-3.22l-2.15-9.35c-4.34,1.07-8.42,2-12.63,2.74l-1.46.25a7.57,7.57,0,0,0-.9-2.21,3.34,3.34,0,0,0,.58-1.31,5,5,0,0,0,.15-1.5,20.06,20.06,0,0,0-.57-3.38,36,36,0,0,1-.65-3.55,6.56,6.56,0,0,1,.42-3.15l-.7.25c-.76-.86.32-1.12.47-1.79-.55.12-.61,1-1,.47a33.89,33.89,0,0,1,.54-11.85,101.65,101.65,0,0,1,3.34-11.48c.4-1.37-.35-2-.92-2.66s-.93-1.42.39-2.94l1,1.37a17.5,17.5,0,0,1,.71-4.38,43.39,43.39,0,0,1,1.55-4.17c.62-1.36,1.26-2.69,1.81-4a25.76,25.76,0,0,0,1.53-4.12c.1.45.43.64.18,1.13a2.77,2.77,0,0,0,1.19-1.3l.29.19c3.67,2.31,7.61,4.88,12.42,7.81l2.48-3c-.93-.83-2.05-1.91-3.16-3l1.49.84c-1.53-2-3.66-4.61-5.75-7.28-1.1-1.41-2.18-2.84-3.18-4.23a11.19,11.19,0,0,0,1.68-2.22,5.19,5.19,0,0,1,1.83-2.06c-.2-1.66,2.83-2.41,1.82-3.82,1.24,1.34,3.62-1.74,4.07-3.26.05.71,1.25-.4,1.38.52,1.07-1.1,1.95-2.25,1.12-2.78,1.81-.12,2.57-1.4,3.38-2.45s1.5-2,3-1.37a49,49,0,0,1,10-8.64c.36.85-.67,1.36-1.6,2s-1.83,1.19-1.27,2c.75-.64,1.4-1.29,2-1.91s1.19-1.17,1.79-1.72a11,11,0,0,1,4.4-2.62c1-.2-.22,1-.4,1.38a22.13,22.13,0,0,1,5.18-2.48c.88-.3,1.75-.59,2.58-.94a23,23,0,0,0,2.43-1.22c0,.17-.28.45-.58.68.65-.25,1.62-.19,1.32-1l-.59.4c-1.43-.82,2-3.16,2-3.8-.59,2.55,3.62-.23,2.44,3.09.41-.25.88-.76.66-1.27.71,0,1,.27.44,1a4.64,4.64,0,0,0,1.81-1.23,2.57,2.57,0,0,1,1.74-.79c.06.39-.36.62-.51,1.12a4.88,4.88,0,0,1,4-1.84c-.07.21.09.44-.19.55a29.44,29.44,0,0,0,4.19-1.42,8.5,8.5,0,0,1,4.78-.59c-1,1.75,1.26.54,1.46,2,.64-.18,1.29-.31,1.94-.44l-.78-.75c1.7.09,3.27-1,4.73-.42-.43.17-.87.35-1.3.55,1.07-.07,2.14,0,3.22-.07l-1.78-.7c1.8-.64-.07-1.9,2.23-1.31-.49.12,1.77.13,2.56,1.16h0a3.65,3.65,0,0,1,3.1-.22c.26.52-.52,1.6-.35,1.94,1-1.09,4,.33,5.34-.73a1.3,1.3,0,0,0-.51,1.17l.9-.83c.72.5.79.68.53,1.26,2.3.72-.32-2,2.29-.58-.24,0-.17.2-.67.25a19.22,19.22,0,0,0,4,1c0,.82,0,1.63,0,2.37s.06,1.44.12,2c-.09.42-.17.84-.26,1.24s.23.69.53.46c.1.3.21.34.33,0q0-.23.06-.48A6.18,6.18,0,0,0,222,85l-.15-.43c.35-1.28.8-2.33,1.18-2.36,0,.24,0,.48,0,.72-.3,0-.49.07-.35.57l.31.07c-.08,1-.16,2.1-.21,3.15.87.53,1.7,1.67,2.61,1.35.66-.2,1.34-1.16,2.23-3.62a18.75,18.75,0,0,1,6.23,2.06L233.3,86c1.4-1.66,2,2.18,4.09,2.17-.48-.09-1.09.75-.87.59a12.63,12.63,0,0,0,3.56,1.79c1.35.56,2.93,1.08,4.71,1.89l-.7.18c.92,1.28,3,2.45,4.13,3.67.71-.13,1.38.51,1.43-.46a7.82,7.82,0,0,0,.92,1.78A7.26,7.26,0,0,0,251.76,99a21.85,21.85,0,0,0,2.88,2,16,16,0,0,1,2.82,2,6,6,0,0,1,1.72,3c-.37-.38-1.21-.58-.93-.28,1,.77,1.9,1.63,2.85,2.45.51-.83.1-.73.13-1.81a3.63,3.63,0,0,1,2.37,1.26c-1.6-.9-1.1,1-1.07,1.86.15-.28.54-.28.73-.51-.07,2.58,1.66-.9,2.47,1.93l-.48.18c.84.63,1.87,1,2.41,2-.61,1-1-.59-1.79-.13.91,1.19,3.45,1.29,3.29,3.08-.6-.39-1.11-1.18-1.74-1.53a3.91,3.91,0,0,0,.59,3l0-.1c.3.82.61,1.62.89,2.45,0-.25,0-.49-.05-.73a3,3,0,0,1,2.81,1.79,14,14,0,0,0,.88,1.41,4.23,4.23,0,0,0,1.5,1.29c-2.68-1.44-1.08.1-2.24.48,0,.74.11,1.78-.32,1.68a1.24,1.24,0,0,1,.71.72,108.32,108.32,0,0,1-10.74,3.32c-1.83.33-3.6.59-5.22.73a3.8,3.8,0,0,1-.95-.2l.68-.23a15.62,15.62,0,0,0-1.69.24L255.6,139a20.75,20.75,0,0,0,2.32-.56,3,3,0,0,0,1.36.18c1.58-.31,3.2-.58,4.83-.82a15.51,15.51,0,0,0,4.19-.55c2.71-.31,5.46-.54,8.23-.69a5.09,5.09,0,0,0,1,1.23,12.41,12.41,0,0,0,2.26,2.73,13,13,0,0,1,1.07,1.13,8.42,8.42,0,0,1,1,1.59c-.39,1.08-1.56-.43-1.56-.43a6.06,6.06,0,0,0,.87,4c-.38-.22-.61.14-1,.65.3,1.1,1.53.5,1.24,2.1a5.59,5.59,0,0,1-1.75-.87,17.84,17.84,0,0,0,1.07,1.87,17.55,17.55,0,0,1,1,1.94c-.63.46-1.13-.7-1.63-1.12.49,1.5,1.14,3.92,2.2,4.32l.23-.79c-.22.22-.87,0-1.06-.27a1.23,1.23,0,0,1,.51-2.1l.37,1c1.07-.65.85-1.67.35-2.75s-1.39-2.21-1.49-3.22l1.79.54-1.73-1.8c.34-.52,1.2-1,1.63-.07.52-1.62-.86-1.15-.24-2.59.1-.17.2-.13.29,0l-.81-1.31c.41.2,1.09-.51,1.06.42a4.22,4.22,0,0,0-.91-3.1c-.5-.75-.9-1.3-.44-2l.16.19c-.46-1-.76-1.35-1-1.49a149.6,149.6,0,0,1,23.2,1.15q2.67-.41,5.36-.7c1.23.16,2.2.79.86.86,5.25,1.13.37-.71,3-.83,3.06.37,3.88,1.31,1.92,1.33a59.59,59.59,0,0,1,17.63,3.53,32.48,32.48,0,0,1,8.36,4.6,18.87,18.87,0,0,1,5.18,5.92,15.87,15.87,0,0,0-1.33-1.13c2,2.75,3.3,4.13,4.55,5.71a9.71,9.71,0,0,1,2.18,6.82l-.39-1.25.17,1.47.09,1.56c0,1.05.15,2.1.15,3.16v3.18C351.86,172.85,351.75,173.91,351.7,175Z"/><path class="cls-1" d="M61,229.78a.58.58,0,0,0,0,.14C61,229.85,61,229.79,61,229.78Z"/><path class="cls-1" d="M36.55,189.9c-.69-.17-1.35-.32-2-.43C35.41,189.67,36.05,189.81,36.55,189.9Z"/><path class="cls-1" d="M223.22,18.05c.09.17.19.32.27.5Z"/><path class="cls-1" d="M336.62,38c-.09-.31-.2-.66-.33-1.07C336.41,37.27,336.51,37.62,336.62,38Z"/><path class="cls-1" d="M236.62,49.93q-.06.32-.12.6Q236.58,50.22,236.62,49.93Z"/><path class="cls-1" d="M63.84,185.29l2.38-.07a3.72,3.72,0,0,1,.38.17,9.78,9.78,0,0,1,2.63-.35C66.8,185,63.63,184.45,63.84,185.29Z"/><path class="cls-1" d="M65.65,284.53c.19.27.36.52.51.7C66,285,65.84,284.78,65.65,284.53Z"/><path class="cls-1" d="M66.59,185.4h0Z"/><polygon class="cls-1" points="299.77 224.37 299.77 224.65 300.91 224.5 299.77 224.37"/><path class="cls-1" d="M111.74,49.18a3.28,3.28,0,0,0-.63.8A2.43,2.43,0,0,0,111.74,49.18Z"/><path class="cls-1" d="M155,15.54a1.35,1.35,0,0,0,.31-.63h-.05Z"/><path class="cls-1" d="M69.23,185c.34,0,.68,0,1,0C72.52,184.9,71,185,69.23,185Z"/><path class="cls-1" d="M17.47,115.34c-.48,1.21-1,2.35-1.53,3.57C17.07,117.11,18,115.75,17.47,115.34Z"/><path class="cls-1" d="M71.52,228.51s0,0,0,0l-.48.62Z"/><path class="cls-1" d="M13.35,123.82c.57-.91,1-1.76,1.45-2.58s.81-1.57,1.14-2.33c-.45.74-1,1.55-1.42,2.38A22.77,22.77,0,0,0,13.35,123.82Z"/><path class="cls-1" d="M225.42,57.56l0-1.36-.14,1.2C225.33,57.39,225.38,57.47,225.42,57.56Z"/><path class="cls-1" d="M225.42,57.56v1.36A3.41,3.41,0,0,0,225.42,57.56Z"/><path class="cls-1" d="M225.41,61.78c0-1,0-1.91,0-2.86A8.33,8.33,0,0,0,225.41,61.78Z"/><path class="cls-1" d="M220.9,24a.54.54,0,0,0,.52.14Z"/><path class="cls-1" d="M220.9,24c-.6-.53-1.21-2.14-2-3.78s-1.93-3.22-3-3.71c1.55,1.66,2.94,4.74,4.56,7.37Z"/><path class="cls-1" d="M176.79,4.32c2.93-.44,5.9-.71,8.87-.88-1.58-.26-3.73-.66.36-1.15-5.75-.11-5.13.19-4.56.46S182.55,3.45,176.79,4.32Z"/><path class="cls-1" d="M150.22,11.39c4.39-1.9-.28-.58-.13-.89C147.39,12,146.76,12.36,150.22,11.39Z"/><path class="cls-1" d="M97.64,100.69l.89-.7C95.16,98.47,98.32,100.33,97.64,100.69Z"/><path class="cls-1" d="M64,95.47c.57-.24,1.15-.48,1.73-.69-1.67-.18-3.34-.28-5-.33C61.87,94.76,63,95.09,64,95.47Z"/><path class="cls-1" d="M39.22,89.47c-1,.44-2.07.86-3.06,1.38l-1.5.75-1.45.82a46.53,46.53,0,0,1,4.41-2.21Z"/><path class="cls-1" d="M50.32,260.49c.4-.38.84-.76,1.29-1.12C51.61,256.8,50.16,256.11,50.32,260.49Z"/><path class="cls-1" d="M164.17,302.77a25.42,25.42,0,0,0-2.69,2.37,14.41,14.41,0,0,0,3.27-2.15,14.91,14.91,0,0,0,2.92-3.55A46.28,46.28,0,0,1,164.17,302.77Z"/></g></g></svg>