<svg xmlns="http://www.w3.org/2000/svg" xmlns:xlink="http://www.w3.org/1999/xlink" viewBox="0 0 1275.12 954.35"><defs><style>.cls-1{fill:#f9d26f;}.cls-2{fill:url(#Dégradé_sans_nom_20);}.cls-3{fill:url(#Dégradé_sans_nom_22);}</style><linearGradient id="Dégradé_sans_nom_20" x1="637.5" y1="503.71" x2="1275.12" y2="503.71" gradientUnits="userSpaceOnUse"><stop offset="0" stop-color="#ebba0d" stop-opacity="0.8"/><stop offset="0.2" stop-color="#ebba0d" stop-opacity="0.62"/><stop offset="0.59" stop-color="#ebba0d" stop-opacity="0.29"/><stop offset="0.86" stop-color="#ebba0d" stop-opacity="0.08"/><stop offset="1" stop-color="#ebba0d" stop-opacity="0"/></linearGradient><linearGradient id="Dégradé_sans_nom_22" y1="477.15" x2="637.61" y2="477.15" gradientUnits="userSpaceOnUse"><stop offset="0" stop-color="#ebba0d"/><stop offset="0.1" stop-color="#ebba0d" stop-opacity="0.98"/><stop offset="0.23" stop-color="#ebba0d" stop-opacity="0.9"/><stop offset="0.38" stop-color="#ebba0d" stop-opacity="0.79"/><stop offset="0.54" stop-color="#ebba0d" stop-opacity="0.63"/><stop offset="0.71" stop-color="#ebba0d" stop-opacity="0.42"/><stop offset="0.89" stop-color="#ebba0d" stop-opacity="0.17"/><stop offset="1" stop-color="#ebba0d" stop-opacity="0"/></linearGradient></defs><title>Fichier 11home</title><g id="Calque_2" data-name="Calque 2"><g id="Calque_1-2" data-name="Calque 1"><path class="cls-1" d="M306.5,53.07,242.5,0H20.5A20,20,0,0,0,.5,20V53.07h0V934.35a20,20,0,0,0,20,20H1255.12a20,20,0,0,0,20-20V73.07a20,20,0,0,0-20-20Z"/><path class="cls-2" d="M637.5,53.07h617.61a20,20,0,0,1,20,20V934.35a20,20,0,0,1-20,20H637.5a0,0,0,0,1,0,0V53.07A0,0,0,0,1,637.5,53.07Z"/><path class="cls-3" d="M20,0,242.5,0l64,53H637.61V954.31H20a20,20,0,0,1-20-20V20A20,20,0,0,1,20,0Z"/></g></g></svg>