<svg xmlns="http://www.w3.org/2000/svg" viewBox="0 0 994.54 325.48"><defs><style>.cls-1{fill:#fff;}.cls-2{fill:#e5656d;}</style></defs><title>Fichier 1home</title><g id="Calque_2" data-name="Calque 2"><g id="Calque_1-2" data-name="Calque 1"><path class="cls-1" d="M69.08,179.78c-10.3,9.7-20.7,19.2-30.7,29-3.6,3.5-3.4,8.1-.8,12.6,6.4,11,15.9,18.4,27.2,23.5,6.8,3.1,13.1.9,18.4-4.2,20.4-19.8,11.6-44.9-2.2-59.4C77.58,177.68,73.68,177.58,69.08,179.78Z"/><path class="cls-1" d="M70.48,74.28c-8.3-2.1-17.3,1.9-23,9.8-2.7,3.6-4.1,7.3-1.4,11.4s6.7,7,11.9,6.1c3.8-.7,7.4-2.4,11.1-3.6-.1-.2-.1-.4-.2-.6,1.9-1.1,4-1.9,5.6-3.2,3.8-3.1,6.7-6.8,5.5-12.2C79,76.88,74.78,75.38,70.48,74.28Z"/><path class="cls-1" d="M52.48,109.88c-.7-.4-1.2-1-1.9-1.5-8-5.7-16.8-5.3-22.5.9-5.3,5.9-4.8,13.9,1.5,21.4A93.84,93.84,0,0,0,59.68,154a43.89,43.89,0,0,0,12.2,4.1c5.6,1,10.1-1.7,12.8-6.5,2.6-4.6-.2-8.3-3.1-11.7-3.4-4-6.8-8.1-10.3-12.2,1.1-1.7,2-3.1,3.9-6.2C63.48,123.78,59.48,114.38,52.48,109.88Z"/><path class="cls-1" d="M34.68,200.18c4.2-3.5,7.5-8.1,12-13.2-16.6-4.1-27.4-14.3-38.9-23.9-9.6,7.8-10.4,17.8-1.9,25.6,4.9,4.5,10.5,8.2,16.1,11.9C26.08,203.38,31.08,203.28,34.68,200.18Z"/><path class="cls-1" d="M35.08,176.28c11.5,10.7,29.5,1.1,36.5-11.1-21-5.1-35.8-19.6-51-33.2-10.4,7.1-12.3,19.9-3.8,28.8C22.18,166.58,29.18,170.88,35.08,176.28Z"/><path class="cls-2" d="M114.08,55.38c2.9,3.9,2.6,6.3-.4,9.6-4.6,5.3-8.9,10.8-14.2,17.3,12.3-1.9,16.8-10.9,23.2-17.8,11.5,5.9,22.7,7.1,35.1-.3-16.2-13.1-31.5-25.6-47.3-38.5C106.58,37.08,107.78,46.78,114.08,55.38Z"/><path class="cls-1" d="M205.18,294.38c-6.4-9.9-12.6-19.4-18.8-29-12.5-19.1-25.1-38.2-37.3-57.5-1.3-2-1.2-5.6-.5-8.1,5.1-17.6,7.5-35.4,4.3-53.7-4.7-26.7-20.2-45.6-42.6-59.6a7.16,7.16,0,0,0-5.4-.2c-13.6,5.7-27.1,11.6-40.7,17.4-3.8,1.6-3.9,3.7-1.9,6.8,4.9,7.6,12,11.6,20.8,11.2,5.6-.2,11.2-1.8,16.6-3.6,3.5-1.2,5-.7,6.3,2.5,1.9,4.5,4.4,8.8,6.1,13.4a7,7,0,0,1-.8,5.8,116.94,116.94,0,0,1-9.5,10.5c-15.6,15.6-12.9,38,1.1,52.5,5.8,6,13,10.6,20.7,16.8-2.1,3-4.6,7.3-7.7,11.1-6.9,8.6-14.3,16.7-20.9,25.5-8,10.6-8.2,21.8-1.6,33.7,6.4,11.5,11.6,23.6,17.5,35.6"/><path class="cls-2" d="M170.28,44.48c-2.3,3.8-4.4,7.1-6.5,10.3-.4-.1-.9-.3-1.3-.4a49.28,49.28,0,0,1,1.9-5.4c2.5-5.2,1.5-8.8-3.4-12.5-10.8-8.1-21-17.1-31.7-25.6-12.7-10.1-9.2-11.2-20.7,2.6-2.4,3-2.1,5.2.8,7.5,15.7,12.8,31.3,25.8,47.2,38.3,10.5,8.2,10.7,7.9,19-3a1.76,1.76,0,0,1,.4-.5c2.4-2.7,2.5-5.2-.6-7.5C173.88,47.18,172.18,45.88,170.28,44.48Z"/><path class="cls-2" d="M128.08,5.88c12.6,10.2,25.2,20.4,38.6,31.3,1.4-11-2-19.1-6.6-27.5,11.3,5.2,15.3,14.4,12.5,27.2-.4,1.8.2,3.9.3,5.8.6,0,1.1-.1,1.7-.1,5.6-12.8.1-28.9-12.7-37.5C151.58-1.92,135.28-1.72,128.08,5.88Z"/><path class="cls-1" d="M701.53,134.59c6.9,4.9,10.6,13,12.5,21.9,2.2,10-7.2,22.1-17.3,22.5-5.5.2-14.3-8.3-15.3-15.3-.8-5.5-.9-11.1-1.4-16.7-.3-2.9.1-5.8-4.5-6.3-2-.2-3.5-3.7-5.2-5.8,2.5-2,5-3.9,7.6-5.9a12.13,12.13,0,0,1,1.4,1,72,72,0,0,0-.1-9.3c-1.1-10.3,3-19.1,7.4-27.9,2.2-4.4,10-8,13.7-5.2,4.4,3.3,10.9,3.3,13.4,10.1s1.6,12.3-1.6,18C708.63,121.89,705.13,128.09,701.53,134.59Zm-12.4-9.2c7.4-1.6,9.8-7.6,12.9-12.8,2.3-4,3.4-8.3.8-12.7-.9-1.6-2.2-4.4-3-4.3-2,.3-4.6,1.5-5.6,3.1C689.23,106.79,687,115.59,689.13,125.39Zm-.4,15.4c.7,5.9,1.2,11.3,2.1,16.6a20.69,20.69,0,0,0,2.7,7.8c2.6,4,7.4,3.3,9.3-1.2C706.33,155.39,699.23,142.69,688.73,140.79Z"/><path class="cls-1" d="M739.73,134.39c7.5,5,11,13.1,13,21.8,2.8,12-7.4,21.6-17.5,22.8-5.5.6-13.8-7.8-14.9-14.8-1-6.4-1.2-12.8-2.1-19.2-.2-1.3-1.2-3.2-2.3-3.5-3.6-1.1-7.3-2.9-6.5-6.6.5-2.2,4.5-3.7,6.9-5.6.4.3.8.6,1.3,1,.2-2.2.7-4.6.4-6.7-1.7-10.6,2.2-19.9,6.4-29.1a12.41,12.41,0,0,1,13.4-7.1c.9.1,1.7,1.1,2.5,1.7s1.6,1.9,2.2,1.8c4.9-.8,7,2.3,9,6a16.32,16.32,0,0,1,.9,15.3,123.73,123.73,0,0,1-5.8,11.5C744.73,127.09,742.23,130.59,739.73,134.39Zm-12-8.8c6.6-2,9.6-6.8,12.4-11.7,2.6-4.5,4.6-9.2,1.4-14.3-.9-1.4-1.9-4.1-2.6-4-1.9.2-4.3,1.1-5.3,2.6C727.83,106.29,726.13,115.49,727.73,125.59Zm-.5,15.2c1.2,7.7,2.1,15,3.7,22.2.7,3,3.4,5.9,6.6,4.4,2.2-1,4.6-4.4,4.5-6.7a32,32,0,0,0-3.3-12.8C736.93,144.09,733.43,141.29,727.23,140.79Z"/><path class="cls-1" d="M961,157.39c4,6.2,10.1,8.7,17.6,7.9,3.8-.4,7.5-1.4,11.2-2.1,3.5-.7,5.8,1.5,4.2,4.5-1.4,2.6-3.6,5.6-6.2,6.8-18.4,8.4-36.6-5.2-40.7-17.2a19.41,19.41,0,0,0-4.7-6.7c-3.3-3.3-3.1-4.7.7-7.6,1.2-.9,1.5-3.1,1.9-4.8,2.8-14,17.6-22.4,30.5-17.1,8,3.3,11.6,10.3,13.4,18.1.9,3.6-3.3,9.6-7,11C975.13,152.59,968.33,154.89,961,157.39Zm1.8-11.7c3.9-1.6,7.9-2.9,11.5-4.9,1-.5,1.6-3.4,1.1-4.7-1.7-4.4-5.8-5.3-9.8-5s-6.5,2.8-7.5,6.8C956.43,144.49,956.83,145.09,962.83,145.69Z"/><path class="cls-1" d="M777.33,157.29c3.2,5.7,10.4,9.2,17.6,8,3.6-.6,7.1-1.5,10.7-2,1.2-.2,3.1,0,3.8.7.7.9,1.1,3.1.5,4-1.6,2.4-3.5,5.2-5.9,6.4-13.6,6.9-33.4-.7-39.9-14.6-1.7-3.6-4.4-6.7-6.6-10.1-1.5-2.4-3.1-4.7,1-6.5,1.3-.6,2-3.1,2.4-4.9,3-14.2,17.4-22.4,30.4-17.2,8.1,3.3,11.5,10.3,13.6,18,.9,3.4-3.3,9.8-6.9,11.1C791.13,152.69,784.13,154.89,777.33,157.29Zm1.5-11.4a114.43,114.43,0,0,0,11.8-5.3c.9-.5,1.3-3.1.8-4.4-1.7-4.4-5.7-5.3-9.8-5.1s-6.6,2.8-7.6,6.7C772.43,144.49,772.73,145,778.83,145.89Z"/><path class="cls-1" d="M571.83,157.09a16.78,16.78,0,0,0,17.2,8.2c3.8-.6,7.5-1.5,11.2-2.1,1.2-.2,3.1-.1,3.8.6.8.9,1.2,3.1.6,3.9-1.6,2.4-3.4,5.2-5.8,6.5-14.1,7.4-35.1-1.2-40.8-16.1-1.2-3-3.6-5.5-5.6-8.2s-3.6-4.9.9-6.8c1-.4,1.8-2.2,2-3.4,1.9-11.2,9.4-18.5,20.4-20.1,12.6-1.8,21.7,8.6,23.7,19.3.8,4.3-3.3,10.2-7.5,11.7C585.13,152.89,578.43,155,571.83,157.09Zm15.5-18.4c-.3-.7-.6-1.3-.9-1.9-2.3-4.5-7.5-7-11.9-5.5-4.1,1.4-7.3,6.5-6.3,11.1.2,1.1,2.1,2.7,3.1,2.6C577.13,144.79,582.93,144,587.33,138.69Z"/><path class="cls-1" d="M830.63,131c10.9-13.1,32.5-12.3,39.9,1.3,1.8,3.2,2.2,7.2,2.9,11,1,5.7,1.9,11.5,2.4,17.2.2,2.6.4,6-3.6,6.6a6.67,6.67,0,0,1-7.9-5.8c-1.1-6.3-1.8-12.8-3.2-19.1-1.3-6.1-4-8.1-9.5-8.3-6.9-.3-11.9,2-13.1,7.6a76.23,76.23,0,0,0-1.4,18.5c.1,4.6-1,8.9-3.7,9.1-4.2.3-7.7-3.4-8.4-7.7-1.3-7.7-3.2-15.3-4.5-22.9-.4-2.2-.7-5.4.4-6.5C823.43,129.59,826.93,127.09,830.63,131Z"/><path class="cls-1" d="M896,154.39c.2,13.5,12.5,20.1,26.1,14,1.2-.5,2.2-1.5,3.5-1.9,1.5-.6,3.9-1.7,4.6-1.1a8.76,8.76,0,0,1,2.7,5.4c.3,5.6-3.6,10-10.7,11.9-11.7,3.1-22.8,1.3-31.7-7-3.5-3.3-5.8-9.1-6.6-14-2.6-15.3,1.5-28.4,15.9-35.8,3.8-1.9,8.9-2.3,13.2-2,4.8.3,7,5.7,4.7,9.8a4,4,0,0,1-3.2,1.8C904.43,134.39,894.53,145.39,896,154.39Z"/><path class="cls-1" d="M624.93,131.09c9.4-12.7,24.2-10.7,34.1-5.3,3.4,1.8,6.5,6.2,7.5,10,2.1,8.1,2.8,16.6,3.8,25,.3,2.5.4,6-3.3,6.1-3.4.1-7-.3-7.7-5.2-1-6.7-2.5-13.3-3.6-20-.9-5.1-4-7.5-8.9-7.9-6.5-.5-11.4,1.9-13.3,6.6a34.1,34.1,0,0,0-1.7,20c.8,4-1,8.3-3.7,8.6-3.7.4-8-3.6-8.6-7.2-1.3-7.8-2.7-15.7-4.5-23.4-.6-2.6-2.5-5,.6-6.9C618.53,129.69,621.43,127,624.93,131.09Z"/><path class="cls-1" d="M278.43,158.79c.8,3.7,1.3,6.6,1.9,9.4a6.57,6.57,0,0,1-5,7.8c-3.4.6-7.6-2.3-8.2-5.7-2.3-14.9-4.5-29.8-6.9-44.6-.7-4.3,2.1-5.9,5.1-7.5,2.2-1.2,4.4-2.2,6.5-3.5,11.4-7.2,27.4-8.3,37.9,1.6,6.3,6,7.6,14.4,2.6,21.7-2.6,3.8-5.7,7.3-8.9,11.4,2,.9,4.2,1.5,6,2.7,8.2,5.2,16.4,10.5,24.4,15.9a7,7,0,0,1,2.6,4.7c.1,1.7-.7,4.1-1.9,4.9-1,.7-3.7.1-4.9-.8-11.2-9-22.8-17.4-37.6-19.1C287.83,157.29,283.43,158.39,278.43,158.79Zm-2.3-12.3c10.9-.4,17.5-2.9,22.1-8.4,3.2-3.8,4.7-8.3,3.3-12.9-1.4-4.8-6.3-4.3-10-4.7-7-.9-14.6,3.8-15.3,9.9C275.63,135.59,276.13,141.09,276.13,146.49Z"/><path class="cls-1" d="M359.83,159.49c2.8,5.6,10.2,9.5,16.9,8.3,3.8-.7,7.5-1.7,11.2-2.2a5.39,5.39,0,0,1,4.3,1.2,4.06,4.06,0,0,1,.1,4c-1.9,2.4-4,5.2-6.7,6.3-17.5,7.4-36-4.5-40.5-18.6-.7-2.1-2.6-4-4.3-5.7-3.3-3.2-3.1-4.8.8-7.3,1-.6,1.4-2.5,1.6-3.8,2.3-14.3,17-23.4,30.2-18.5,8.3,3.2,12.1,10.1,14,18.2.9,3.7-3.4,10.2-7.2,11.5C373.53,155.29,366.73,157.29,359.83,159.49Zm-4-12.6c6.2.7,11.2.3,16.1-2.6,3.9-2.4,3.9-5.2,1-7.4-2.6-1.9-6.5-3.6-9.4-3.1-2.6.5-5,3.8-6.7,6.4C355.73,141.79,356.13,144.29,355.83,146.89Z"/><path class="cls-1" d="M503.43,139.29c-5.9-.1-10.8-2.5-11.1-5.4s2.9-4.7,12.8-7c0-6.1.4-12.4-.1-18.6-.4-4.9,2.5-6.3,6.1-6.8,4.1-.5,4.7,2.8,5,5.9.4,5.4.7,10.9,1.1,17,2.5-.3,4.9-.7,7.3-.8,2.1-.1,5.3-1.7,5.5,2,.1,2.2-1.3,4.8-2.8,6.5a9.93,9.93,0,0,1-5.4,2.4c-4.7.7-6.6,3.2-6,7.7.7,5.3.8,11,2.8,15.9,2.6,6.3,8.3,6.7,13.3,2,2.1-2,3.8-4.4,6.1-6.2,1.4-1.1,3.4-1.3,5.1-1.9.4,1.7,1.5,3.6,1.2,5.2-2.1,9.5-10.1,16.7-18.3,17-8.6.3-17.1-5.8-19.7-15.3C504.43,152.59,504.33,146,503.43,139.29Z"/><path class="cls-1" d="M413.73,183.19a10.55,10.55,0,0,1-2.5-.2c-3-.7-6.8-.6-7-4.8-.1-3.6,5-7.3,8.8-6.6s6.2-.9,7.5-4.2.8-6-2.2-8.4c-4.9-4.1-10.7-7.8-14-13-5-7.9-4.2-13.4.5-18.8,5-5.7,14.4-7.9,21-4.8,3.4,1.6,4.9,4.5,3.3,8.2-1.4,3.4-3.9,4-7.3,2.5a12.31,12.31,0,0,0-5.7-.7c-3.1.4-4.2,2.2-2.9,5.3,1.9,4.3,4.4,7.9,8.8,10.3,13.2,7.4,13.8,23.5,1.3,32-2.7,1.9-6.2,2.6-9.4,3.8C414,183.79,413.93,183.49,413.73,183.19Z"/><path class="cls-1" d="M473,183.19a11,11,0,0,1-3-.2c-2.8-.8-6.4-.9-6.1-5.1.2-3.3,5-7,8.2-6.4,4.1.7,6.8-.6,8.3-4.4s0-6.1-3-8.5c-4.7-3.8-9.7-7.6-13.3-12.3a14.7,14.7,0,0,1,.7-19.3c4.9-5.4,14.9-7.5,21.2-4.4,3.7,1.8,4.1,5.3,2.8,8.5s-4,3.2-7.1,2a11.08,11.08,0,0,0-5.7-.6c-3.3.5-4.5,2.2-2.8,5.6,2.1,4.3,4.5,7.7,9,10.1,9.1,4.9,11.6,11.1,9.1,20.2C488.53,177.89,482.23,183.19,473,183.19Z"/><path class="cls-1" d="M455.63,172.29c-.9,1.3-2.4,5.3-4,5.4-2.4.1-5.5-2.1-7.1-4.2-1.3-1.7-.9-4.8-1.2-7.2-1-8.2-2.3-16.4-2.6-24.6-.1-2.5,2.1-6.3,4.3-7.5,3.9-2,5.9.9,6.4,4.9C452.73,149.49,454.13,160,455.63,172.29Z"/><path class="cls-1" d="M440.23,102.29c3.8,2.9,8.3,4.2,6.4,8.8-.9,2.1-4,5-5.6,4.7-2.6-.4-7-3.9-6.7-4.9C435.23,107.89,438,105.29,440.23,102.29Z"/><path class="cls-2" d="M283,224.77a.86.86,0,0,1-.07.36.86.86,0,0,0-.08.36.8.8,0,0,0,.06.3.72.72,0,0,1,.06.29,2.31,2.31,0,0,1,0,.38c0,.18-.07.36-.11.55l-.15.54a1.61,1.61,0,0,1-.13.34h-.44a2.81,2.81,0,0,1-.21.64,3.78,3.78,0,0,1-1,.35,4.77,4.77,0,0,1-.87.08h-.95a7.3,7.3,0,0,0-.87.05,2.32,2.32,0,0,0-.82.31.67.67,0,0,1-.28.06,2.76,2.76,0,0,1-.57-.06l-.55-.13-.55-.14a2.6,2.6,0,0,0-.56-.06,4.45,4.45,0,0,1-.81-.08,3.86,3.86,0,0,0-.82-.08,2.94,2.94,0,0,0-.59.05l-.58.12-.57.12a3.92,3.92,0,0,1-.59.05,2.33,2.33,0,0,1-.53-.06,2.33,2.33,0,0,0-.53-.06,6,6,0,0,0-1,.08,5.2,5.2,0,0,1-1,.09,1.76,1.76,0,0,1-1.05-.31,1.18,1.18,0,0,1-.41-1,1,1,0,0,1,.12-.48,2.83,2.83,0,0,1,.72-.91,2.54,2.54,0,0,1,.7-.4,4.72,4.72,0,0,1,.64-.17,1.24,1.24,0,0,0,.53-.19,1,1,0,0,0,.36-.51,3.81,3.81,0,0,0,.12-1.12,10.24,10.24,0,0,0-.14-1.75,10.4,10.4,0,0,1-.14-1.77,4.12,4.12,0,0,1,.09-.86,4.12,4.12,0,0,0,.09-.86,14.52,14.52,0,0,0-.07-1.48c0-.49-.07-1-.07-1.47a3.76,3.76,0,0,0-.13-1,3.77,3.77,0,0,1-.14-1,2.72,2.72,0,0,1,.06-.58,2.69,2.69,0,0,0,.06-.57,8.44,8.44,0,0,0,0-.87c0-.29-.06-.58-.08-.87a2.65,2.65,0,0,0-.07-.48,1,1,0,0,0-.17-.4.87.87,0,0,0-.32-.28,1,1,0,0,0-.48-.11,1.6,1.6,0,0,0-.53.09,1.71,1.71,0,0,1-.55.09,1.66,1.66,0,0,1-.32,0l-.3-.07a1.36,1.36,0,0,1-.13-.24c0-.09-.07-.18-.11-.27a.86.86,0,0,0-.15-.22.43.43,0,0,0-.26-.13,3,3,0,0,0,.29-.59,5.37,5.37,0,0,1,.31-.69,2.19,2.19,0,0,1,.41-.57.81.81,0,0,1,.59-.24,1.07,1.07,0,0,1,.53.13,1.14,1.14,0,0,0,.54.14,1.65,1.65,0,0,0,.69-.15,1.71,1.71,0,0,1,.71-.15.8.8,0,0,1,.54.21,1.92,1.92,0,0,1,.5-.08.93.93,0,0,1,.29.05,1,1,0,0,0,.3,0,2.93,2.93,0,0,0,.88-.13,3.22,3.22,0,0,1,.88-.12,2.26,2.26,0,0,1,.69.1c.22.07.44.16.65.25l.63.29a3,3,0,0,0,.66.23l0,.13v.25a2.14,2.14,0,0,1-.11.56,4,4,0,0,0-.13.55.61.61,0,0,1-.27.46.92.92,0,0,1-.46.1h-.51a6.92,6.92,0,0,0-1.11.09,6.61,6.61,0,0,0-1.07.24,1.4,1.4,0,0,0-.15.64,2.48,2.48,0,0,0,.06.54,5.07,5.07,0,0,1,.09.54l-.3-.08a.65.65,0,0,0-.29-.06.29.29,0,0,0-.22.14.5.5,0,0,0-.1.26.25.25,0,0,0,.08.18.57.57,0,0,0,.18.12.86.86,0,0,0,.23.06H272l0,.3a5,5,0,0,1-.13,1.1,4.4,4.4,0,0,0-.13,1.09,1.24,1.24,0,0,0,0,.33,1.86,1.86,0,0,1,0,.33q0,.19-.12.24a.6.6,0,0,1-.24.05h-.24a.13.13,0,0,0-.11.14.15.15,0,0,0,0,.07.48.48,0,0,0-.06.21.16.16,0,0,0,.11.17l.22,0a.85.85,0,0,1,.23,0,.11.11,0,0,1,.11.12,1,1,0,0,1-.05.31,1,1,0,0,0,0,.3,1.91,1.91,0,0,0,.16.78,1.92,1.92,0,0,1,.17.78,3,3,0,0,1-.1.72,2.44,2.44,0,0,0-.1.71,1.41,1.41,0,0,0,.07.45,3.66,3.66,0,0,0,.15.43c.06.15.1.3.15.44a1.37,1.37,0,0,1,.07.45,1.83,1.83,0,0,1-.11.61,1.87,1.87,0,0,0-.1.62,1.31,1.31,0,0,0,0,.23c0,.23.07.5.11.82a4.5,4.5,0,0,0,.19.9,1.8,1.8,0,0,0,.41.73,1,1,0,0,0,.76.3,3.09,3.09,0,0,0,.91-.14,2.74,2.74,0,0,1,.9-.15,2.78,2.78,0,0,1,.57.07l.54.16.55.16a2.79,2.79,0,0,0,.58.07,4,4,0,0,0,.9-.11c.3-.07.59-.13.9-.18a1.75,1.75,0,0,0,.94-.43,1.28,1.28,0,0,0,.32-1,5.17,5.17,0,0,0-.16-1.31,5.81,5.81,0,0,1-.16-1.32,2.66,2.66,0,0,1,.12-.79,2.21,2.21,0,0,1,.38-.69,2.27,2.27,0,0,1,.72-.12,1,1,0,0,1,.94.43,1.89,1.89,0,0,1,.27,1,.46.46,0,0,1-.11.35.27.27,0,0,0-.1.19s0,.05.06.08l.13.13a.86.86,0,0,1,.14.18.46.46,0,0,1,.06.23.16.16,0,0,1-.09.15c0,.11,0,.25,0,.41s0,.32,0,.48,0,.31,0,.45a.8.8,0,0,0,.07.32Z"/><path class="cls-2" d="M299.07,225.81a1.77,1.77,0,0,1-.13.69,2.23,2.23,0,0,1-.33.51,3.25,3.25,0,0,1-.47.43c-.18.13-.35.27-.54.42a2.26,2.26,0,0,1-.37.27,2.41,2.41,0,0,1-.33.15l-.33.12-.39.16-.51.28a4.36,4.36,0,0,1-.41.24,2.52,2.52,0,0,1-.44.17,3.61,3.61,0,0,1-.6.11c-.4,0-.81.11-1.21.18a7.28,7.28,0,0,1-1.22.11.79.79,0,0,1-.25-.05l-.29-.11-.37-.1a1.73,1.73,0,0,0-.49-.06,1.08,1.08,0,0,1-.48-.09,1.48,1.48,0,0,1-.32-.21l-.3-.26a1.25,1.25,0,0,0-.39-.25,5.83,5.83,0,0,1-1.53-1,6,6,0,0,1-1.09-1.28,7.76,7.76,0,0,1-.75-1.53A15.31,15.31,0,0,1,285,223a5,5,0,0,1-.17-1.26,3.15,3.15,0,0,1,.39-1.54,2.4,2.4,0,0,1-.15-.81,3.45,3.45,0,0,1,.17-.85,7.57,7.57,0,0,1,.43-1.14,6.71,6.71,0,0,1,.57-1,1.41,1.41,0,0,1,.58-.56,1.73,1.73,0,0,0,.29-.13q.09-.06.09-.3a.36.36,0,0,1,.14-.3,1.11,1.11,0,0,1,.34-.19l.41-.14.34-.12c.37-.18.73-.33,1.06-.46a9.74,9.74,0,0,1,1-.31,7.2,7.2,0,0,1,1.05-.19,10.44,10.44,0,0,1,1.16-.06,2.3,2.3,0,0,1,.64.09,4,4,0,0,1,.61.23,6.55,6.55,0,0,1,.58.32l.56.34h0a1.45,1.45,0,0,1,.42.12,1.33,1.33,0,0,0,.43.13,2.66,2.66,0,0,0,.55.49l.67.49a3.18,3.18,0,0,1,.55.55,1,1,0,0,1,.24.67s0,.08,0,.12,0,.09,0,.14l.06-.08a.48.48,0,0,1,.11.15c0,.07.07.15.1.24a2.33,2.33,0,0,1,.07.25c0,.09,0,.15.05.21a1,1,0,0,0,.32.31,1,1,0,0,1,.33.33.53.53,0,0,0-.16.39,1.34,1.34,0,0,0,.11.51,1.25,1.25,0,0,1,.11.5,5.35,5.35,0,0,1,0,.58,5.49,5.49,0,0,0,0,.58.4.4,0,0,1-.18.35,2.22,2.22,0,0,1-.37.21l-.37.18a.29.29,0,0,0-.17.26c0,.08-.05.11-.14.11h-.23a5.3,5.3,0,0,1-1.32-.16,5.35,5.35,0,0,0-1.31-.17,9.42,9.42,0,0,0-1.4.1,10.73,10.73,0,0,1-1.4.1c-.35,0-.7,0-1,0l-1.05,0a3.42,3.42,0,0,0-.51.05c-.25,0-.52.08-.79.13s-.54.12-.79.2a1.86,1.86,0,0,0-.53.22,1.22,1.22,0,0,0,0,.21,3,3,0,0,0,.41,1.46,5.44,5.44,0,0,0,1.09,1.37,6.32,6.32,0,0,0,1.52,1,3.9,3.9,0,0,0,1.7.41c.34,0,.66,0,1,0a3.26,3.26,0,0,1,1,.22,3.69,3.69,0,0,0,.74-.46q.35-.25.66-.54c.21-.19.41-.38.61-.59l.62-.6a.64.64,0,0,1,.3-.11,3.44,3.44,0,0,1,.5-.09l.52-.06a2.61,2.61,0,0,1,.34,0,2,2,0,0,1,.65.1A2.71,2.71,0,0,1,299.07,225.81Zm-2.26-6.11a1.32,1.32,0,0,0-.08-.44,3.17,3.17,0,0,1-.12-.44,4.62,4.62,0,0,1-.07-.82,2.82,2.82,0,0,0-.12-.8h0a.29.29,0,0,1-.06.17.18.18,0,0,1-.16.08.7.7,0,0,1-.35-.09,1.06,1.06,0,0,1-.29-.22c-.38-.17-.72-.33-1-.49a9,9,0,0,0-.92-.39,5.61,5.61,0,0,0-1-.28,7,7,0,0,0-1.19-.09h-.12l-.09.06.07.16-.12,0c-.27.05-.49.1-.67.15a1.64,1.64,0,0,0-.47.18,2.73,2.73,0,0,0-.42.3l-.52.44a1,1,0,0,1-.32.2l-.35.13-.33.11a.61.61,0,0,0-.26.19,3.14,3.14,0,0,1-.31.73,1.46,1.46,0,0,0-.2.75.55.55,0,0,0,.18.4,1.76,1.76,0,0,0,.49.29,4.8,4.8,0,0,0,.64.21,6.19,6.19,0,0,0,.7.14l.64.07.46,0a6.1,6.1,0,0,0,1.13-.11,5.35,5.35,0,0,1,1.13-.12,11.81,11.81,0,0,1,1.18.06c.39,0,.78.05,1.17.05l.45,0a3.09,3.09,0,0,0,.6-.08,1.65,1.65,0,0,0,.51-.2A.38.38,0,0,0,296.81,219.7Z"/><path class="cls-2" d="M324.24,224.35a1.21,1.21,0,0,1-.06.38c-.05.13-.1.25-.16.38l-.18.37a1.58,1.58,0,0,0-.11.37,1.65,1.65,0,0,1-.31.73,3.8,3.8,0,0,1-.53.61,6.53,6.53,0,0,1-.63.55,5.26,5.26,0,0,0-.59.54.67.67,0,0,1-.48.22l-.29,0a.92.92,0,0,0-.29,0,.62.62,0,0,0-.33.08l-.25.16a1.6,1.6,0,0,1-.27.16,1,1,0,0,1-.43.07.72.72,0,0,0-.37.11.7.7,0,0,1-.36.1,1.55,1.55,0,0,1-.6-.15,1.78,1.78,0,0,0-.74-.15l-.52,0a4.36,4.36,0,0,1-.51,0,1.62,1.62,0,0,1-.44-.07l-.42-.15a3.52,3.52,0,0,0-.42-.15,1.25,1.25,0,0,0-.43-.07,1.21,1.21,0,0,0-.77.23,3.41,3.41,0,0,0-.57.5,5.83,5.83,0,0,1-.49.5.85.85,0,0,1-.57.23.51.51,0,0,1-.38-.1.35.35,0,0,1-.12-.23,2.54,2.54,0,0,1,0-.29.44.44,0,0,0-.14-.28,1.35,1.35,0,0,1-.3-.45,1.54,1.54,0,0,1-.07-.53,7.32,7.32,0,0,1,.13-1.41,8.21,8.21,0,0,0,.12-1.41,2.14,2.14,0,0,0-.06-.5,2.41,2.41,0,0,0-.14-.43c-.06-.13-.1-.24-.14-.33a.58.58,0,0,1-.06-.2.61.61,0,0,1,.07-.28,1.34,1.34,0,0,1,.18-.28.7.7,0,0,1,.21-.21.3.3,0,0,1,.18-.09.5.5,0,0,1,.27.08l.22.16.23.16a.58.58,0,0,0,.28.07h.09a3.35,3.35,0,0,1,.33.75c.08.27.16.53.25.78a4.82,4.82,0,0,0,.31.74,2,2,0,0,0,.54.63l.21.16.25.18a1.65,1.65,0,0,0,.25.15.6.6,0,0,0,.24.06,1.66,1.66,0,0,0,.32,0,1.76,1.76,0,0,1,.33,0c.15,0,.22,0,.22.15a.49.49,0,0,1,0,.12h.29a4.92,4.92,0,0,0,1.14-.13,5,5,0,0,1,1.16-.14,2.64,2.64,0,0,1,.55.06,1.2,1.2,0,0,1,.51.21,1.54,1.54,0,0,0,.48-.34l.39-.42a3,3,0,0,1,.43-.36,1.29,1.29,0,0,1,.62-.17.32.32,0,0,0,.08-.21,1.93,1.93,0,0,0,0-.24.76.76,0,0,1,0-.21.37.37,0,0,1,.11-.2,1,1,0,0,0,.23-.28.63.63,0,0,0,.08-.35,1.37,1.37,0,0,0-.22-.76,3,3,0,0,0-.58-.65,4.72,4.72,0,0,0-.81-.53c-.31-.15-.62-.28-.94-.4a5.58,5.58,0,0,0-.91-.24,3.88,3.88,0,0,0-.77-.09,4.53,4.53,0,0,0-.74.07,3,3,0,0,0-.72.23.49.49,0,0,0-.15-.43,1,1,0,0,0-.36-.15,4.14,4.14,0,0,1-.43-.13.66.66,0,0,1-.34-.37,1.45,1.45,0,0,1-.64.48,2.07,2.07,0,0,1-.77.15,1.8,1.8,0,0,1-.73-.15,2.12,2.12,0,0,1-.59-.4,2,2,0,0,1-.42-.59,1.73,1.73,0,0,1-.18-.71,1.06,1.06,0,0,0-.1-.45c-.06-.13-.13-.26-.2-.38a2.53,2.53,0,0,1-.18-.37,1.13,1.13,0,0,1-.09-.47,7,7,0,0,1,.07-1.06,2.36,2.36,0,0,1,.17-.59.72.72,0,0,1,.24-.29l.26-.16a1,1,0,0,0,.26-.24,1.22,1.22,0,0,0,.19-.48.52.52,0,0,1,.14-.3.62.62,0,0,1,.31-.1.51.51,0,0,0,.26-.09.29.29,0,0,0,.08-.14l.06-.16a.43.43,0,0,1,.15-.16,1.72,1.72,0,0,1,.62-.26,4.48,4.48,0,0,1,.64-.05h.77q.63,0,1.23-.06c.41,0,.82-.06,1.24-.06a4,4,0,0,1,.88.1,6.5,6.5,0,0,1,.7.22l.52.22a1,1,0,0,0,.35.1,1.34,1.34,0,0,0,.49-.1,1.41,1.41,0,0,1,.49-.12,1.15,1.15,0,0,0,.28.19.65.65,0,0,0,.32.09.22.22,0,0,0,.18-.08.37.37,0,0,0,.08-.2,1.26,1.26,0,0,1,.41.22,1.93,1.93,0,0,1,.35.35,1.48,1.48,0,0,1,.25.44,1.19,1.19,0,0,1,.09.44,8.29,8.29,0,0,1-.08,1.11,6.71,6.71,0,0,0-.09,1.1,3.64,3.64,0,0,0,.15,1.07,3,3,0,0,1-.46.3,1.15,1.15,0,0,0-.41.35h0l-.27-.24c-.1-.09-.21-.19-.33-.28a2.26,2.26,0,0,0-.34-.23.66.66,0,0,0-.3-.1h0l-.13-.1a.25.25,0,0,1-.05-.15.49.49,0,0,1,.09-.28.44.44,0,0,0,.09-.27.7.7,0,0,0-.13-.21l-.31-.34c-.12-.11-.23-.22-.34-.31a.63.63,0,0,0-.24-.16,1.52,1.52,0,0,1-.32-.11l-.33-.15-.31-.13a.65.65,0,0,0-.23-.06,1.74,1.74,0,0,0-.39,0,1.85,1.85,0,0,1-.41.07h0l-.67-.08a4.25,4.25,0,0,1-1-.24,2.81,2.81,0,0,0-1-.18.9.9,0,0,0-.66.21,2.12,2.12,0,0,0-.35.48c-.09.17-.18.33-.27.47a.49.49,0,0,1-.45.21h-.13c.1.32.19.59.28.81a2.8,2.8,0,0,0,.3.6,2.34,2.34,0,0,0,.46.49,5.63,5.63,0,0,0,.69.51l.13.1.17.16a1.77,1.77,0,0,0,.17.14.28.28,0,0,0,.13.06,1.07,1.07,0,0,0,.49-.12,1.07,1.07,0,0,1,.49-.12.81.81,0,0,1,.34.08.67.67,0,0,0,.34.09.8.8,0,0,0,.34-.07.86.86,0,0,1,.36-.07l.16,0,.16,0a3.08,3.08,0,0,0,.9.11h.92a2,2,0,0,1,.67.12,3.31,3.31,0,0,1,.66.31,4,4,0,0,1,.59.43,3.48,3.48,0,0,1,.46.49,2.43,2.43,0,0,0,.33.38l.36.34a2.76,2.76,0,0,1,.31.37,1.3,1.3,0,0,1,.19.45c0,.2.12.42.2.66A1.87,1.87,0,0,1,324.24,224.35Z"/><path class="cls-2" d="M342.94,228.38a1.3,1.3,0,0,1-.09.49,1.27,1.27,0,0,1-.67.67,1.18,1.18,0,0,1-.5.11.22.22,0,0,1-.14,0l-.1-.11a.79.79,0,0,0-.51-.26l-.63-.07a2.72,2.72,0,0,1-.62-.17,1,1,0,0,1-.47-.52.71.71,0,0,0-.26-.33.89.89,0,0,0-.42-.08,3.79,3.79,0,0,0-1.26.21c-.4.15-.8.3-1.19.48s-.79.33-1.2.47a3.83,3.83,0,0,1-1.26.21,4.17,4.17,0,0,1-.71-.06,3.26,3.26,0,0,1-.69-.22.37.37,0,0,1-.17.1.78.78,0,0,1-.22,0h-.2l-.17,0-.17.06-.18.06.09.15a1,1,0,0,1-.41.27,6,6,0,0,1-.68.22l-.72.15a3.28,3.28,0,0,1-.52.06,1.76,1.76,0,0,1-.79-.16,1.91,1.91,0,0,1-.61-.55,2.44,2.44,0,0,0-.27-.3l-.3-.31a1.91,1.91,0,0,1-.24-.34.75.75,0,0,1-.1-.38.43.43,0,0,1,.24-.37,2.07,2.07,0,0,1,.58-.25,3.88,3.88,0,0,1,.66-.14l.51,0a3,3,0,0,1,.72.09,2.57,2.57,0,0,0,.73.1,2.18,2.18,0,0,0,.63-.09,2.18,2.18,0,0,1,.63-.09,3.43,3.43,0,0,1,.56,0,5.46,5.46,0,0,0,.57,0,2.11,2.11,0,0,0,.7-.13,3,3,0,0,0,.64-.34,14.57,14.57,0,0,0,.17-1.48c0-.49.06-1,.06-1.49a8.11,8.11,0,0,0-.13-1.47,9.08,9.08,0,0,1-.12-1.46s0-.07,0-.07l.07,0a.09.09,0,0,0,.07,0s0,0,0-.11a2.16,2.16,0,0,0-.09-.62,2.1,2.1,0,0,1-.09-.61,2.8,2.8,0,0,1,.1-.77,2.87,2.87,0,0,0,.11-.77,1.32,1.32,0,0,0-.12-.54,1.75,1.75,0,0,0-.32-.48,1.49,1.49,0,0,0-.45-.34,1.13,1.13,0,0,0-.54-.13,2.56,2.56,0,0,0-.62.07l-.65.18-.67.17a3.22,3.22,0,0,1-.71.08,6.11,6.11,0,0,1-.86-.06l-.86-.14-.47-.06a2.71,2.71,0,0,1-.51-.11.92.92,0,0,1-.4-.22.57.57,0,0,1-.17-.44,1.37,1.37,0,0,1,.19-.8,1.18,1.18,0,0,1,.47-.42,1.72,1.72,0,0,1,.62-.16l.66-.06,1.14-.09q.57,0,1.14,0a10.7,10.7,0,0,1,1.39.08,12.81,12.81,0,0,0,1.39.08,3,3,0,0,1,1,.15,2.22,2.22,0,0,1,.79.46,2.18,2.18,0,0,1,.54.78,2.78,2.78,0,0,1,.19,1.08,1.81,1.81,0,0,1-.17.79,2.71,2.71,0,0,1-.44.69.65.65,0,0,0,.21.26l.19.12a.5.5,0,0,1,.15.14.52.52,0,0,1,.06.3,1.45,1.45,0,0,0,0,.28.21.21,0,0,0,.2.18c0,.54,0,1.07,0,1.6s0,1.06,0,1.59,0,.9,0,1.35a10.25,10.25,0,0,0,.11,1.36,1.34,1.34,0,0,0,.25.65.77.77,0,0,0,.64.22,6,6,0,0,0,1.34-.14,6,6,0,0,1,1.34-.14,1.55,1.55,0,0,1,.75.19c.23.13.46.27.68.42l.62.43a1,1,0,0,0,.57.19.28.28,0,0,1,.2.08.49.49,0,0,1,.11.2,1,1,0,0,1,.05.23Zm-7.28-18.32a2.82,2.82,0,0,1-.15.89,2.91,2.91,0,0,1-.41.85,2.33,2.33,0,0,1-.66.63,1.49,1.49,0,0,1-.85.25,3.61,3.61,0,0,1-.78-.1,4.39,4.39,0,0,1-.89-.28,2.45,2.45,0,0,1-.74-.49,1,1,0,0,1-.31-.71,4,4,0,0,1,.08-.75,4,4,0,0,0,.1-.77.92.92,0,0,0,.3-.27l.29-.4a4,4,0,0,1,.29-.37.47.47,0,0,1,.29-.18l-.07,0a3.26,3.26,0,0,1,.44-.15,2,2,0,0,1,.48-.06,2.47,2.47,0,0,1,.76.15,4.79,4.79,0,0,1,.85.42,2.87,2.87,0,0,1,.69.6A1.12,1.12,0,0,1,335.66,210.06Z"/><path class="cls-2" d="M357.17,223.61a3.79,3.79,0,0,1-.1.91c-.07.29-.15.57-.24.85s-.19.55-.28.84a5.15,5.15,0,0,0-.22.88,2.69,2.69,0,0,1-.54,1.25,3.13,3.13,0,0,1-1,.79,5,5,0,0,1-1.27.44q-.71.13-1.44.21c-.49.05-1,.09-1.45.11a12.56,12.56,0,0,0-1.32.11,1.91,1.91,0,0,1-.38-.37l-.28-.36a1.17,1.17,0,0,0-.3-.29.76.76,0,0,0-.44-.11c-.06,0-.11-.09-.14-.25s-.07-.35-.1-.56-.07-.39-.1-.56-.08-.24-.14-.24a.9.9,0,0,1-.55-.16,1,1,0,0,1-.32-.38,2.1,2.1,0,0,1-.15-.52,3.6,3.6,0,0,1,0-.56.86.86,0,0,0-.09-.39,3.9,3.9,0,0,0-.19-.35c-.07-.12-.14-.23-.2-.36a.81.81,0,0,1-.09-.37c0-.15,0-.34,0-.57s0-.46.05-.7,0-.47,0-.7,0-.43,0-.58a1.44,1.44,0,0,1,.06-.45,2.39,2.39,0,0,1,.16-.32c.06-.08.11-.16.16-.24a.4.4,0,0,0,.07-.24.49.49,0,0,0-.09-.3.46.46,0,0,1-.08-.24.56.56,0,0,1,.11-.32,1.21,1.21,0,0,0,.15-.33,5.34,5.34,0,0,0,.16-1.31v-.26l0-.25a1.74,1.74,0,0,0-.76-.37l-.85-.12c-.28,0-.55-.06-.81-.1a1.2,1.2,0,0,1-.66-.31,2.73,2.73,0,0,1-.41-.48.89.89,0,0,0-.48-.35,1.25,1.25,0,0,1-.36-.2.5.5,0,0,1-.14-.37.67.67,0,0,1,.22-.55,1.48,1.48,0,0,1,.52-.3,6.4,6.4,0,0,1,.62-.2,1.47,1.47,0,0,0,.55-.25.9.9,0,0,1,.55-.16h.52a1.34,1.34,0,0,0,.63-.13,1.07,1.07,0,0,0,.39-.34,1.42,1.42,0,0,0,.19-.51,2.93,2.93,0,0,0,.06-.61,7.19,7.19,0,0,0-.06-.94,7,7,0,0,1-.06-.93,3.31,3.31,0,0,1,.15-1,2,2,0,0,1,.57-.86,1.88,1.88,0,0,0,.2-.2,2.39,2.39,0,0,1,.22-.23,1.38,1.38,0,0,1,.25-.19.52.52,0,0,1,.26-.08.38.38,0,0,1,.16,0l.14.1a2.45,2.45,0,0,1,.43.49.66.66,0,0,1,.1.37,2.35,2.35,0,0,1,0,.26v.37a3.81,3.81,0,0,0,.12,1,3.3,3.3,0,0,1,.12.8,1.33,1.33,0,0,1-.12.55,1.46,1.46,0,0,0-.11.55.72.72,0,0,0,.1.38,1.85,1.85,0,0,0,.23.34,4,4,0,0,1,.23.34.74.74,0,0,1,.1.4,2,2,0,0,0,.68.19c.35.05.74.1,1.18.13s.86.06,1.31.08l1.1,0a2.3,2.3,0,0,1,.6.06,2.65,2.65,0,0,1,.35.13l.27.14a.57.57,0,0,0,.31.1,1.29,1.29,0,0,1,.42.12.43.43,0,0,1,.17.39.8.8,0,0,1-.19.57,1.13,1.13,0,0,1-.47.32,1.88,1.88,0,0,1-.59.12l-.59,0q-.44,0-.87,0c-.29,0-.58,0-.88,0a5.78,5.78,0,0,0-1.3.13,2.64,2.64,0,0,0-1,.45,2,2,0,0,0-.66.84,3.11,3.11,0,0,0-.24,1.3,12.49,12.49,0,0,0,.1,1.51,10.6,10.6,0,0,1,.1,1.5c0,.48,0,.87,0,1.16a2,2,0,0,0,.17.74,5,5,0,0,1,.32,1,6.56,6.56,0,0,0,.31,1.06,2.16,2.16,0,0,0,.53.83,1.33,1.33,0,0,0,1,.34,4,4,0,0,0,.6-.06,4.13,4.13,0,0,0,.75-.19,2.09,2.09,0,0,0,.65-.33.6.6,0,0,0,.27-.5,1,1,0,0,0-.15-.52,1.13,1.13,0,0,1-.15-.57.61.61,0,0,1,.1-.36,1.13,1.13,0,0,1,.25-.29,2.54,2.54,0,0,1,.34-.23l.33-.17a2.46,2.46,0,0,1,.66-.58,1.61,1.61,0,0,1,.82-.23,1.65,1.65,0,0,1,.58.1,2.33,2.33,0,0,1,.52.27A3.43,3.43,0,0,1,357.17,223.61Z"/><path class="cls-2" d="M373.32,225.81a1.77,1.77,0,0,1-.13.69,2.23,2.23,0,0,1-.33.51,3.25,3.25,0,0,1-.47.43c-.18.13-.35.27-.54.42a2.26,2.26,0,0,1-.37.27,2.41,2.41,0,0,1-.33.15l-.33.12-.39.16-.51.28a4.36,4.36,0,0,1-.41.24,2.52,2.52,0,0,1-.44.17,3.61,3.61,0,0,1-.6.11c-.4,0-.81.11-1.21.18a7.28,7.28,0,0,1-1.22.11.79.79,0,0,1-.25-.05l-.29-.11-.37-.1a1.73,1.73,0,0,0-.49-.06,1.08,1.08,0,0,1-.48-.09,1.48,1.48,0,0,1-.32-.21l-.3-.26a1.25,1.25,0,0,0-.39-.25,5.83,5.83,0,0,1-1.53-1,6,6,0,0,1-1.09-1.28,7.76,7.76,0,0,1-.75-1.53,15.31,15.31,0,0,1-.51-1.74,5,5,0,0,1-.17-1.26,3.15,3.15,0,0,1,.39-1.54,2.4,2.4,0,0,1-.15-.81,3.45,3.45,0,0,1,.17-.85,7.57,7.57,0,0,1,.43-1.14,6.71,6.71,0,0,1,.57-1,1.41,1.41,0,0,1,.58-.56,1.73,1.73,0,0,0,.29-.13q.09-.06.09-.3a.36.36,0,0,1,.14-.3,1.11,1.11,0,0,1,.34-.19l.41-.14.34-.12c.37-.18.73-.33,1.06-.46a9.74,9.74,0,0,1,1-.31,7.2,7.2,0,0,1,1.05-.19,10.44,10.44,0,0,1,1.16-.06,2.3,2.3,0,0,1,.64.09,4,4,0,0,1,.61.23,6.55,6.55,0,0,1,.58.32l.56.34h0a1.45,1.45,0,0,1,.42.12,1.33,1.33,0,0,0,.43.13,2.66,2.66,0,0,0,.55.49l.67.49a3.18,3.18,0,0,1,.55.55,1,1,0,0,1,.24.67s0,.08,0,.12,0,.09,0,.14l.06-.08a.48.48,0,0,1,.11.15c0,.07.07.15.1.24a2.33,2.33,0,0,1,.07.25c0,.09,0,.15.05.21a1,1,0,0,0,.32.31,1,1,0,0,1,.33.33.53.53,0,0,0-.16.39,1.34,1.34,0,0,0,.11.51,1.25,1.25,0,0,1,.11.5,5.35,5.35,0,0,1,0,.58,5.49,5.49,0,0,0,0,.58.4.4,0,0,1-.18.35,2.22,2.22,0,0,1-.37.21l-.37.18a.29.29,0,0,0-.17.26c0,.08-.05.11-.14.11h-.23a5.3,5.3,0,0,1-1.32-.16,5.35,5.35,0,0,0-1.31-.17,9.42,9.42,0,0,0-1.4.1,10.73,10.73,0,0,1-1.4.1c-.35,0-.7,0-1,0l-1.05,0a3.42,3.42,0,0,0-.51.05c-.25,0-.52.08-.79.13s-.54.12-.79.2a1.86,1.86,0,0,0-.53.22,1.22,1.22,0,0,0,0,.21,3,3,0,0,0,.41,1.46,5.44,5.44,0,0,0,1.09,1.37,6.32,6.32,0,0,0,1.52,1,3.9,3.9,0,0,0,1.7.41c.34,0,.66,0,1,0a3.26,3.26,0,0,1,1,.22A3.69,3.69,0,0,0,369,227q.35-.25.66-.54c.21-.19.41-.38.61-.59l.62-.6a.64.64,0,0,1,.3-.11,3.44,3.44,0,0,1,.5-.09l.52-.06a2.61,2.61,0,0,1,.34,0,2,2,0,0,1,.65.1A2.71,2.71,0,0,1,373.32,225.81Zm-2.26-6.11a1.32,1.32,0,0,0-.08-.44,3.17,3.17,0,0,1-.12-.44,4.62,4.62,0,0,1-.07-.82,2.82,2.82,0,0,0-.12-.8h0a.29.29,0,0,1-.06.17.18.18,0,0,1-.16.08.7.7,0,0,1-.35-.09,1.06,1.06,0,0,1-.29-.22c-.38-.17-.72-.33-1-.49a9,9,0,0,0-.92-.39,5.61,5.61,0,0,0-1-.28,7,7,0,0,0-1.19-.09h-.12l-.09.06.07.16-.12,0c-.27.05-.49.1-.67.15a1.64,1.64,0,0,0-.47.18,2.73,2.73,0,0,0-.42.3l-.52.44a1,1,0,0,1-.32.2l-.35.13-.33.11a.61.61,0,0,0-.26.19,3.14,3.14,0,0,1-.31.73,1.46,1.46,0,0,0-.2.75.55.55,0,0,0,.18.4,1.76,1.76,0,0,0,.49.29,4.8,4.8,0,0,0,.64.21,6.19,6.19,0,0,0,.7.14l.64.07.46,0a6.1,6.1,0,0,0,1.13-.11,5.35,5.35,0,0,1,1.13-.12,11.81,11.81,0,0,1,1.18.06c.39,0,.78.05,1.17.05l.45,0a3.09,3.09,0,0,0,.6-.08,1.65,1.65,0,0,0,.51-.2A.38.38,0,0,0,371.06,219.7Z"/><path class="cls-2" d="M400.42,222.36a1.05,1.05,0,0,1-.07.4,1.19,1.19,0,0,1-.15.32,1.53,1.53,0,0,1-.15.23l-.07.11a.66.66,0,0,0,.1.31.65.65,0,0,1,.1.36.11.11,0,0,1-.07.12.32.32,0,0,1-.14,0,.75.75,0,0,1-.23,0c0,.19,0,.38.05.56a3.43,3.43,0,0,1,0,.56,1.27,1.27,0,0,1-.08.56.36.36,0,0,1-.17.16l-.18.07s-.08.12-.08.28a.56.56,0,0,1-.19.34,3.08,3.08,0,0,1-.45.42,3.47,3.47,0,0,1-.54.37,1.06,1.06,0,0,1-.45.15l-.1,0a2.18,2.18,0,0,0,0,.25,2.46,2.46,0,0,1,0,.26.27.27,0,0,1-.12.26,1.69,1.69,0,0,1-.27.13,2,2,0,0,0-.47.31l-.5.41a3.54,3.54,0,0,1-.52.37,1,1,0,0,1-.55.16.86.86,0,0,1-.44-.12.91.91,0,0,0-.47-.12,1,1,0,0,0-.41.07,1.77,1.77,0,0,0-.31.15l-.29.15a1,1,0,0,1-.35.07,1.63,1.63,0,0,1-.78-.21,5.81,5.81,0,0,0-.75-.32,2.37,2.37,0,0,0-.46-.11l-.46-.09a2,2,0,0,1-.43-.14,1.09,1.09,0,0,1-.36-.28,2.82,2.82,0,0,0-.73-.65c-.29-.17-.57-.33-.86-.48s-.57-.31-.85-.47a2.58,2.58,0,0,1-.7-.66c-.15-.21-.32-.44-.52-.68s-.36-.51-.53-.78a4.92,4.92,0,0,1-.41-.83,2.23,2.23,0,0,1-.17-.82,2.81,2.81,0,0,1,.06-.59c0-.19.08-.39.13-.58s.09-.39.13-.58a2.88,2.88,0,0,0,.06-.59V221a.3.3,0,0,0-.05-.14.71.71,0,0,0-.1-.14.63.63,0,0,0-.1-.12l-.07-.06s0,0,0,0,0-.23.08-.41.1-.38.16-.58l.18-.54a1,1,0,0,1,.17-.32l.17-.16a.29.29,0,0,0,.08-.22,2.17,2.17,0,0,0,0-.26,2.45,2.45,0,0,1,0-.27.33.33,0,0,1,.05-.22.21.21,0,0,1,.12,0l.15,0a.33.33,0,0,0,.15-.16l.26-.51a4.55,4.55,0,0,1,.28-.43,2.38,2.38,0,0,1,.35-.36,2.66,2.66,0,0,1,.48-.31,2.94,2.94,0,0,0,.47-.34l.48-.39a3,3,0,0,1,.49-.33,1.07,1.07,0,0,1,.53-.13,2.13,2.13,0,0,0,.79-.15,4.51,4.51,0,0,1,.78-.21l1.23-.18a10.06,10.06,0,0,1,1.24-.08,4.21,4.21,0,0,1,.84.11q.49.12,1,.3a9.55,9.55,0,0,1,1,.4,3.87,3.87,0,0,1,.73.45v.05a1.35,1.35,0,0,1-.08.43,1.29,1.29,0,0,0-.07.43v.06a0,0,0,0,0,0,0,2,2,0,0,0,.49-.07,1.51,1.51,0,0,1,.48-.07.43.43,0,0,0,.23.35l.39.16a.88.88,0,0,1,.34.33,3.2,3.2,0,0,1,.29.52c.1.2.18.39.27.58a2.5,2.5,0,0,0,.25.47,2.87,2.87,0,0,1,.22.43,4.48,4.48,0,0,1,.16.52,3.51,3.51,0,0,1,.1.53,4.42,4.42,0,0,1,0,.49,1.1,1.1,0,0,1-.11.51,3.27,3.27,0,0,1-.25.36l-.25.3a.48.48,0,0,0-.11.32.45.45,0,0,0,0,.2.66.66,0,0,0,.12.17l.13,0c.06,0,.1,0,.1-.09v0a.37.37,0,0,0-.1-.23.33.33,0,0,1-.1-.25.33.33,0,0,1,0-.1s.05-.07.08-.07a.24.24,0,0,1,.18.12,1.46,1.46,0,0,1,.17.24,2.06,2.06,0,0,1,.13.21c0,.07,0,.09,0,.07v0a.69.69,0,0,1,0,.13A.37.37,0,0,1,400.42,222.36Zm-1.51.12c0-.16-.06-.26-.18-.29a1.59,1.59,0,0,0-.4-.07,3.44,3.44,0,0,1-.45-.05.32.32,0,0,1-.29-.22v-.15a4.9,4.9,0,0,0-.08-.78q-.09-.43-.21-.9c-.08-.31-.16-.61-.25-.9s-.18-.56-.26-.79l-.27-.77-.2,0a.9.9,0,0,1-.44-.11l-.42-.22a4,4,0,0,0-.57-.23,3.19,3.19,0,0,0-.9-.1,8.25,8.25,0,0,1-1.22-.09,9.87,9.87,0,0,0-1.22-.08,3.44,3.44,0,0,0-1.58.38,4.65,4.65,0,0,0-2.17,2.42,4.21,4.21,0,0,0-.32,1.58c0,.22,0,.48,0,.78a6.84,6.84,0,0,0,.08.89,4.1,4.1,0,0,0,.19.82,1.25,1.25,0,0,0,.38.58v.43a.21.21,0,0,0,.16.06h.19l.17,0a.24.24,0,0,1,.13.13,2,2,0,0,0,.51.85,3.54,3.54,0,0,0,.67.5l.73.4a2.31,2.31,0,0,1,.66.6l.26,0h.25a5.78,5.78,0,0,1,.94.07,7.26,7.26,0,0,0,.93.06,1.59,1.59,0,0,0,.89-.25,2.51,2.51,0,0,0,.69-.65c.12-.17.23-.31.33-.43a2.56,2.56,0,0,1,.31-.34,2.52,2.52,0,0,1,.35-.3l.44-.33.22-.15.25-.2a1.56,1.56,0,0,0,.22-.23.35.35,0,0,0,.09-.22,1.24,1.24,0,0,0,0-.27.84.84,0,0,1,0-.27,1.71,1.71,0,0,1,0-.36,1.56,1.56,0,0,1,.15-.41.87.87,0,0,1,.24-.32.48.48,0,0,1,.35-.13.8.8,0,0,1,.33.08,1.49,1.49,0,0,1,.3.18A1.31,1.31,0,0,0,398.91,222.48Z"/><path class="cls-2" d="M418.82,212.21l-.08,0a.45.45,0,0,1-.28-.1.57.57,0,0,0-.27-.13l0,.06a.4.4,0,0,0,.08.23,1.46,1.46,0,0,0,.16.19l.17.19a.32.32,0,0,1,.07.19c0,.09,0,.14-.17.15a1.2,1.2,0,0,0-.26.05.47.47,0,0,0-.29.21,3.52,3.52,0,0,1-.25.38,1.27,1.27,0,0,1-.37.36,1.15,1.15,0,0,1-.66.16,2.51,2.51,0,0,1-1-.24,2.06,2.06,0,0,1-.88-.7,2.51,2.51,0,0,1-.36-.87,5.51,5.51,0,0,1-.1-.89,3.87,3.87,0,0,0-.11-.81,1.1,1.1,0,0,0-.34-.58,1.35,1.35,0,0,0-.85-.22,5.86,5.86,0,0,0-1.14.13,4.11,4.11,0,0,0-1.11.42,2.75,2.75,0,0,0-.83.76,1.76,1.76,0,0,0-.34,1.1,7.47,7.47,0,0,0,.06,1.09.89.89,0,0,0,.26.56.92.92,0,0,0,.57.2l1,0a.66.66,0,0,1,.34.17,4.12,4.12,0,0,1,.44.41,3.8,3.8,0,0,1,.37.47.74.74,0,0,1,.16.4.61.61,0,0,1-.29.53,2.1,2.1,0,0,1-.7.28,4.59,4.59,0,0,1-.83.1l-.66,0a.77.77,0,0,0-.42.1.63.63,0,0,0-.23.28,1.34,1.34,0,0,0-.1.37c0,.14,0,.28,0,.42a19,19,0,0,0,.11,2,17.15,17.15,0,0,1,.11,2,2.61,2.61,0,0,1-.15,1,1.61,1.61,0,0,0-.16.62.78.78,0,0,0,.07.33,1,1,0,0,1,.06.33,2.25,2.25,0,0,1-.09.64,2,2,0,0,0-.1.64,1,1,0,0,0,.09.46,2.12,2.12,0,0,0,.21.36l.23.34a1.13,1.13,0,0,1,.15.39,7.08,7.08,0,0,0,.8-.16,3.24,3.24,0,0,1,.82-.11l.75,0a5,5,0,0,1,.93.15,2.41,2.41,0,0,1,.8.33.66.66,0,0,1,.34.59,2.35,2.35,0,0,1-.08.6,2,2,0,0,1-.25.53,1.56,1.56,0,0,1-.41.4,1.3,1.3,0,0,1-.56.2,3.24,3.24,0,0,0-.79.23,2.08,2.08,0,0,1-.8.16,1.33,1.33,0,0,1-.49-.09l-.48-.18-.51-.19a1.61,1.61,0,0,0-.54-.09h-1.33c-.44,0-.88,0-1.34.07a4.46,4.46,0,0,0-.73.13l-.73.2-.75.17a3.82,3.82,0,0,1-.75.08,1.61,1.61,0,0,1-.39-.07,2.8,2.8,0,0,1-.46-.16l-.44-.22a1.83,1.83,0,0,1-.34-.23v-.69a1.22,1.22,0,0,1,.21-.77,1.31,1.31,0,0,1,.55-.39,3.26,3.26,0,0,1,.77-.16l.9,0,.89-.05a2.55,2.55,0,0,0,.78-.19,1.23,1.23,0,0,0,.55-.46,1.51,1.51,0,0,0,.21-.85,2.28,2.28,0,0,0,0-.45,3.58,3.58,0,0,0-.09-.45h0a1.82,1.82,0,0,0,.14-.4,4.93,4.93,0,0,0,.07-.57c0-.2,0-.39,0-.58v-.44c0-.28,0-.59,0-.91a3.31,3.31,0,0,0-.14-.88,1.72,1.72,0,0,0-.07-.21.73.73,0,0,1,0-.22,2,2,0,0,1,.12-.68,2.09,2.09,0,0,0,.12-.69.53.53,0,0,0,0-.2.34.34,0,0,0-.06-.12l-.07-.11a.84.84,0,0,1,0-.14,1.62,1.62,0,0,0,.17-.35,1.07,1.07,0,0,0,.07-.39.56.56,0,0,0-.07-.3,2.2,2.2,0,0,0-.17-.25,2,2,0,0,1-.17-.23.44.44,0,0,1-.09-.27h-.54c-.22,0-.46,0-.72,0a6.93,6.93,0,0,1-.78-.1,4.28,4.28,0,0,1-.71-.2,1.52,1.52,0,0,1-.52-.34.65.65,0,0,1-.2-.5.57.57,0,0,1,.17-.4,1.72,1.72,0,0,1,.42-.32,2.44,2.44,0,0,1,.53-.21,1.84,1.84,0,0,1,.47-.08l.43,0h.43l.55,0a1,1,0,0,0,.5-.16.67.67,0,0,0,.11-.24,3.16,3.16,0,0,0,.11-.42c0-.15.05-.31.07-.45a2.75,2.75,0,0,0,0-.29,4.68,4.68,0,0,0,0-.67,3.53,3.53,0,0,1-.05-.66,3.36,3.36,0,0,1,.12-.92,1.8,1.8,0,0,1,.48-.78l.8-.82a6.67,6.67,0,0,1,.8-.72,5.11,5.11,0,0,1,.9-.54,4.12,4.12,0,0,1,1.14-.32l.91-.13a5.84,5.84,0,0,1,.93-.08,5.38,5.38,0,0,1,.68.07,9,9,0,0,1,.92.2,9.4,9.4,0,0,1,1,.31,5.33,5.33,0,0,1,.9.41,3,3,0,0,1,.66.51.9.9,0,0,1,.26.6.81.81,0,0,1,.68.31,1.86,1.86,0,0,1,.31.73,6,6,0,0,1,.12.88,3.39,3.39,0,0,0,.14.79Z"/><path class="cls-2" d="M433.41,212.21l-.07,0a.48.48,0,0,1-.29-.1.57.57,0,0,0-.27-.13l0,.06a.4.4,0,0,0,.08.23,1,1,0,0,0,.17.19c.06.06.11.13.16.19a.34.34,0,0,1,.08.19q0,.13-.18.15a1.2,1.2,0,0,0-.26.05.47.47,0,0,0-.29.21,3.52,3.52,0,0,1-.25.38,1.27,1.27,0,0,1-.37.36,1.15,1.15,0,0,1-.66.16,2.51,2.51,0,0,1-1.05-.24,2,2,0,0,1-.87-.7,2.75,2.75,0,0,1-.37-.87,5.51,5.51,0,0,1-.1-.89,3.87,3.87,0,0,0-.11-.81,1.1,1.1,0,0,0-.34-.58,1.33,1.33,0,0,0-.85-.22,5.86,5.86,0,0,0-1.14.13,4.11,4.11,0,0,0-1.11.42,2.75,2.75,0,0,0-.83.76,1.82,1.82,0,0,0-.33,1.1,7.47,7.47,0,0,0,.06,1.09.89.89,0,0,0,.25.56.92.92,0,0,0,.57.2l1,0a.66.66,0,0,1,.34.17,4.12,4.12,0,0,1,.44.41,5.22,5.22,0,0,1,.38.47.8.8,0,0,1,.15.4.59.59,0,0,1-.29.53,2.1,2.1,0,0,1-.7.28,4.59,4.59,0,0,1-.83.1l-.66,0a.77.77,0,0,0-.42.1.63.63,0,0,0-.23.28,1.34,1.34,0,0,0-.1.37c0,.14,0,.28,0,.42a19,19,0,0,0,.11,2,17.15,17.15,0,0,1,.12,2,2.6,2.6,0,0,1-.16,1,1.61,1.61,0,0,0-.16.62.78.78,0,0,0,.07.33,1,1,0,0,1,.07.33,2.25,2.25,0,0,1-.1.64,2,2,0,0,0-.1.64,1,1,0,0,0,.09.46,2.12,2.12,0,0,0,.21.36l.23.34a1.13,1.13,0,0,1,.15.39,7.08,7.08,0,0,0,.8-.16,3.24,3.24,0,0,1,.82-.11l.75,0a4.75,4.75,0,0,1,.93.15,2.32,2.32,0,0,1,.8.33.66.66,0,0,1,.34.59,2.35,2.35,0,0,1-.08.6,2,2,0,0,1-.25.53,1.56,1.56,0,0,1-.41.4,1.25,1.25,0,0,1-.55.2,3.19,3.19,0,0,0-.8.23,2,2,0,0,1-.8.16,1.37,1.37,0,0,1-.49-.09l-.48-.18-.51-.19a1.61,1.61,0,0,0-.54-.09h-1.33c-.44,0-.88,0-1.33.07a4.4,4.4,0,0,0-.74.13l-.73.2-.75.17a3.82,3.82,0,0,1-.75.08,1.61,1.61,0,0,1-.39-.07,2.8,2.8,0,0,1-.46-.16,4.51,4.51,0,0,1-.44-.22,1.83,1.83,0,0,1-.34-.23v-.69a1.22,1.22,0,0,1,.21-.77,1.31,1.31,0,0,1,.55-.39,3.26,3.26,0,0,1,.77-.16l.9,0,.9-.05a2.48,2.48,0,0,0,.77-.19,1.23,1.23,0,0,0,.55-.46,1.51,1.51,0,0,0,.21-.85,2.28,2.28,0,0,0,0-.45,3.58,3.58,0,0,0-.09-.45h0a1.42,1.42,0,0,0,.14-.4,4.93,4.93,0,0,0,.07-.57c0-.2,0-.39,0-.58v-.44c0-.28,0-.59,0-.91a3.31,3.31,0,0,0-.14-.88,1.72,1.72,0,0,0-.07-.21.73.73,0,0,1,0-.22,2,2,0,0,1,.12-.68,2.09,2.09,0,0,0,.12-.69.53.53,0,0,0,0-.2.61.61,0,0,0-.05-.12l-.07-.11a.38.38,0,0,1-.05-.14,1.62,1.62,0,0,0,.17-.35,1.07,1.07,0,0,0,.07-.39.56.56,0,0,0-.07-.3,2.2,2.2,0,0,0-.17-.25,2,2,0,0,1-.17-.23.43.43,0,0,1-.08-.27h-.55c-.22,0-.46,0-.72,0a6.93,6.93,0,0,1-.78-.1,4.28,4.28,0,0,1-.71-.2,1.62,1.62,0,0,1-.52-.34.65.65,0,0,1-.2-.5.57.57,0,0,1,.17-.4,1.94,1.94,0,0,1,.42-.32,2.44,2.44,0,0,1,.53-.21,1.84,1.84,0,0,1,.47-.08l.43,0h.43l.55,0a1,1,0,0,0,.51-.16.72.72,0,0,0,.1-.24,3.16,3.16,0,0,0,.11-.42c0-.15.05-.31.07-.45a2.75,2.75,0,0,0,0-.29,4.68,4.68,0,0,0-.05-.67,3.53,3.53,0,0,1-.05-.66,3.36,3.36,0,0,1,.12-.92,1.8,1.8,0,0,1,.48-.78l.8-.82a7.53,7.53,0,0,1,.8-.72,4.85,4.85,0,0,1,.91-.54,4,4,0,0,1,1.13-.32l.91-.13a5.84,5.84,0,0,1,.93-.08,5.69,5.69,0,0,1,.69.07c.28,0,.59.11.91.2a9.4,9.4,0,0,1,1,.31,5.33,5.33,0,0,1,.9.41,3.09,3.09,0,0,1,.67.51.88.88,0,0,1,.25.6.84.84,0,0,1,.69.31,2,2,0,0,1,.31.73,6,6,0,0,1,.12.88,3.42,3.42,0,0,0,.13.79Zm14.94,16.17a1.13,1.13,0,0,1-.1.49,1.18,1.18,0,0,1-.27.4,1.56,1.56,0,0,1-.4.27,1.15,1.15,0,0,1-.5.11.19.19,0,0,1-.13,0l-.11-.11a.79.79,0,0,0-.51-.26l-.62-.07a2.46,2.46,0,0,1-.62-.17,1,1,0,0,1-.48-.52.71.71,0,0,0-.25-.33.89.89,0,0,0-.42-.08,3.85,3.85,0,0,0-1.27.21c-.4.15-.8.3-1.19.48s-.79.33-1.19.47a3.87,3.87,0,0,1-1.26.21,4.37,4.37,0,0,1-.72-.06,3.37,3.37,0,0,1-.68-.22.4.4,0,0,1-.18.1.66.66,0,0,1-.21,0H437l-.17,0-.17.06-.18.06.09.15a.91.91,0,0,1-.4.27,5.6,5.6,0,0,1-.69.22l-.71.15a3.38,3.38,0,0,1-.53.06,1.79,1.79,0,0,1-.79-.16,1.91,1.91,0,0,1-.61-.55,2.32,2.32,0,0,0-.26-.3c-.11-.1-.21-.21-.3-.31a2,2,0,0,1-.25-.34.85.85,0,0,1-.09-.38.43.43,0,0,1,.24-.37,2.13,2.13,0,0,1,.57-.25,3.88,3.88,0,0,1,.66-.14l.51,0a3,3,0,0,1,.73.09,2.55,2.55,0,0,0,.72.1,2.18,2.18,0,0,0,.63-.09,2.18,2.18,0,0,1,.63-.09,3.64,3.64,0,0,1,.57,0,5.09,5.09,0,0,0,.56,0,2.07,2.07,0,0,0,.7-.13,3,3,0,0,0,.64-.34c.08-.49.14-1,.18-1.48s.05-1,.05-1.49a9.11,9.11,0,0,0-.12-1.47,9.08,9.08,0,0,1-.12-1.46s0-.07,0-.07l.07,0a.09.09,0,0,0,.06,0s0,0,0-.11a2.16,2.16,0,0,0-.09-.62,2.1,2.1,0,0,1-.09-.61,2.81,2.81,0,0,1,.11-.77,2.87,2.87,0,0,0,.11-.77,1.34,1.34,0,0,0-.13-.54,1.72,1.72,0,0,0-.31-.48,1.49,1.49,0,0,0-.45-.34,1.17,1.17,0,0,0-.55-.13,2.56,2.56,0,0,0-.62.07l-.64.18-.67.17a3.31,3.31,0,0,1-.72.08,6,6,0,0,1-.85-.06l-.86-.14-.48-.06a2.78,2.78,0,0,1-.5-.11,1,1,0,0,1-.41-.22.57.57,0,0,1-.16-.44,1.46,1.46,0,0,1,.18-.8,1.25,1.25,0,0,1,.47-.42,1.83,1.83,0,0,1,.63-.16l.66-.06,1.14-.09c.37,0,.75,0,1.13,0a10.85,10.85,0,0,1,1.4.08,12.66,12.66,0,0,0,1.39.08,3,3,0,0,1,.95.15,2.1,2.1,0,0,1,1.32,1.24,2.77,2.77,0,0,1,.2,1.08,1.82,1.82,0,0,1-.18.79,2.46,2.46,0,0,1-.44.69.65.65,0,0,0,.21.26l.2.12a.5.5,0,0,1,.15.14.52.52,0,0,1,.06.3,1,1,0,0,0,0,.28.2.2,0,0,0,.2.18c0,.54,0,1.07,0,1.6s0,1.06,0,1.59,0,.9,0,1.35a8.81,8.81,0,0,0,.11,1.36,1.34,1.34,0,0,0,.24.65.8.8,0,0,0,.65.22,6,6,0,0,0,1.34-.14,6,6,0,0,1,1.34-.14,1.48,1.48,0,0,1,.74.19,7.74,7.74,0,0,1,.68.42c.22.15.42.3.63.43a1,1,0,0,0,.57.19.26.26,0,0,1,.19.08.67.67,0,0,1,.12.2.93.93,0,0,1,0,.23A1.62,1.62,0,0,1,448.35,228.38Zm-7.29-18.32a3.11,3.11,0,0,1-.14.89,3.21,3.21,0,0,1-.42.85,2.43,2.43,0,0,1-.65.63,1.51,1.51,0,0,1-.85.25,3.61,3.61,0,0,1-.78-.1,4.49,4.49,0,0,1-.9-.28,2.58,2.58,0,0,1-.74-.49,1,1,0,0,1-.31-.71,3.33,3.33,0,0,1,.09-.75,4.91,4.91,0,0,0,.09-.77.92.92,0,0,0,.3-.27c.09-.12.19-.25.28-.39l.28-.36a.56.56,0,0,1,.29-.19l-.05,0h.06l.42-.13a1.67,1.67,0,0,1,.44-.06,2.42,2.42,0,0,1,.76.15,4.48,4.48,0,0,1,.85.42,2.87,2.87,0,0,1,.69.6A1.07,1.07,0,0,1,441.06,210.06Z"/><path class="cls-2" d="M463.2,224.35a1.22,1.22,0,0,1-.07.38c-.05.13-.1.25-.16.38s-.12.25-.17.37a1.23,1.23,0,0,0-.12.37,1.76,1.76,0,0,1-.3.73,4.45,4.45,0,0,1-.54.61,6.53,6.53,0,0,1-.63.55,6.32,6.32,0,0,0-.59.54.67.67,0,0,1-.48.22l-.29,0a.86.86,0,0,0-.28,0,.66.66,0,0,0-.34.08,1.43,1.43,0,0,0-.24.16l-.27.16a1,1,0,0,1-.43.07.76.76,0,0,0-.38.11.7.7,0,0,1-.36.1,1.55,1.55,0,0,1-.6-.15,1.78,1.78,0,0,0-.74-.15l-.51,0a4.41,4.41,0,0,1-.52,0,1.68,1.68,0,0,1-.44-.07l-.42-.15a3.39,3.39,0,0,0-.41-.15,1.31,1.31,0,0,0-.44-.07,1.23,1.23,0,0,0-.77.23,3,3,0,0,0-.56.5,5.89,5.89,0,0,1-.5.5.83.83,0,0,1-.57.23.53.53,0,0,1-.38-.1.46.46,0,0,1-.12-.23c0-.09,0-.19,0-.29a.43.43,0,0,0-.13-.28,1.35,1.35,0,0,1-.3-.45A1.52,1.52,0,0,1,450,228a7.32,7.32,0,0,1,.13-1.41,8.22,8.22,0,0,0,.13-1.41,2.14,2.14,0,0,0-.06-.5,2.41,2.41,0,0,0-.15-.43c-.05-.13-.1-.24-.14-.33a.58.58,0,0,1-.06-.2.52.52,0,0,1,.08-.28,1.31,1.31,0,0,1,.17-.28.7.7,0,0,1,.21-.21.32.32,0,0,1,.19-.09.45.45,0,0,1,.26.08l.23.16.22.16a.61.61,0,0,0,.28.07h.09a3.35,3.35,0,0,1,.33.75c.08.27.17.53.25.78a4.86,4.86,0,0,0,.32.74,1.86,1.86,0,0,0,.53.63l.21.16.25.18a1.74,1.74,0,0,0,.26.15.53.53,0,0,0,.23.06,1.66,1.66,0,0,0,.32,0,1.84,1.84,0,0,1,.33,0c.15,0,.22,0,.22.15a.49.49,0,0,1,0,.12h.29a4.92,4.92,0,0,0,1.14-.13,5.11,5.11,0,0,1,1.16-.14,2.51,2.51,0,0,1,.55.06,1.15,1.15,0,0,1,.51.21,1.54,1.54,0,0,0,.48-.34l.39-.42a3.13,3.13,0,0,1,.44-.36,1.22,1.22,0,0,1,.61-.17.33.33,0,0,0,.09-.21c0-.08,0-.16,0-.24a.75.75,0,0,1,0-.21.37.37,0,0,1,.11-.2,1,1,0,0,0,.23-.28.63.63,0,0,0,.09-.35,1.38,1.38,0,0,0-.23-.76,2.71,2.71,0,0,0-.58-.65,4.36,4.36,0,0,0-.81-.53c-.31-.15-.62-.28-.93-.4a5.69,5.69,0,0,0-.92-.24,3.79,3.79,0,0,0-.76-.09,4.76,4.76,0,0,0-.75.07,3.1,3.1,0,0,0-.71.23.49.49,0,0,0-.15-.43,1.11,1.11,0,0,0-.37-.15,4.14,4.14,0,0,1-.43-.13.64.64,0,0,1-.33-.37,1.51,1.51,0,0,1-.64.48,2.16,2.16,0,0,1-.78.15,1.72,1.72,0,0,1-.72-.15,2.17,2.17,0,0,1-.6-.4,2.44,2.44,0,0,1-.42-.59,1.9,1.9,0,0,1-.17-.71,1.24,1.24,0,0,0-.11-.45c-.06-.13-.12-.26-.19-.38a2.58,2.58,0,0,1-.19-.37,1.13,1.13,0,0,1-.08-.47,7.2,7.2,0,0,1,.06-1.06,2.31,2.31,0,0,1,.18-.59.7.7,0,0,1,.23-.29l.26-.16a1,1,0,0,0,.26-.24,1.21,1.21,0,0,0,.2-.48.53.53,0,0,1,.13-.3.67.67,0,0,1,.32-.1.46.46,0,0,0,.25-.09.42.42,0,0,0,.09-.14,1.42,1.42,0,0,1,.05-.16.43.43,0,0,1,.15-.16,1.72,1.72,0,0,1,.62-.26,4.48,4.48,0,0,1,.64-.05h.77c.42,0,.83,0,1.24-.06s.81-.06,1.23-.06a3.94,3.94,0,0,1,.88.1,5.86,5.86,0,0,1,.7.22c.2.08.38.15.52.22a1.1,1.1,0,0,0,.36.1,1.29,1.29,0,0,0,.48-.1,1.41,1.41,0,0,1,.49-.12,1.73,1.73,0,0,0,.28.19.68.68,0,0,0,.33.09.22.22,0,0,0,.18-.08.36.36,0,0,0,.07-.2,1.26,1.26,0,0,1,.41.22,1.66,1.66,0,0,1,.35.35,1.48,1.48,0,0,1,.25.44,1.19,1.19,0,0,1,.09.44,8.29,8.29,0,0,1-.08,1.11,6.71,6.71,0,0,0-.08,1.1,3.64,3.64,0,0,0,.15,1.07,3.64,3.64,0,0,1-.46.3,1.1,1.1,0,0,0-.42.35h0l-.27-.24c-.1-.09-.21-.19-.33-.28a2.19,2.19,0,0,0-.33-.23.74.74,0,0,0-.31-.1h0a.4.4,0,0,1-.12-.1.2.2,0,0,1-.06-.15.49.49,0,0,1,.09-.28.44.44,0,0,0,.09-.27.53.53,0,0,0-.13-.21c-.09-.11-.2-.22-.31-.34s-.23-.22-.34-.31a.63.63,0,0,0-.24-.16,1.52,1.52,0,0,1-.32-.11l-.33-.15-.31-.13a.6.6,0,0,0-.23-.06,1.74,1.74,0,0,0-.39,0,1.85,1.85,0,0,1-.41.07h0l-.68-.08a4.25,4.25,0,0,1-1-.24,2.8,2.8,0,0,0-1-.18.94.94,0,0,0-.67.21,1.82,1.82,0,0,0-.34.48c-.09.17-.18.33-.27.47a.49.49,0,0,1-.45.21h-.14c.1.32.19.59.28.81a2.83,2.83,0,0,0,.31.6,2.56,2.56,0,0,0,.45.49,5.63,5.63,0,0,0,.69.51l.13.1.17.16a1.1,1.1,0,0,0,.18.14.22.22,0,0,0,.12.06,1,1,0,0,0,.49-.12,1.07,1.07,0,0,1,.49-.12.77.77,0,0,1,.34.08.69.69,0,0,0,.34.09.84.84,0,0,0,.35-.07.86.86,0,0,1,.36-.07l.16,0,.15,0a3.19,3.19,0,0,0,.91.11h.92a2,2,0,0,1,.67.12,3.51,3.51,0,0,1,.65.31,3.56,3.56,0,0,1,.59.43,4.3,4.3,0,0,1,.47.49,2.43,2.43,0,0,0,.33.38l.35.34a2.17,2.17,0,0,1,.31.37,1.3,1.3,0,0,1,.19.45c.06.2.12.42.21.66A2.14,2.14,0,0,1,463.2,224.35Z"/><path class="cls-2" d="M479.22,224.35a1.22,1.22,0,0,1-.07.38c0,.13-.1.25-.16.38s-.12.25-.17.37a1.21,1.21,0,0,0-.11.37,1.78,1.78,0,0,1-.31.73,4.45,4.45,0,0,1-.54.61,6.53,6.53,0,0,1-.63.55,6.32,6.32,0,0,0-.59.54.67.67,0,0,1-.48.22l-.29,0a.86.86,0,0,0-.28,0,.68.68,0,0,0-.34.08,1.43,1.43,0,0,0-.24.16l-.27.16a1,1,0,0,1-.43.07.76.76,0,0,0-.38.11.7.7,0,0,1-.36.1A1.46,1.46,0,0,1,473,229a1.86,1.86,0,0,0-.75-.15l-.51,0a4.36,4.36,0,0,1-.51,0,1.76,1.76,0,0,1-.45-.07l-.42-.15a2.86,2.86,0,0,0-.41-.15,1.31,1.31,0,0,0-.44-.07,1.23,1.23,0,0,0-.77.23,3,3,0,0,0-.56.5,5.89,5.89,0,0,1-.5.5.8.8,0,0,1-.56.23.55.55,0,0,1-.39-.1.46.46,0,0,1-.12-.23c0-.09,0-.19,0-.29a.43.43,0,0,0-.13-.28,1.35,1.35,0,0,1-.3-.45A1.52,1.52,0,0,1,466,228a7.32,7.32,0,0,1,.13-1.41,7.32,7.32,0,0,0,.13-1.41,2.14,2.14,0,0,0-.06-.5,3.62,3.62,0,0,0-.14-.43l-.15-.33a.58.58,0,0,1-.06-.2.63.63,0,0,1,.08-.28,1.31,1.31,0,0,1,.17-.28,1,1,0,0,1,.21-.21.35.35,0,0,1,.19-.09.45.45,0,0,1,.26.08l.23.16.22.16a.61.61,0,0,0,.28.07h.09a3.35,3.35,0,0,1,.33.75c.08.27.17.53.25.78a4.86,4.86,0,0,0,.32.74,1.86,1.86,0,0,0,.53.63l.21.16.25.18a1.74,1.74,0,0,0,.26.15.53.53,0,0,0,.23.06l.33,0a1.66,1.66,0,0,1,.32,0c.15,0,.23,0,.23.15a.49.49,0,0,1,0,.12h.28a5.07,5.07,0,0,0,1.15-.13,5,5,0,0,1,1.15-.14,2.51,2.51,0,0,1,.55.06,1.15,1.15,0,0,1,.51.21,1.54,1.54,0,0,0,.48-.34l.39-.42a3.13,3.13,0,0,1,.44-.36,1.26,1.26,0,0,1,.62-.17.39.39,0,0,0,.08-.21c0-.08,0-.16,0-.24a1.49,1.49,0,0,1,0-.21.44.44,0,0,1,.11-.2,1.23,1.23,0,0,0,.24-.28.72.72,0,0,0,.08-.35,1.38,1.38,0,0,0-.23-.76,2.71,2.71,0,0,0-.58-.65,4.05,4.05,0,0,0-.81-.53c-.31-.15-.62-.28-.93-.4a5.86,5.86,0,0,0-.91-.24,4,4,0,0,0-.77-.09,4.76,4.76,0,0,0-.75.07,3.1,3.1,0,0,0-.71.23.49.49,0,0,0-.15-.43,1,1,0,0,0-.36-.15,3.06,3.06,0,0,1-.43-.13.63.63,0,0,1-.34-.37,1.51,1.51,0,0,1-.64.48,2.16,2.16,0,0,1-.78.15,1.72,1.72,0,0,1-.72-.15,2.17,2.17,0,0,1-.6-.4,2.44,2.44,0,0,1-.42-.59,1.9,1.9,0,0,1-.17-.71,1.24,1.24,0,0,0-.11-.45c-.06-.13-.12-.26-.19-.38a2.58,2.58,0,0,1-.19-.37,1.13,1.13,0,0,1-.08-.47,7.2,7.2,0,0,1,.06-1.06,2.31,2.31,0,0,1,.18-.59.79.79,0,0,1,.23-.29l.26-.16a.84.84,0,0,0,.26-.24,1.21,1.21,0,0,0,.2-.48.53.53,0,0,1,.13-.3.67.67,0,0,1,.32-.1.46.46,0,0,0,.25-.09.42.42,0,0,0,.09-.14,1.42,1.42,0,0,1,.05-.16.43.43,0,0,1,.15-.16,1.69,1.69,0,0,1,.63-.26,4.26,4.26,0,0,1,.64-.05h.76c.42,0,.84,0,1.24-.06s.81-.06,1.23-.06a3.94,3.94,0,0,1,.88.1,5.86,5.86,0,0,1,.7.22c.21.08.38.15.52.22a1.1,1.1,0,0,0,.36.1,1.38,1.38,0,0,0,.49-.1,1.36,1.36,0,0,1,.49-.12,1.31,1.31,0,0,0,.27.19.68.68,0,0,0,.33.09.22.22,0,0,0,.18-.08.36.36,0,0,0,.07-.2,1.26,1.26,0,0,1,.41.22,1.66,1.66,0,0,1,.35.35,1.48,1.48,0,0,1,.25.44,1.19,1.19,0,0,1,.09.44,6.91,6.91,0,0,1-.08,1.11,8,8,0,0,0-.08,1.1,3.64,3.64,0,0,0,.15,1.07,3.64,3.64,0,0,1-.46.3,1.18,1.18,0,0,0-.42.35h0l-.26-.24-.33-.28a2.92,2.92,0,0,0-.34-.23.66.66,0,0,0-.3-.1h0a.34.34,0,0,1-.13-.1.2.2,0,0,1-.06-.15.58.58,0,0,1,.09-.28.39.39,0,0,0,.1-.27.62.62,0,0,0-.14-.21,4.57,4.57,0,0,0-.31-.34c-.11-.11-.23-.22-.34-.31a.63.63,0,0,0-.24-.16,1.74,1.74,0,0,1-.32-.11l-.33-.15-.3-.13a.69.69,0,0,0-.24-.06,1.74,1.74,0,0,0-.39,0,1.85,1.85,0,0,1-.41.07h0l-.68-.08a4.25,4.25,0,0,1-1-.24,2.8,2.8,0,0,0-1-.18.9.9,0,0,0-.66.21,1.85,1.85,0,0,0-.35.48c-.09.17-.18.33-.27.47a.49.49,0,0,1-.45.21h-.14c.1.32.19.59.28.81a3.38,3.38,0,0,0,.31.6,2.56,2.56,0,0,0,.45.49,5.63,5.63,0,0,0,.69.51.76.76,0,0,1,.13.1l.17.16a1.1,1.1,0,0,0,.18.14.24.24,0,0,0,.13.06,1.07,1.07,0,0,0,.49-.12,1,1,0,0,1,.48-.12.77.77,0,0,1,.34.08.69.69,0,0,0,.34.09.84.84,0,0,0,.35-.07.86.86,0,0,1,.36-.07l.16,0,.16,0a3.08,3.08,0,0,0,.9.11h.92a2,2,0,0,1,.67.12,3.51,3.51,0,0,1,.65.31,4,4,0,0,1,1.06.92,2.43,2.43,0,0,0,.33.38c.12.11.24.22.35.34a2.17,2.17,0,0,1,.31.37,1.32,1.32,0,0,1,.2.45,5.93,5.93,0,0,0,.2.66A1.87,1.87,0,0,1,479.22,224.35Z"/><path class="cls-2" d="M497.92,228.38a1.13,1.13,0,0,1-.1.49,1.18,1.18,0,0,1-.27.4,1.56,1.56,0,0,1-.4.27,1.15,1.15,0,0,1-.5.11.19.19,0,0,1-.13,0l-.11-.11a.79.79,0,0,0-.51-.26l-.62-.07a2.46,2.46,0,0,1-.62-.17,1,1,0,0,1-.48-.52.71.71,0,0,0-.25-.33.89.89,0,0,0-.42-.08,3.85,3.85,0,0,0-1.27.21c-.4.15-.8.3-1.19.48s-.79.33-1.19.47a3.87,3.87,0,0,1-1.26.21,4.37,4.37,0,0,1-.72-.06,3.37,3.37,0,0,1-.68-.22.4.4,0,0,1-.18.1.66.66,0,0,1-.21,0h-.21l-.17,0-.16.06-.19.06.09.15a.91.91,0,0,1-.4.27,5.6,5.6,0,0,1-.69.22l-.71.15a3.38,3.38,0,0,1-.53.06,1.82,1.82,0,0,1-.79-.16,1.91,1.91,0,0,1-.61-.55,2.32,2.32,0,0,0-.26-.3c-.11-.1-.21-.21-.3-.31a2,2,0,0,1-.25-.34.85.85,0,0,1-.09-.38.43.43,0,0,1,.24-.37,2.13,2.13,0,0,1,.57-.25,3.88,3.88,0,0,1,.66-.14l.51,0a3,3,0,0,1,.73.09,2.55,2.55,0,0,0,.72.1,2.18,2.18,0,0,0,.63-.09,2.18,2.18,0,0,1,.63-.09,3.56,3.56,0,0,1,.57,0,5.09,5.09,0,0,0,.56,0,2.07,2.07,0,0,0,.7-.13,3,3,0,0,0,.64-.34c.08-.49.14-1,.18-1.48s.05-1,.05-1.49a9.11,9.11,0,0,0-.12-1.47,9.08,9.08,0,0,1-.12-1.46s0-.07,0-.07l.07,0,.06,0s0,0,0-.11a2.17,2.17,0,0,0-.1-.62,2.1,2.1,0,0,1-.09-.61,2.81,2.81,0,0,1,.11-.77,2.86,2.86,0,0,0,.1-.77,1.32,1.32,0,0,0-.12-.54,1.72,1.72,0,0,0-.31-.48,1.49,1.49,0,0,0-.45-.34,1.14,1.14,0,0,0-.55-.13,2.56,2.56,0,0,0-.62.07l-.64.18-.67.17a3.31,3.31,0,0,1-.72.08,6,6,0,0,1-.85-.06l-.86-.14-.48-.06a2.78,2.78,0,0,1-.5-.11,1,1,0,0,1-.41-.22.57.57,0,0,1-.16-.44,1.37,1.37,0,0,1,.19-.8,1.15,1.15,0,0,1,.46-.42,1.83,1.83,0,0,1,.63-.16l.66-.06,1.14-.09c.37,0,.75,0,1.13,0a10.85,10.85,0,0,1,1.4.08,12.66,12.66,0,0,0,1.39.08,3,3,0,0,1,.95.15,2.1,2.1,0,0,1,1.32,1.24,2.77,2.77,0,0,1,.2,1.08,1.82,1.82,0,0,1-.18.79,2.46,2.46,0,0,1-.44.69.65.65,0,0,0,.21.26l.2.12a.5.5,0,0,1,.15.14.52.52,0,0,1,.06.3,1,1,0,0,0,0,.28.2.2,0,0,0,.2.18c0,.54,0,1.07,0,1.6s0,1.06,0,1.59,0,.9,0,1.35a8.81,8.81,0,0,0,.11,1.36,1.34,1.34,0,0,0,.24.65.8.8,0,0,0,.65.22,6,6,0,0,0,1.34-.14,6,6,0,0,1,1.34-.14,1.48,1.48,0,0,1,.74.19,7.74,7.74,0,0,1,.68.42c.22.15.42.3.63.43a1,1,0,0,0,.57.19.26.26,0,0,1,.19.08.67.67,0,0,1,.12.2.93.93,0,0,1,0,.23A1.62,1.62,0,0,1,497.92,228.38Zm-7.29-18.32a3.11,3.11,0,0,1-.14.89,2.93,2.93,0,0,1-.42.85,2.29,2.29,0,0,1-.65.63,1.51,1.51,0,0,1-.85.25,3.61,3.61,0,0,1-.78-.1,4.49,4.49,0,0,1-.9-.28,2.58,2.58,0,0,1-.74-.49,1,1,0,0,1-.31-.71,3.33,3.33,0,0,1,.09-.75,4.91,4.91,0,0,0,.09-.77.92.92,0,0,0,.3-.27c.11-.13.2-.27.3-.4a4,4,0,0,1,.28-.37.49.49,0,0,1,.3-.18l-.08,0a3,3,0,0,1,.45-.15,1.84,1.84,0,0,1,.47-.06,2.42,2.42,0,0,1,.76.15,4.48,4.48,0,0,1,.85.42,3.13,3.13,0,0,1,.7.6A1.11,1.11,0,0,1,490.63,210.06Z"/><path class="cls-2" d="M513.4,225.81a1.77,1.77,0,0,1-.13.69,2.23,2.23,0,0,1-.33.51,3.25,3.25,0,0,1-.47.43l-.53.42a2.28,2.28,0,0,1-.38.27l-.32.15-.33.12-.4.16-.51.28a4.23,4.23,0,0,1-.4.24,3,3,0,0,1-.45.17,3.61,3.61,0,0,1-.6.11c-.4,0-.81.11-1.21.18a7.16,7.16,0,0,1-1.21.11.7.7,0,0,1-.25-.05l-.3-.11-.37-.1a1.68,1.68,0,0,0-.49-.06,1.08,1.08,0,0,1-.48-.09,1.48,1.48,0,0,1-.32-.21l-.29-.26a1.44,1.44,0,0,0-.4-.25,5.83,5.83,0,0,1-1.53-1,6.66,6.66,0,0,1-1.09-1.28,7.76,7.76,0,0,1-.75-1.53,15.31,15.31,0,0,1-.51-1.74,5,5,0,0,1-.17-1.26,3.15,3.15,0,0,1,.39-1.54,2.4,2.4,0,0,1-.15-.81,3.45,3.45,0,0,1,.17-.85,7.57,7.57,0,0,1,.43-1.14,7.69,7.69,0,0,1,.57-1,1.41,1.41,0,0,1,.58-.56,1.73,1.73,0,0,0,.29-.13q.09-.06.09-.3a.39.39,0,0,1,.14-.3,1.17,1.17,0,0,1,.35-.19l.4-.14.34-.12c.37-.18.73-.33,1.06-.46a10.54,10.54,0,0,1,1-.31,7.2,7.2,0,0,1,1-.19,10.57,10.57,0,0,1,1.16-.06,2.37,2.37,0,0,1,.65.09,4.49,4.49,0,0,1,.61.23l.58.32.55.34h0a1.62,1.62,0,0,1,.43.12,1.26,1.26,0,0,0,.43.13,2.42,2.42,0,0,0,.55.49l.66.49a3.18,3.18,0,0,1,.55.55,1,1,0,0,1,.24.67.49.49,0,0,1,0,.12.78.78,0,0,1,0,.14l.06-.08a.37.37,0,0,1,.11.15,1.33,1.33,0,0,1,.1.24,1.17,1.17,0,0,1,.07.25,1.23,1.23,0,0,1,0,.21,1,1,0,0,0,.32.31.87.87,0,0,1,.33.33.53.53,0,0,0-.15.39,1.32,1.32,0,0,0,.1.51,1.25,1.25,0,0,1,.11.5,5.35,5.35,0,0,1,0,.58,5.49,5.49,0,0,0,0,.58.4.4,0,0,1-.18.35,2.22,2.22,0,0,1-.37.21l-.37.18a.29.29,0,0,0-.17.26c0,.08,0,.11-.14.11h-.23a5.36,5.36,0,0,1-1.32-.16,5.34,5.34,0,0,0-1.3-.17,9.32,9.32,0,0,0-1.4.1,11,11,0,0,1-1.4.1c-.36,0-.7,0-1.05,0l-1.05,0a3.42,3.42,0,0,0-.51.05c-.25,0-.51.08-.79.13s-.54.12-.79.2a1.86,1.86,0,0,0-.53.22,1.22,1.22,0,0,0,0,.21,3.08,3.08,0,0,0,.41,1.46,5.44,5.44,0,0,0,1.09,1.37,6.53,6.53,0,0,0,1.52,1,3.94,3.94,0,0,0,1.71.41c.33,0,.66,0,1,0a3.19,3.19,0,0,1,1,.22,3.69,3.69,0,0,0,.74-.46q.34-.25.66-.54c.21-.19.41-.38.62-.59l.61-.6a.64.64,0,0,1,.3-.11,3.44,3.44,0,0,1,.5-.09l.52-.06a2.69,2.69,0,0,1,.34,0,2,2,0,0,1,.65.1A2.71,2.71,0,0,1,513.4,225.81Zm-2.26-6.11a1.32,1.32,0,0,0-.08-.44,3.17,3.17,0,0,1-.12-.44,4.62,4.62,0,0,1-.07-.82,2.82,2.82,0,0,0-.12-.8h0a.29.29,0,0,1-.06.17.17.17,0,0,1-.16.08.73.73,0,0,1-.35-.09,1.06,1.06,0,0,1-.29-.22c-.38-.17-.72-.33-1-.49a8.18,8.18,0,0,0-.92-.39,5.76,5.76,0,0,0-1-.28,7.16,7.16,0,0,0-1.2-.09h-.11a.21.21,0,0,0-.1.06l.07.16-.12,0c-.27.05-.49.1-.67.15a1.76,1.76,0,0,0-.47.18,2.73,2.73,0,0,0-.42.3l-.52.44a.91.91,0,0,1-.32.2l-.35.13-.33.11a.61.61,0,0,0-.26.19,2.77,2.77,0,0,1-.31.73,1.56,1.56,0,0,0-.2.75.53.53,0,0,0,.19.4,1.57,1.57,0,0,0,.48.29,4.52,4.52,0,0,0,.65.21,5.42,5.42,0,0,0,.7.14l.64.07.45,0a6,6,0,0,0,1.13-.11,5.43,5.43,0,0,1,1.13-.12,11.66,11.66,0,0,1,1.18.06c.39,0,.78.05,1.17.05l.45,0a3,3,0,0,0,.6-.08,1.65,1.65,0,0,0,.51-.2A.36.36,0,0,0,511.14,219.7Z"/><path class="cls-2" d="M531.3,228.17a1.09,1.09,0,0,1-.35.84,2.42,2.42,0,0,1-.85.47,5.07,5.07,0,0,1-1,.2c-.36,0-.66,0-.92,0a3.15,3.15,0,0,1-.82-.09l-.56-.18-.42-.19a.85.85,0,0,0-.38-.09,1.43,1.43,0,0,0-.5.09,1.52,1.52,0,0,1-.51.09.6.6,0,0,1-.29-.06.72.72,0,0,1-.19-.14l-.14-.15a.25.25,0,0,0-.16-.06.21.21,0,0,0-.17.08l-.13.19a.6.6,0,0,1-.22.19.79.79,0,0,1-.41.08,3.11,3.11,0,0,1-.62-.06,2.56,2.56,0,0,0-.62-.07,1.88,1.88,0,0,0-.62.11,1.6,1.6,0,0,1-.58.11.19.19,0,0,1-.18-.08.19.19,0,0,0-.14-.08,1.31,1.31,0,0,0-.53.12,1.46,1.46,0,0,1-.57.12.92.92,0,0,1-.29,0,1.54,1.54,0,0,0-.3,0,1.19,1.19,0,0,0-.51.12,1.48,1.48,0,0,1-.63.12l-.6,0-.94-.12a7.57,7.57,0,0,1-.86-.18c-.26-.08-.39-.16-.39-.25a2.25,2.25,0,0,1,.15-.79,2.3,2.3,0,0,0,.14-.75v0a.22.22,0,0,1-.23-.21.32.32,0,0,1,.1-.1l.15-.06a.38.38,0,0,0,.13-.06.18.18,0,0,0,.06-.14V227c.4,0,.8.06,1.18.07l1.22,0c.39,0,.82,0,1.3,0a5.44,5.44,0,0,0,1.32-.22,2.61,2.61,0,0,0,1-.55,1.32,1.32,0,0,0,.41-1v-.34c-.05-1.11-.1-2.19-.16-3.26s-.08-2.16-.08-3.26a4.91,4.91,0,0,0-.07-.86,5.69,5.69,0,0,1-.07-.83,3.24,3.24,0,0,1,.19-1,2.13,2.13,0,0,1,.6-.89.17.17,0,0,0-.08-.13.33.33,0,0,0-.15,0l-.17,0a.53.53,0,0,1-.15-.05.27.27,0,0,1-.12-.21c0-.11,0-.23-.05-.36s0-.26,0-.39a.7.7,0,0,0-.1-.29,6.19,6.19,0,0,1,.15-.86,3.49,3.49,0,0,0,.1-.86,1.07,1.07,0,0,0-.27-.79l-.18-.22a.37.37,0,0,1-.09-.25.4.4,0,0,1,.08-.23h-.12a.32.32,0,0,0-.23.07,2.09,2.09,0,0,0-.14.17c0,.06-.09.12-.14.17a.32.32,0,0,1-.22.07.75.75,0,0,1-.24,0,1.69,1.69,0,0,1-.48.07,4.07,4.07,0,0,1-1-.14,3.81,3.81,0,0,0-1-.15,5.12,5.12,0,0,0-.56,0l-.54,0a3.46,3.46,0,0,1-.78-.09,1.44,1.44,0,0,1-.7-.39v-.18a1.42,1.42,0,0,1,.54-1.21,2.08,2.08,0,0,1,1.3-.4,4.06,4.06,0,0,1,1,.13,4.07,4.07,0,0,0,1,.14,3.21,3.21,0,0,0,.6-.06l.65-.14.67-.13a3.79,3.79,0,0,1,.67-.06,2.24,2.24,0,0,1,1,.21c.3.15.61.29.91.42l0,.12a.45.45,0,0,0,.07.25,1.53,1.53,0,0,0,.16.22l.16.23a.51.51,0,0,1,.06.25,1.09,1.09,0,0,1,0,.26.78.78,0,0,0,0,.26,1.53,1.53,0,0,0,.13.64,1.69,1.69,0,0,1,.12.64,2.76,2.76,0,0,1-.08.71,3.36,3.36,0,0,0-.08.71,3.69,3.69,0,0,0,.1.87,3.79,3.79,0,0,1,.11.88,2.38,2.38,0,0,1-.11.7,2.19,2.19,0,0,0-.12.7,2.08,2.08,0,0,0,.07.5c.05.17.1.33.16.49s.11.32.16.49a2.24,2.24,0,0,1,.06.52v.3a3.44,3.44,0,0,1,0,.46.89.89,0,0,1-.21.41c0,.19.11.4.16.62a2.37,2.37,0,0,1,.08.63,1.94,1.94,0,0,1,0,.33,2.05,2.05,0,0,1-.07.34,1.57,1.57,0,0,1-.15.32.78.78,0,0,1-.21.23,5.25,5.25,0,0,1,.26,1.16c0,.39.07.79.09,1.18,0,.12,0,.27.06.46s.06.38.09.57.06.36.08.51a1.89,1.89,0,0,1,0,.32,1.39,1.39,0,0,1-.09.5,1.43,1.43,0,0,0-.09.5,1,1,0,0,0,.09.41.32.32,0,0,0,.33.22.62.62,0,0,0,.31-.08l.28-.18a1.64,1.64,0,0,1,.35-.18,1.4,1.4,0,0,1,.55-.09,2.55,2.55,0,0,1,.74.11,2.55,2.55,0,0,0,.74.1,2.9,2.9,0,0,0,.58,0,5.78,5.78,0,0,0,.57-.12l.56-.13a2.88,2.88,0,0,1,.59-.06,1.56,1.56,0,0,1,1,.35A1.27,1.27,0,0,1,531.3,228.17Zm-8.64-18.74-.14-.12a.33.33,0,0,0-.19-.06.16.16,0,0,0-.13.06.23.23,0,0,0-.05.15l.07.18.09,0a.29.29,0,0,0,.21-.09Zm.9,4.18a.5.5,0,0,0-.07-.25.21.21,0,0,0-.21-.12h-.1l-.08,0v.65a.46.46,0,0,0,.18.06.21.21,0,0,0,.21-.13A.47.47,0,0,0,523.56,213.61Z"/><path class="cls-2" d="M558.83,228.31a.81.81,0,0,1-.1.39.34.34,0,0,1-.32.2,1.55,1.55,0,0,1-.31,0,.91.91,0,0,0-.3,0q-.24,0-.24.09a1.77,1.77,0,0,1,0,.2c0,.08-.09.15-.22.21a2.21,2.21,0,0,1-.79.09,4,4,0,0,1-.69-.06,3.82,3.82,0,0,0-.68-.06,2.32,2.32,0,0,0-.56.07.87.87,0,0,0-.26-.22l-.27-.16a.85.85,0,0,1-.22-.2.63.63,0,0,1-.09-.37c0-.11-.07-.16-.21-.16h-.15l-.14,0a.2.2,0,0,1-.13,0,.13.13,0,0,1-.05-.11.08.08,0,0,1,0,0,.64.64,0,0,0-.49.21l-.36.41a.86.86,0,0,1-.28.2,2,2,0,0,1-.31.12l-.33.13a1.2,1.2,0,0,0-.34.23.86.86,0,0,1-.45.2,6.69,6.69,0,0,1-.67.11c-.24,0-.47,0-.7,0h-.53a2.84,2.84,0,0,1-.73-.08,2.91,2.91,0,0,1-.5-.18l-.46-.25a4,4,0,0,0-.62-.24,4.31,4.31,0,0,1-1-.46,7.43,7.43,0,0,1-1.1-.76,5.52,5.52,0,0,1-.88-.94,1.7,1.7,0,0,1-.36-1,.92.92,0,0,0-.1-.42,2,2,0,0,0-.24-.43l-.29-.4a3,3,0,0,1-.24-.39,3.64,3.64,0,0,1-.37-1.2,8.93,8.93,0,0,1-.08-1.27,6.77,6.77,0,0,1,.09-1.12c.06-.35.13-.71.22-1.05s.19-.69.28-1,.18-.7.27-1.07a1.43,1.43,0,0,1,.52-.95,3.65,3.65,0,0,1,.37-.29,2.11,2.11,0,0,0,.42-.39.54.54,0,0,0,.11-.19,1,1,0,0,1,0-.13.18.18,0,0,1,.09-.08l.27,0a.22.22,0,0,0,.19-.08,1.4,1.4,0,0,0,.12-.18l.12-.22a.39.39,0,0,1,.14-.17.61.61,0,0,1,.23-.09l.28,0,.29,0a1.07,1.07,0,0,0,.27-.06l.52-.24a2.33,2.33,0,0,1,.39-.19,1.67,1.67,0,0,1,.43-.13,3.48,3.48,0,0,1,.63-.05,4.46,4.46,0,0,1,1,.13l1,.28,1,.28a4.34,4.34,0,0,0,1,.13,1.13,1.13,0,0,0,.67-.18,1.14,1.14,0,0,0,.37-.47,2.09,2.09,0,0,0,.17-.63c0-.23,0-.46,0-.68a9.2,9.2,0,0,0-.08-1.17c0-.38-.08-.77-.1-1.15l-.14.06a.5.5,0,0,1-.27-.08l-.23-.18a1.24,1.24,0,0,0-.22-.18A.44.44,0,0,0,552,210q-.16,0-.21.09a.71.71,0,0,1-.15.15l-.34,0h-1a1.16,1.16,0,0,1-.47-.12,3.08,3.08,0,0,1-.5-.33,2,2,0,0,1-.4-.44.8.8,0,0,1-.16-.46.76.76,0,0,1,.13-.41,1.72,1.72,0,0,1,.31-.4,2,2,0,0,1,.42-.3,1,1,0,0,1,.43-.11.71.71,0,0,1,.37.1.75.75,0,0,0,.36.1,2,2,0,0,0,.64-.11,2,2,0,0,1,.65-.11,1.84,1.84,0,0,1,.66.12,2,2,0,0,0,.65.11h.52l.52,0a3.51,3.51,0,0,1,.55.05,1.53,1.53,0,0,1,.52.18v.09a1.84,1.84,0,0,0,0,.41l.12.41a3,3,0,0,1,.12.4,1.34,1.34,0,0,1,.06.4,1.18,1.18,0,0,1-.13.52,1.13,1.13,0,0,0-.13.54,4.55,4.55,0,0,0,.12,1,4.7,4.7,0,0,1,.12,1c0,.88,0,1.76,0,2.64s0,1.77,0,2.66,0,1.8-.09,2.69-.09,1.78-.09,2.69c0,.33,0,.7.05,1.12a4.42,4.42,0,0,0,.24,1.17,2.34,2.34,0,0,0,.58.93,1.45,1.45,0,0,0,1.06.38,1.09,1.09,0,0,0,.26,0l.27,0a.67.67,0,0,1,.34.1,1.1,1.1,0,0,1,.41.64A1.23,1.23,0,0,1,558.83,228.31Zm-5.47-7.47a7.25,7.25,0,0,0-.1-1.19,4.59,4.59,0,0,0-.34-1.18,2.67,2.67,0,0,0-.68-.93,1.7,1.7,0,0,0-1.08-.4.92.92,0,0,1-.32-.12l-.38-.23-.39-.22a.81.81,0,0,0-.34-.1.54.54,0,0,0-.25.06,1.34,1.34,0,0,0-.24.12l-.24.12a.87.87,0,0,1-.28,0,3.91,3.91,0,0,1-.49,0,3.64,3.64,0,0,0-.48,0,2.25,2.25,0,0,0-1.37.45,4.46,4.46,0,0,0-1,1.12,5.49,5.49,0,0,0-.68,1.45,4.85,4.85,0,0,0-.24,1.42,3.27,3.27,0,0,0,0,.54,4.93,4.93,0,0,1,0,.55.41.41,0,0,1-.1.29l-.22.23a1.31,1.31,0,0,0-.23.24.49.49,0,0,0-.09.3H544a1.08,1.08,0,0,1,.61.15,1,1,0,0,1,.33.37,3.42,3.42,0,0,1,.18.54,5,5,0,0,0,.16.61,2.21,2.21,0,0,0,.26.59,1.64,1.64,0,0,0,.5.52l.54.36a5.3,5.3,0,0,0,.62.36,5.92,5.92,0,0,0,.64.28,2.09,2.09,0,0,0,.63.11,3.41,3.41,0,0,0,.95-.14,3,3,0,0,1,1-.15,1.89,1.89,0,0,1,.39.05,7.12,7.12,0,0,1,.8-1,2.46,2.46,0,0,1,1.12-.69V225a4.51,4.51,0,0,1,.11-1c.08-.32.16-.64.25-1s.17-.67.25-1A5.8,5.8,0,0,0,553.36,220.84Z"/><path class="cls-2" d="M574.47,225.81a1.78,1.78,0,0,1-.12.69,2,2,0,0,1-.34.51,3.16,3.16,0,0,1-.46.43l-.54.42a2.26,2.26,0,0,1-.37.27,2.41,2.41,0,0,1-.33.15l-.33.12-.4.16-.5.28a4.36,4.36,0,0,1-.41.24,2.52,2.52,0,0,1-.44.17,3.56,3.56,0,0,1-.61.11l-1.21.18a7.07,7.07,0,0,1-1.21.11.79.79,0,0,1-.25-.05l-.29-.11-.37-.1a1.77,1.77,0,0,0-.49-.06,1.08,1.08,0,0,1-.48-.09A1.85,1.85,0,0,1,565,229l-.29-.26a1.25,1.25,0,0,0-.39-.25,5.89,5.89,0,0,1-1.54-1,6.27,6.27,0,0,1-1.08-1.28,7.76,7.76,0,0,1-.75-1.53,13.52,13.52,0,0,1-.52-1.74,5,5,0,0,1-.16-1.26,3.15,3.15,0,0,1,.39-1.54,2.4,2.4,0,0,1-.15-.81,3,3,0,0,1,.17-.85,8.75,8.75,0,0,1,.42-1.14,7.71,7.71,0,0,1,.58-1,1.36,1.36,0,0,1,.58-.56,2.24,2.24,0,0,0,.29-.13c.06,0,.08-.14.08-.3a.37.37,0,0,1,.15-.3,1.11,1.11,0,0,1,.34-.19l.41-.14.34-.12c.37-.18.72-.33,1.06-.46a9.74,9.74,0,0,1,1-.31,6.84,6.84,0,0,1,1-.19,10.71,10.71,0,0,1,1.16-.06,2.37,2.37,0,0,1,.65.09,4,4,0,0,1,.61.23,6.55,6.55,0,0,1,.58.32l.56.34h0a1.52,1.52,0,0,1,.43.12,1.33,1.33,0,0,0,.43.13,2.42,2.42,0,0,0,.55.49c.23.16.45.32.66.49a3.25,3.25,0,0,1,.56.55,1,1,0,0,1,.23.67v.12l0,.14.06-.08a.49.49,0,0,1,.12.15q0,.1.09.24a2.41,2.41,0,0,1,.08.25c0,.09,0,.15,0,.21a.87.87,0,0,0,.32.31.92.92,0,0,1,.32.33.53.53,0,0,0-.15.39,1.34,1.34,0,0,0,.11.51,1.24,1.24,0,0,1,.1.5,5.35,5.35,0,0,1,0,.58,5.49,5.49,0,0,0,0,.58.41.41,0,0,1-.17.35,2.32,2.32,0,0,1-.38.21l-.37.18a.28.28,0,0,0-.16.26c0,.08,0,.11-.14.11h-.24a5.42,5.42,0,0,1-1.32-.16,5.27,5.27,0,0,0-1.3-.17,9.32,9.32,0,0,0-1.4.1,10.85,10.85,0,0,1-1.4.1q-.53,0-1,0c-.34,0-.69,0-1,0a3.42,3.42,0,0,0-.51.05c-.26,0-.52.08-.79.13s-.54.12-.8.2a1.77,1.77,0,0,0-.52.22,1.06,1.06,0,0,0,0,.21,3,3,0,0,0,.42,1.46,5.22,5.22,0,0,0,1.09,1.37,6.32,6.32,0,0,0,1.52,1,3.9,3.9,0,0,0,1.7.41c.33,0,.66,0,1,0a3.2,3.2,0,0,1,1,.22,3.76,3.76,0,0,0,.75-.46c.23-.17.44-.35.65-.54s.42-.38.62-.59l.62-.6a.63.63,0,0,1,.29-.11,3.86,3.86,0,0,1,.51-.09l.52-.06a2.61,2.61,0,0,1,.34,0,1.91,1.91,0,0,1,.64.1A2.71,2.71,0,0,1,574.47,225.81Zm-2.26-6.11a1.31,1.31,0,0,0-.07-.44,3.17,3.17,0,0,1-.12-.44,4.65,4.65,0,0,1-.08-.82,2.82,2.82,0,0,0-.12-.8h0a.29.29,0,0,1-.06.17.19.19,0,0,1-.17.08.69.69,0,0,1-.34-.09,1.06,1.06,0,0,1-.29-.22c-.38-.17-.73-.33-1-.49a9,9,0,0,0-.92-.39,5.87,5.87,0,0,0-1-.28,7.07,7.07,0,0,0-1.2-.09h-.11a.27.27,0,0,0-.1.06l.08.16-.12,0c-.27.05-.5.1-.67.15a1.71,1.71,0,0,0-.48.18,2.26,2.26,0,0,0-.41.3l-.52.44a1,1,0,0,1-.32.2l-.35.13-.33.11a.64.64,0,0,0-.27.19,3.12,3.12,0,0,1-.3.73,1.47,1.47,0,0,0-.21.75.56.56,0,0,0,.19.4,1.86,1.86,0,0,0,.48.29,5,5,0,0,0,.65.21,6.19,6.19,0,0,0,.7.14l.64.07.46,0a6.1,6.1,0,0,0,1.13-.11,5.35,5.35,0,0,1,1.13-.12,11.46,11.46,0,0,1,1.17.06c.39,0,.79.05,1.18.05l.45,0a2.89,2.89,0,0,0,.59-.08,1.61,1.61,0,0,0,.52-.2A.37.37,0,0,0,572.21,219.7Z"/><path class="cls-2" d="M601.41,228.17a1.09,1.09,0,0,1-.35.84,2.42,2.42,0,0,1-.85.47,5.07,5.07,0,0,1-1,.2c-.36,0-.66,0-.92,0a3.15,3.15,0,0,1-.82-.09l-.56-.18-.42-.19a.85.85,0,0,0-.38-.09,1.43,1.43,0,0,0-.5.09,1.52,1.52,0,0,1-.51.09.6.6,0,0,1-.29-.06.72.72,0,0,1-.19-.14l-.14-.15a.25.25,0,0,0-.16-.06.21.21,0,0,0-.17.08l-.13.19a.69.69,0,0,1-.22.19.8.8,0,0,1-.42.08,3.08,3.08,0,0,1-.61-.06,2.56,2.56,0,0,0-.62-.07,1.88,1.88,0,0,0-.62.11,1.6,1.6,0,0,1-.58.11.21.21,0,0,1-.19-.08.17.17,0,0,0-.13-.08,1.39,1.39,0,0,0-.54.12,1.38,1.38,0,0,1-.56.12.92.92,0,0,1-.29,0,1.54,1.54,0,0,0-.3,0,1.19,1.19,0,0,0-.51.12,1.48,1.48,0,0,1-.63.12l-.6,0-.94-.12a7.57,7.57,0,0,1-.86-.18c-.26-.08-.39-.16-.39-.25a2.25,2.25,0,0,1,.15-.79,2.3,2.3,0,0,0,.14-.75v0a.22.22,0,0,1-.23-.21.32.32,0,0,1,.1-.1l.14-.06a.35.35,0,0,0,.14-.06.18.18,0,0,0,.06-.14V227c.4,0,.8.06,1.18.07l1.21,0c.4,0,.83,0,1.31,0a5.44,5.44,0,0,0,1.32-.22,2.61,2.61,0,0,0,1-.55,1.32,1.32,0,0,0,.41-1v-.34c-.05-1.11-.1-2.19-.16-3.26s-.08-2.16-.08-3.26a4.91,4.91,0,0,0-.07-.86,5.69,5.69,0,0,1-.07-.83,3.24,3.24,0,0,1,.19-1,2.13,2.13,0,0,1,.6-.89.17.17,0,0,0-.08-.13.33.33,0,0,0-.15,0l-.17,0-.15-.05a.27.27,0,0,1-.12-.21c0-.11,0-.23,0-.36s0-.26,0-.39a.7.7,0,0,0-.1-.29,6.19,6.19,0,0,1,.15-.86,3.49,3.49,0,0,0,.1-.86,1.07,1.07,0,0,0-.27-.79l-.19-.22a.41.41,0,0,1-.08-.25.4.4,0,0,1,.08-.23h-.12a.32.32,0,0,0-.23.07,2.09,2.09,0,0,0-.14.17l-.15.17a.28.28,0,0,1-.21.07.75.75,0,0,1-.24,0,1.69,1.69,0,0,1-.48.07,4.21,4.21,0,0,1-1.05-.14,3.68,3.68,0,0,0-1-.15,5.12,5.12,0,0,0-.56,0l-.54,0a3.46,3.46,0,0,1-.78-.09,1.4,1.4,0,0,1-.7-.39v-.18a1.42,1.42,0,0,1,.54-1.21,2.08,2.08,0,0,1,1.3-.4,4.06,4.06,0,0,1,1,.13,4.07,4.07,0,0,0,1,.14,3.21,3.21,0,0,0,.6-.06l.65-.14.67-.13a3.79,3.79,0,0,1,.67-.06,2.24,2.24,0,0,1,1,.21c.3.15.6.29.91.42l0,.12a.45.45,0,0,0,.07.25,1.53,1.53,0,0,0,.16.22,1.5,1.5,0,0,1,.15.23.43.43,0,0,1,.07.25.75.75,0,0,1,0,.26,1.15,1.15,0,0,0,0,.26,1.69,1.69,0,0,0,.12.64,1.53,1.53,0,0,1,.13.64,2.76,2.76,0,0,1-.08.71,2.81,2.81,0,0,0-.08.71,3.69,3.69,0,0,0,.1.87,3.79,3.79,0,0,1,.11.88,2.38,2.38,0,0,1-.11.7,2.19,2.19,0,0,0-.12.7,1.68,1.68,0,0,0,.07.5c.05.17.1.33.16.49s.11.32.16.49a2.24,2.24,0,0,1,.06.52v.3a3.44,3.44,0,0,1,0,.46.89.89,0,0,1-.21.41c.05.19.11.4.16.62a2.37,2.37,0,0,1,.08.63,1.94,1.94,0,0,1,0,.33,2.05,2.05,0,0,1-.07.34,1.57,1.57,0,0,1-.15.32.78.78,0,0,1-.21.23,5.25,5.25,0,0,1,.26,1.16c0,.39.07.79.09,1.18,0,.12,0,.27.06.46s.06.38.09.57.06.36.08.51a1.89,1.89,0,0,1,0,.32,1.39,1.39,0,0,1-.09.5,1.43,1.43,0,0,0-.09.5,1,1,0,0,0,.09.41.32.32,0,0,0,.33.22.62.62,0,0,0,.31-.08l.28-.18a1.64,1.64,0,0,1,.35-.18,1.4,1.4,0,0,1,.55-.09,2.55,2.55,0,0,1,.74.11,2.55,2.55,0,0,0,.74.1,2.9,2.9,0,0,0,.58,0,5.78,5.78,0,0,0,.57-.12l.56-.13a2.88,2.88,0,0,1,.59-.06,1.56,1.56,0,0,1,1,.35A1.27,1.27,0,0,1,601.41,228.17Zm-8.64-18.74-.15-.12a.28.28,0,0,0-.18-.06.16.16,0,0,0-.13.06.23.23,0,0,0,0,.15l.07.18.09,0a.25.25,0,0,0,.2-.09A1.06,1.06,0,0,0,592.77,209.43Zm.9,4.18a.5.5,0,0,0-.07-.25.21.21,0,0,0-.21-.12h-.1l-.09,0v.65a.49.49,0,0,0,.19.06.21.21,0,0,0,.21-.13A.47.47,0,0,0,593.67,213.61Z"/><path class="cls-2" d="M618.79,226.32a1.28,1.28,0,0,1-.09.48c-.06.15-.12.31-.17.47a2.34,2.34,0,0,0-.08.35,1.25,1.25,0,0,1-.07.23.49.49,0,0,1-.14.18,1.55,1.55,0,0,1-.31.19l-1,.49a2.32,2.32,0,0,1-1,.25,1.67,1.67,0,0,1-.82-.21,3.9,3.9,0,0,1-.71-.45c-.22-.16-.41-.32-.59-.46a.76.76,0,0,0-.44-.21.55.55,0,0,0-.34.11l-.29.22a2.49,2.49,0,0,1-.31.23.83.83,0,0,1-.43.1,1.41,1.41,0,0,0-.44.08l-.45.17-.46.2-.43.16a6.41,6.41,0,0,1-1.36.21l-1.38,0H607a5,5,0,0,1-.76-.08,2.35,2.35,0,0,1-.68-.21.47.47,0,0,1-.29-.43.3.3,0,0,1,0-.1.79.79,0,0,1-.25.19.52.52,0,0,1-.3.08.94.94,0,0,1-.58-.33,5.7,5.7,0,0,1-.67-.77,6.86,6.86,0,0,1-.54-.87,1.51,1.51,0,0,1-.22-.63.54.54,0,0,1,.09-.31.47.47,0,0,0,.1-.3,1.75,1.75,0,0,0,0-.4,1.25,1.25,0,0,1-.05-.4,1.81,1.81,0,0,1,.1-.58,5.32,5.32,0,0,1,.26-.61c.1-.21.2-.41.31-.61l.3-.54a1.29,1.29,0,0,1,.43-.49,3.91,3.91,0,0,1,.57-.31l.6-.27a1.77,1.77,0,0,0,.53-.36.74.74,0,0,0,.59.25,2.58,2.58,0,0,0,.73-.11,2.33,2.33,0,0,1,.74-.11,2.78,2.78,0,0,1,.58.06,2.78,2.78,0,0,0,.58.06,1,1,0,0,0,.49-.09,2.12,2.12,0,0,0,.4-.29,1.54,1.54,0,0,1,.61-.32,5.78,5.78,0,0,1,.77-.19l.79-.14a2.9,2.9,0,0,0,.72-.22,1.25,1.25,0,0,0,.51-.39,1.06,1.06,0,0,0,.2-.68,2.31,2.31,0,0,0-.28-1,4,4,0,0,0-.72-1,4.2,4.2,0,0,0-1-.73,2.12,2.12,0,0,0-1-.28h-.12l-.1,0c-.25,0-.52.06-.82.08a3.69,3.69,0,0,0-.84.13,1.55,1.55,0,0,0-.66.38,1,1,0,0,0-.27.78,2.94,2.94,0,0,0,.05.59,3.94,3.94,0,0,1,0,.6,1.21,1.21,0,0,1-.22.75,1.59,1.59,0,0,1-.55.48,2.65,2.65,0,0,1-.75.25,5.38,5.38,0,0,1-.78.07,2.34,2.34,0,0,1-.79-.12,1,1,0,0,1-.54-.56c-.11-.21-.23-.44-.35-.69a1.54,1.54,0,0,1-.19-.74,2.1,2.1,0,0,1,.14-.76c.1-.24.21-.47.33-.7l.35-.67a2.63,2.63,0,0,0,.25-.73,1.7,1.7,0,0,1,.29-.12l.41-.12.42-.12.34-.09c.24-.07.47-.16.7-.25s.46-.19.69-.27.47-.15.71-.21a3.57,3.57,0,0,1,.73-.1l.47,0a8.6,8.6,0,0,1,1.32.11,7.69,7.69,0,0,1,1.33.36,7.24,7.24,0,0,1,1.22.59,5,5,0,0,1,1,.84,3.19,3.19,0,0,1,.55.85,5.92,5.92,0,0,1,.34,1,6.88,6.88,0,0,1,.18,1.09,9.55,9.55,0,0,1,.06,1c0,.42,0,.84,0,1.24s0,.82,0,1.24a9.55,9.55,0,0,0,.07,1.2c0,.4.1.79.16,1.19s.11.79.15,1.19a9.45,9.45,0,0,1,.07,1.18,1,1,0,0,0,.1.45.19.19,0,0,0,.14.08.77.77,0,0,0,.54-.2,3.38,3.38,0,0,0,.37-.46,3.94,3.94,0,0,1,.36-.45.64.64,0,0,1,.49-.22l.28,0a.77.77,0,0,1,.27.07.43.43,0,0,1,.27.41Zm-5-3.75v-.31c0-.16,0-.31,0-.46a1.62,1.62,0,0,0-.1-.42c0-.12-.11-.18-.2-.18l-.08,0-.07,0-1,.52a6.89,6.89,0,0,1-.81.33,4.41,4.41,0,0,1-.85.17c-.3,0-.68,0-1.13,0a3.69,3.69,0,0,0-.49.07l-.89.17-.91.2-.52.13a.87.87,0,0,0-.28.15.48.48,0,0,0-.13.16l-.09.19a.63.63,0,0,1-.17.21,1.29,1.29,0,0,1-.32.19,1,1,0,0,0-.32.23,2.91,2.91,0,0,0-.43.59,1.51,1.51,0,0,0-.19.7,1.32,1.32,0,0,0,.21.73,1.93,1.93,0,0,0,.56.54,4.06,4.06,0,0,0,.78.39,7.32,7.32,0,0,0,.88.26c.3.05.58.1.86.13a6.72,6.72,0,0,0,.71,0,7.18,7.18,0,0,0,.86-.06,9,9,0,0,0,1-.16,5.34,5.34,0,0,0,.93-.31,1.92,1.92,0,0,0,.69-.5.86.86,0,0,0,.15-.22l.1-.19.12-.21a1.13,1.13,0,0,1,.22-.22,2.07,2.07,0,0,0,.53-.63,2.82,2.82,0,0,0,.28-.73,4,4,0,0,0,.11-.78C613.83,223.13,613.83,222.85,613.83,222.57Z"/><path class="cls-2" d="M645.41,218a1,1,0,0,1-.12.52c-.08.14-.17.27-.26.4s-.19.25-.29.38a1,1,0,0,0-.19.47.9.9,0,0,0-.28-.08H644a4.36,4.36,0,0,0-.72.05,5.36,5.36,0,0,1-.7.05.93.93,0,0,1-.67-.25,1.94,1.94,0,0,1-.42-.61,3.25,3.25,0,0,1-.22-.77,5.36,5.36,0,0,1-.06-.75,3,3,0,0,1,.14-.86.59.59,0,0,0-.21,0,.31.31,0,0,0-.28.12.27.27,0,0,1-.23.12.33.33,0,0,1-.24-.1.4.4,0,0,0-.26-.1,1.42,1.42,0,0,0-.56.15,2.71,2.71,0,0,0-.66.37,3.26,3.26,0,0,0-.55.49.73.73,0,0,0-.23.5,1.79,1.79,0,0,0-.6.17c-.18.1-.36.2-.53.31a1,1,0,0,0-.33.38,4,4,0,0,0-.25.55c-.08.19-.15.39-.23.59a1.8,1.8,0,0,1-.26.5,5.61,5.61,0,0,0-.45.67,1.58,1.58,0,0,0-.18.76,3.65,3.65,0,0,0,.16,1.07,3.77,3.77,0,0,1,.17,1.1,5.81,5.81,0,0,1-.05.72,4.34,4.34,0,0,0-.06.71,1.34,1.34,0,0,0,.15.68,1,1,0,0,0,.41.39,1.58,1.58,0,0,0,.59.19,4.91,4.91,0,0,0,.67,0l.73,0,.66,0a.47.47,0,0,1,.12.23.55.55,0,0,1,0,.22.9.9,0,0,1-.06.22,1.1,1.1,0,0,0,0,.27.49.49,0,0,0,0,.15.75.75,0,0,0,.4-.11.6.6,0,0,0,.24-.33.51.51,0,0,1,.18.09.2.2,0,0,1,.09.18.41.41,0,0,1,0,.18l-.1.15-.11.16a.41.41,0,0,0,0,.19.62.62,0,0,0,0,.13.37.37,0,0,0,0,.11.39.39,0,0,1-.21.17.86.86,0,0,1-.28,0,.88.88,0,0,1-.39-.07,2,2,0,0,1-.29-.17l-.23-.17a.44.44,0,0,0-.26-.07l-.18,0a1.13,1.13,0,0,0-.24.08.53.53,0,0,0-.21.11.17.17,0,0,0-.09.13.32.32,0,0,0,.08.21.28.28,0,0,1,.08.21.19.19,0,0,1-.07.16.51.51,0,0,1-.18.09l-.22,0h-.19a5.81,5.81,0,0,1-1.17-.12,5,5,0,0,0-1.16-.13,1.4,1.4,0,0,0-.55.12,1.39,1.39,0,0,1-.57.12.37.37,0,0,1-.25-.07.73.73,0,0,1-.14-.16,1,1,0,0,0-.13-.16.37.37,0,0,0-.23-.06,2.76,2.76,0,0,0-.57.06l-.55.13-.56.12a3.53,3.53,0,0,1-.56,0,1.87,1.87,0,0,1-.37,0,1.44,1.44,0,0,1-.4-.13,1.12,1.12,0,0,1-.33-.22.45.45,0,0,1-.14-.33.64.64,0,0,1,.14-.32,3.9,3.9,0,0,1,.33-.38,2.7,2.7,0,0,1,.36-.33.53.53,0,0,1,.27-.13h.47l.49,0a2.87,2.87,0,0,0,.82-.13,2.82,2.82,0,0,0,.76-.37,2,2,0,0,0,.55-.6,1.61,1.61,0,0,0,.21-.82,2.43,2.43,0,0,0,0-.38,2.43,2.43,0,0,1,0-.38,3.48,3.48,0,0,1,.09-.79,3.46,3.46,0,0,0,.09-.78,5.82,5.82,0,0,0-.11-1.08,5.08,5.08,0,0,1-.12-1.1c0-.34,0-.66,0-1s0-.65,0-1c0-.15,0-.37,0-.66a6.42,6.42,0,0,0-.09-.87,3.16,3.16,0,0,0-.26-.77.53.53,0,0,0-.48-.33,3,3,0,0,0-.66.07,3,3,0,0,1-.67.08,4.66,4.66,0,0,1-.61,0,2.44,2.44,0,0,1-.66-.15,1.46,1.46,0,0,1-.54-.32.74.74,0,0,1-.23-.56,1.51,1.51,0,0,1,.11-.61.77.77,0,0,1,.28-.35,1,1,0,0,1,.4-.17,2.78,2.78,0,0,1,.51,0h.49l.5,0a7.73,7.73,0,0,0,1-.06c.31,0,.63-.05.95-.05l.67,0a2.82,2.82,0,0,1,.64.14.7.7,0,0,1,.42.33,4,4,0,0,1,.25.51,2.93,2.93,0,0,0,.27.46.62.62,0,0,0,.76.12l.25-.19.24-.2a.65.65,0,0,1,.28-.12,1.58,1.58,0,0,0,.61-.21l.55-.33c.18-.11.37-.21.55-.3a1.39,1.39,0,0,1,.61-.13,3.52,3.52,0,0,0,.49-.05,4.16,4.16,0,0,0,.59-.13,3.73,3.73,0,0,0,.56-.2,1.46,1.46,0,0,0,.41-.27,4.61,4.61,0,0,1,1,.19,5.36,5.36,0,0,1,1.05.45,3.65,3.65,0,0,1,.88.65,1.47,1.47,0,0,1,.44.85,2,2,0,0,0,.16.54c.08.17.17.34.25.5s.16.34.23.51A1.5,1.5,0,0,1,645.41,218Z"/><path class="cls-2" d="M663.12,226.32a1.28,1.28,0,0,1-.09.48c-.06.15-.12.31-.17.47a2.34,2.34,0,0,0-.08.35,1.25,1.25,0,0,1-.07.23.49.49,0,0,1-.14.18,1.55,1.55,0,0,1-.31.19l-1,.49a2.32,2.32,0,0,1-1,.25,1.67,1.67,0,0,1-.82-.21,3.9,3.9,0,0,1-.71-.45c-.22-.16-.41-.32-.59-.46a.76.76,0,0,0-.44-.21.55.55,0,0,0-.34.11l-.29.22a2.49,2.49,0,0,1-.31.23.83.83,0,0,1-.43.1,1.41,1.41,0,0,0-.44.08l-.45.17-.46.2-.43.16a6.41,6.41,0,0,1-1.36.21l-1.38,0h-.56a5,5,0,0,1-.76-.08,2.35,2.35,0,0,1-.68-.21.47.47,0,0,1-.29-.43.3.3,0,0,1,0-.1.79.79,0,0,1-.25.19.52.52,0,0,1-.3.08.94.94,0,0,1-.58-.33,5.7,5.7,0,0,1-.67-.77,6.86,6.86,0,0,1-.54-.87A1.51,1.51,0,0,1,647,226a.54.54,0,0,1,.09-.31.47.47,0,0,0,.1-.3,1.75,1.75,0,0,0-.05-.4,1.25,1.25,0,0,1,0-.4,1.81,1.81,0,0,1,.1-.58,5.32,5.32,0,0,1,.26-.61c.1-.21.2-.41.31-.61l.3-.54a1.29,1.29,0,0,1,.43-.49,3.91,3.91,0,0,1,.57-.31l.6-.27a1.77,1.77,0,0,0,.53-.36.74.74,0,0,0,.59.25,2.58,2.58,0,0,0,.73-.11,2.33,2.33,0,0,1,.74-.11,2.78,2.78,0,0,1,.58.06,2.78,2.78,0,0,0,.58.06,1,1,0,0,0,.49-.09,1.84,1.84,0,0,0,.4-.29,1.54,1.54,0,0,1,.61-.32,5.78,5.78,0,0,1,.77-.19l.79-.14a2.9,2.9,0,0,0,.72-.22,1.25,1.25,0,0,0,.51-.39,1.06,1.06,0,0,0,.2-.68,2.31,2.31,0,0,0-.28-1,4,4,0,0,0-.72-1,4.2,4.2,0,0,0-1-.73,2.12,2.12,0,0,0-1-.28h-.12l-.1,0c-.25,0-.52.06-.82.08a3.69,3.69,0,0,0-.84.13,1.55,1.55,0,0,0-.66.38,1,1,0,0,0-.27.78,2.94,2.94,0,0,0,0,.59,3.94,3.94,0,0,1,.05.6,1.21,1.21,0,0,1-.22.75,1.59,1.59,0,0,1-.55.48,2.65,2.65,0,0,1-.75.25,5.38,5.38,0,0,1-.78.07,2.34,2.34,0,0,1-.79-.12,1,1,0,0,1-.54-.56c-.11-.21-.23-.44-.35-.69a1.54,1.54,0,0,1-.19-.74,2.1,2.1,0,0,1,.14-.76c.1-.24.21-.47.33-.7l.35-.67a2.63,2.63,0,0,0,.25-.73,1.7,1.7,0,0,1,.29-.12l.41-.12.42-.12.34-.09c.24-.07.47-.16.7-.25l.69-.27c.24-.08.47-.15.71-.21a3.57,3.57,0,0,1,.73-.1l.47,0a8.6,8.6,0,0,1,1.32.11,7.51,7.51,0,0,1,2.56,1,5.25,5.25,0,0,1,1,.84,3.19,3.19,0,0,1,.55.85,5.92,5.92,0,0,1,.34,1,6.88,6.88,0,0,1,.18,1.09,9.55,9.55,0,0,1,.06,1c0,.42,0,.84,0,1.24s0,.82,0,1.24a9.55,9.55,0,0,0,.07,1.2c0,.4.1.79.16,1.19s.11.79.15,1.19a9.45,9.45,0,0,1,.07,1.18,1,1,0,0,0,.1.45.19.19,0,0,0,.14.08.77.77,0,0,0,.54-.2,3.38,3.38,0,0,0,.37-.46,3.94,3.94,0,0,1,.36-.45.65.65,0,0,1,.5-.22l.27,0a.77.77,0,0,1,.27.07.43.43,0,0,1,.27.41Zm-5-3.75v-.31c0-.16,0-.31,0-.46a1.62,1.62,0,0,0-.1-.42c0-.12-.11-.18-.2-.18l-.08,0-.07,0-1,.52a6.89,6.89,0,0,1-.81.33,4.41,4.41,0,0,1-.85.17c-.3,0-.68,0-1.13,0a3.69,3.69,0,0,0-.49.07l-.89.17-.91.2-.52.13a.87.87,0,0,0-.28.15.48.48,0,0,0-.13.16l-.09.19a.63.63,0,0,1-.17.21,1.29,1.29,0,0,1-.32.19,1,1,0,0,0-.32.23,2.91,2.91,0,0,0-.43.59,1.51,1.51,0,0,0-.19.7,1.32,1.32,0,0,0,.21.73,1.93,1.93,0,0,0,.56.54,4.06,4.06,0,0,0,.78.39,7.32,7.32,0,0,0,.88.26c.3.05.58.1.86.13a6.72,6.72,0,0,0,.71,0,7.18,7.18,0,0,0,.86-.06,9,9,0,0,0,1-.16,5.34,5.34,0,0,0,.93-.31,1.92,1.92,0,0,0,.69-.5.86.86,0,0,0,.15-.22l.1-.19.12-.21a1.13,1.13,0,0,1,.22-.22,2.27,2.27,0,0,0,.54-.63,3.21,3.21,0,0,0,.27-.73,4,4,0,0,0,.11-.78C658.16,223.13,658.16,222.85,658.16,222.57Z"/><path class="cls-2" d="M680.77,228.38a1.3,1.3,0,0,1-.1.49,1.27,1.27,0,0,1-.67.67,1.18,1.18,0,0,1-.5.11.24.24,0,0,1-.14,0l-.1-.11a.79.79,0,0,0-.51-.26l-.63-.07a2.51,2.51,0,0,1-.61-.17,1,1,0,0,1-.48-.52.71.71,0,0,0-.26-.33.89.89,0,0,0-.42-.08,3.79,3.79,0,0,0-1.26.21c-.4.15-.8.3-1.19.48s-.79.33-1.2.47a3.79,3.79,0,0,1-1.26.21,4.25,4.25,0,0,1-.71-.06,3.46,3.46,0,0,1-.69-.22.37.37,0,0,1-.17.1.73.73,0,0,1-.22,0h-.2l-.17,0-.17.06-.18.06.09.15a1,1,0,0,1-.41.27,6,6,0,0,1-.68.22l-.72.15a3.28,3.28,0,0,1-.52.06,1.76,1.76,0,0,1-.79-.16,1.91,1.91,0,0,1-.61-.55,1.83,1.83,0,0,0-.27-.3l-.3-.31a2.62,2.62,0,0,1-.24-.34.75.75,0,0,1-.1-.38.43.43,0,0,1,.24-.37,2.07,2.07,0,0,1,.58-.25,3.88,3.88,0,0,1,.66-.14l.51,0a3,3,0,0,1,.72.09,2.57,2.57,0,0,0,.73.1,2.18,2.18,0,0,0,.63-.09,2.18,2.18,0,0,1,.63-.09,3.43,3.43,0,0,1,.56,0,5.46,5.46,0,0,0,.57,0,2.11,2.11,0,0,0,.7-.13,3,3,0,0,0,.64-.34,14.57,14.57,0,0,0,.17-1.48c0-.49.06-1,.06-1.49a8.11,8.11,0,0,0-.13-1.47,9.08,9.08,0,0,1-.12-1.46s0-.07,0-.07l.07,0a.09.09,0,0,0,.07,0s0,0,0-.11a2.16,2.16,0,0,0-.09-.62,2.1,2.1,0,0,1-.09-.61,2.8,2.8,0,0,1,.1-.77,2.87,2.87,0,0,0,.11-.77,1.32,1.32,0,0,0-.12-.54,1.75,1.75,0,0,0-.32-.48,1.49,1.49,0,0,0-.45-.34,1.13,1.13,0,0,0-.54-.13,2.56,2.56,0,0,0-.62.07l-.65.18-.67.17a3.22,3.22,0,0,1-.71.08,6.11,6.11,0,0,1-.86-.06l-.86-.14-.47-.06a2.71,2.71,0,0,1-.51-.11.92.92,0,0,1-.4-.22.57.57,0,0,1-.17-.44,1.37,1.37,0,0,1,.19-.8,1.18,1.18,0,0,1,.47-.42,1.72,1.72,0,0,1,.62-.16l.66-.06,1.14-.09q.57,0,1.14,0a10.7,10.7,0,0,1,1.39.08,12.81,12.81,0,0,0,1.39.08,3,3,0,0,1,1,.15,2.22,2.22,0,0,1,.79.46,2.18,2.18,0,0,1,.54.78,2.78,2.78,0,0,1,.19,1.08,1.81,1.81,0,0,1-.17.79,2.46,2.46,0,0,1-.44.69.65.65,0,0,0,.21.26l.19.12a.5.5,0,0,1,.15.14.52.52,0,0,1,.06.3,1.45,1.45,0,0,0,0,.28.21.21,0,0,0,.2.18c0,.54,0,1.07,0,1.6s0,1.06,0,1.59,0,.9,0,1.35a8.81,8.81,0,0,0,.12,1.36,1.34,1.34,0,0,0,.24.65.77.77,0,0,0,.64.22,6,6,0,0,0,1.34-.14,6.1,6.1,0,0,1,1.34-.14,1.55,1.55,0,0,1,.75.19,7.74,7.74,0,0,1,.68.42l.62.43a1,1,0,0,0,.57.19.28.28,0,0,1,.2.08.49.49,0,0,1,.11.2,1,1,0,0,1,0,.23C680.76,228.25,680.77,228.32,680.77,228.38Zm-7.29-18.32a2.82,2.82,0,0,1-.15.89,2.91,2.91,0,0,1-.41.85,2.43,2.43,0,0,1-.65.63,1.54,1.54,0,0,1-.86.25,3.61,3.61,0,0,1-.78-.1,4.39,4.39,0,0,1-.89-.28,2.45,2.45,0,0,1-.74-.49,1,1,0,0,1-.31-.71,4,4,0,0,1,.08-.75,4,4,0,0,0,.1-.77.92.92,0,0,0,.3-.27l.29-.4a4,4,0,0,1,.29-.37.47.47,0,0,1,.29-.18l-.07,0a3.26,3.26,0,0,1,.44-.15,2,2,0,0,1,.48-.06,2.47,2.47,0,0,1,.76.15,4.79,4.79,0,0,1,.85.42,2.87,2.87,0,0,1,.69.6A1.12,1.12,0,0,1,673.48,210.06Z"/><path class="cls-2" d="M695.79,228.53a.43.43,0,0,0-.34.22c-.05.13-.11.26-.17.39a.51.51,0,0,1-.28.26,1.55,1.55,0,0,1-.46.15,3.41,3.41,0,0,1-.58.07h-.58c-.53,0-1,0-1.57,0l-1.56-.12-1.56-.13q-.77-.06-1.56-.06a7.91,7.91,0,0,0-1.55.15,7.93,7.93,0,0,1-1.53.15,2.56,2.56,0,0,1-.44-.06,5,5,0,0,1-.61-.16,4.8,4.8,0,0,1-.55-.23c-.16-.08-.24-.16-.24-.25s0-.39,0-.59a2.78,2.78,0,0,1,.06-.58,1.81,1.81,0,0,1,.18-.54,1.52,1.52,0,0,1,.35-.46.76.76,0,0,0,.23-.28c0-.09.06-.16.09-.23a.5.5,0,0,1,.13-.19.85.85,0,0,1,.34-.18s.08,0,.13-.14l.17-.28.17-.31c.06-.09.1-.16.14-.21a10.41,10.41,0,0,1,.79-.83l.84-.78a8,8,0,0,0,.83-.92,10.42,10.42,0,0,1,.81-.95,7.24,7.24,0,0,1,.84-.72,5.18,5.18,0,0,0,.82-.74,2.72,2.72,0,0,0,.29-.37l.23-.35a3.59,3.59,0,0,1,.25-.33,2.79,2.79,0,0,1,.39-.34,1,1,0,0,0,.22-.25,4.45,4.45,0,0,0,.26-.43,2.86,2.86,0,0,0,.2-.44.94.94,0,0,0,.08-.34.47.47,0,0,0-.16-.37,1.4,1.4,0,0,0-.4-.23,2.11,2.11,0,0,0-.48-.12l-.42,0a1.16,1.16,0,0,0-.42.07,1.09,1.09,0,0,1-.39.08,1.32,1.32,0,0,1-.44-.08,1.23,1.23,0,0,0-.42-.07h-.15l-.15.05a2.27,2.27,0,0,1-.5.08l-.6.05a4.37,4.37,0,0,0-.56.09,1,1,0,0,0-.42.15,3.58,3.58,0,0,0-.48.44,1.65,1.65,0,0,0-.27.42,1.48,1.48,0,0,0-.12.41,3.19,3.19,0,0,0,0,.45c0,.13,0,.27,0,.42s0,.3,0,.47a1.28,1.28,0,0,1-.28.85,1,1,0,0,1-.84.32.73.73,0,0,1-.54-.21,1.49,1.49,0,0,1-.33-.53,3.77,3.77,0,0,1-.15-.7q0-.37,0-.72c0-.22,0-.41,0-.57s0-.24,0-.26c0-.26,0-.54,0-.82a4.27,4.27,0,0,1,.11-.82,3.25,3.25,0,0,1,.26-.7,1.29,1.29,0,0,1,.43-.49l.31-.19a3,3,0,0,1,.36-.18,3.57,3.57,0,0,1,.38-.14,1.56,1.56,0,0,1,.36-.05.44.44,0,0,1,.46.32.92.92,0,0,0,.18.3c.07.1.15.19.22.28a2.43,2.43,0,0,1,.2.28.61.61,0,0,1,.11.3H686a.38.38,0,0,1,.24.08.51.51,0,0,0,.21.08c.09,0,.14,0,.14-.13s0-.17,0-.24a.42.42,0,0,0-.11-.31,1.21,1.21,0,0,0-.24-.21,1.55,1.55,0,0,1-.24-.19.33.33,0,0,1-.1-.27v-.09a5.58,5.58,0,0,0,.81.09c.27,0,.55,0,.82,0,.45,0,.89,0,1.34-.06s.88-.07,1.32-.12l1.33-.12c.44,0,.88-.07,1.32-.07h.29l.34,0,.33.07a.61.61,0,0,1,.25.14l-.21.27a.57.57,0,0,0-.14.31c.06.07.09.11.1.11h.08a.15.15,0,0,0,.14-.09,1.14,1.14,0,0,0,.1-.19,1.42,1.42,0,0,0,.08-.18.14.14,0,0,1,.12-.09c.07,0,.13,0,.19.14a1.34,1.34,0,0,1,.16.34,2.85,2.85,0,0,1,.11.39,2.13,2.13,0,0,1,0,.3.44.44,0,0,1,0,.19.28.28,0,0,1-.09.07l-.11.05a.24.24,0,0,0-.1.08,1.46,1.46,0,0,0-.18.46,1.12,1.12,0,0,1-.21.46,5.59,5.59,0,0,1-.83,1l-.93.89a3,3,0,0,0-.38.42l-.32.46c-.11.15-.22.31-.33.45a4.89,4.89,0,0,1-.37.41,1.68,1.68,0,0,1-.35.28l-.27.15a1.45,1.45,0,0,0-.22.21,2,2,0,0,0-.2.43,1.13,1.13,0,0,1-.39.39l-.77.55c-.28.21-.54.43-.79.65a1.65,1.65,0,0,0-.47.64c-.06.17-.13.35-.21.52l-.21.54c-.06.19-.12.38-.17.56a2.15,2.15,0,0,0-.08.55.82.82,0,0,0,.38.72,2.89,2.89,0,0,0,.89.39,6,6,0,0,0,1,.15l.86,0h1a2.49,2.49,0,0,0,1.28-.31,1.8,1.8,0,0,0,.67-.73,3.3,3.3,0,0,0,.29-1c0-.36.08-.72.1-1.08a7.15,7.15,0,0,1,.14-1,1.31,1.31,0,0,1,.4-.75h.3a1.79,1.79,0,0,1,.73.14,7,7,0,0,1,.68.31,5.18,5.18,0,0,1-.11.87,3.58,3.58,0,0,0-.1.85.19.19,0,0,0,.21.21.44.44,0,0,1-.11.32.19.19,0,0,0-.1.17.61.61,0,0,0,.06.22l.14.32c0,.13.09.26.13.4a1.74,1.74,0,0,1,.06.45,4.36,4.36,0,0,1,0,.51,4.36,4.36,0,0,0,0,.51A3.2,3.2,0,0,0,695.79,228.53Z"/><path class="cls-2" d="M714.6,228.38a1.13,1.13,0,0,1-.1.49,1.18,1.18,0,0,1-.27.4,1.41,1.41,0,0,1-.4.27,1.14,1.14,0,0,1-.49.11.22.22,0,0,1-.14,0l-.11-.11a.79.79,0,0,0-.51-.26l-.62-.07a2.58,2.58,0,0,1-.62-.17,1,1,0,0,1-.47-.52.71.71,0,0,0-.26-.33.89.89,0,0,0-.42-.08,3.85,3.85,0,0,0-1.27.21c-.4.15-.79.3-1.19.48s-.79.33-1.19.47a3.87,3.87,0,0,1-1.26.21,4.37,4.37,0,0,1-.72-.06,3.37,3.37,0,0,1-.68-.22.42.42,0,0,1-.17.1.78.78,0,0,1-.22,0h-.21l-.17,0-.16.06-.18.06.08.15a.91.91,0,0,1-.4.27,5.6,5.6,0,0,1-.69.22l-.71.15a3.38,3.38,0,0,1-.53.06,1.82,1.82,0,0,1-.79-.16,1.91,1.91,0,0,1-.61-.55,2.32,2.32,0,0,0-.26-.3c-.11-.1-.21-.21-.3-.31a2,2,0,0,1-.25-.34.85.85,0,0,1-.09-.38.43.43,0,0,1,.24-.37,2.13,2.13,0,0,1,.57-.25,3.88,3.88,0,0,1,.66-.14l.51,0a3,3,0,0,1,.73.09,2.55,2.55,0,0,0,.72.1,2.18,2.18,0,0,0,.63-.09,2.2,2.2,0,0,1,.64-.09,3.52,3.52,0,0,1,.56,0,5.27,5.27,0,0,0,.56,0,2,2,0,0,0,.7-.13,3.36,3.36,0,0,0,.65-.34c.08-.49.13-1,.17-1.48s.05-1,.05-1.49a9.11,9.11,0,0,0-.12-1.47,9.08,9.08,0,0,1-.12-1.46s0-.07,0-.07l.07,0a.11.11,0,0,0,.07,0s0,0,0-.11a1.87,1.87,0,0,0-.1-.62,2.09,2.09,0,0,1-.08-.61,2.8,2.8,0,0,1,.1-.77,2.87,2.87,0,0,0,.11-.77,1.19,1.19,0,0,0-.13-.54,1.72,1.72,0,0,0-.31-.48,1.49,1.49,0,0,0-.45-.34,1.13,1.13,0,0,0-.54-.13,2.65,2.65,0,0,0-.63.07l-.64.18-.67.17a3.29,3.29,0,0,1-.71.08,6,6,0,0,1-.86-.06l-.86-.14-.48-.06a2.78,2.78,0,0,1-.5-.11,1,1,0,0,1-.41-.22.57.57,0,0,1-.16-.44,1.37,1.37,0,0,1,.19-.8,1.15,1.15,0,0,1,.46-.42,1.83,1.83,0,0,1,.63-.16l.66-.06,1.14-.09c.37,0,.75,0,1.13,0a10.85,10.85,0,0,1,1.4.08,12.66,12.66,0,0,0,1.39.08,3,3,0,0,1,1,.15,2.1,2.1,0,0,1,1.32,1.24,2.77,2.77,0,0,1,.2,1.08,2,2,0,0,1-.17.79,2.74,2.74,0,0,1-.45.69.65.65,0,0,0,.21.26l.2.12a.5.5,0,0,1,.15.14.52.52,0,0,1,.06.3,1,1,0,0,0,0,.28.2.2,0,0,0,.2.18c0,.54,0,1.07,0,1.6s0,1.06,0,1.59,0,.9,0,1.35a8.81,8.81,0,0,0,.11,1.36,1.34,1.34,0,0,0,.24.65.8.8,0,0,0,.65.22,6,6,0,0,0,1.34-.14,6,6,0,0,1,1.34-.14,1.48,1.48,0,0,1,.74.19,6.5,6.5,0,0,1,.68.42l.63.43a1,1,0,0,0,.57.19.26.26,0,0,1,.19.08.67.67,0,0,1,.12.2.93.93,0,0,1,0,.23A1.62,1.62,0,0,1,714.6,228.38Zm-7.29-18.32a3.11,3.11,0,0,1-.14.89,3.18,3.18,0,0,1-.41.85,2.47,2.47,0,0,1-.66.63,1.51,1.51,0,0,1-.85.25,3.61,3.61,0,0,1-.78-.1,4.49,4.49,0,0,1-.9-.28,2.58,2.58,0,0,1-.74-.49,1,1,0,0,1-.31-.71,3.33,3.33,0,0,1,.09-.75,4.91,4.91,0,0,0,.09-.77.94.94,0,0,0,.31-.27l.29-.4a2.8,2.8,0,0,1,.29-.37.44.44,0,0,1,.29-.18l-.08,0a3,3,0,0,1,.45-.15,1.84,1.84,0,0,1,.47-.06,2.42,2.42,0,0,1,.76.15,4.48,4.48,0,0,1,.85.42,2.92,2.92,0,0,1,.7.6A1.11,1.11,0,0,1,707.31,210.06Z"/><path class="cls-2" d="M729.45,224.35a1.22,1.22,0,0,1-.07.38c0,.13-.1.25-.16.38s-.12.25-.17.37a1.6,1.6,0,0,0-.12.37,1.64,1.64,0,0,1-.3.73,4.45,4.45,0,0,1-.54.61,6.53,6.53,0,0,1-.63.55,6.32,6.32,0,0,0-.59.54.67.67,0,0,1-.48.22l-.29,0a.86.86,0,0,0-.28,0,.66.66,0,0,0-.34.08,1.43,1.43,0,0,0-.24.16l-.27.16a1,1,0,0,1-.43.07.76.76,0,0,0-.38.11.7.7,0,0,1-.36.1,1.46,1.46,0,0,1-.59-.15,1.86,1.86,0,0,0-.75-.15l-.51,0a4.36,4.36,0,0,1-.51,0,1.76,1.76,0,0,1-.45-.07l-.42-.15a3.39,3.39,0,0,0-.41-.15,1.31,1.31,0,0,0-.44-.07,1.23,1.23,0,0,0-.77.23,3,3,0,0,0-.56.5,5.89,5.89,0,0,1-.5.5.82.82,0,0,1-.56.23.55.55,0,0,1-.39-.1.46.46,0,0,1-.12-.23c0-.09,0-.19,0-.29a.43.43,0,0,0-.13-.28,1.35,1.35,0,0,1-.3-.45,1.52,1.52,0,0,1-.08-.53,7.32,7.32,0,0,1,.13-1.41,8.22,8.22,0,0,0,.13-1.41,2.14,2.14,0,0,0-.06-.5,2.41,2.41,0,0,0-.15-.43c-.05-.13-.1-.24-.14-.33a.58.58,0,0,1-.06-.2.63.63,0,0,1,.08-.28,1.31,1.31,0,0,1,.17-.28.84.84,0,0,1,.21-.21.35.35,0,0,1,.19-.09.45.45,0,0,1,.26.08l.23.16.22.16a.61.61,0,0,0,.28.07h.09a3.35,3.35,0,0,1,.33.75c.08.27.17.53.25.78a4.86,4.86,0,0,0,.32.74,1.86,1.86,0,0,0,.53.63l.21.16.25.18a1.74,1.74,0,0,0,.26.15.53.53,0,0,0,.23.06l.33,0a1.66,1.66,0,0,1,.32,0c.15,0,.22,0,.22.15a.25.25,0,0,1,0,.12h.29a5.07,5.07,0,0,0,1.15-.13,5,5,0,0,1,1.15-.14,2.51,2.51,0,0,1,.55.06,1.15,1.15,0,0,1,.51.21,1.54,1.54,0,0,0,.48-.34l.39-.42a3.13,3.13,0,0,1,.44-.36,1.23,1.23,0,0,1,.62-.17.39.39,0,0,0,.08-.21c0-.08,0-.16,0-.24a.75.75,0,0,1,0-.21.37.37,0,0,1,.11-.2,1.23,1.23,0,0,0,.24-.28.72.72,0,0,0,.08-.35,1.38,1.38,0,0,0-.23-.76,2.71,2.71,0,0,0-.58-.65,4.05,4.05,0,0,0-.81-.53c-.31-.15-.62-.28-.93-.4a5.69,5.69,0,0,0-.92-.24,3.79,3.79,0,0,0-.76-.09,4.76,4.76,0,0,0-.75.07,3.1,3.1,0,0,0-.71.23.49.49,0,0,0-.15-.43,1,1,0,0,0-.37-.15,3.38,3.38,0,0,1-.42-.13.63.63,0,0,1-.34-.37,1.51,1.51,0,0,1-.64.48,2.16,2.16,0,0,1-.78.15,1.72,1.72,0,0,1-.72-.15,2.17,2.17,0,0,1-.6-.4,2.44,2.44,0,0,1-.42-.59,1.9,1.9,0,0,1-.17-.71,1.24,1.24,0,0,0-.11-.45c-.06-.13-.12-.26-.19-.38a2.58,2.58,0,0,1-.19-.37,1.13,1.13,0,0,1-.08-.47,7.2,7.2,0,0,1,.06-1.06,2.31,2.31,0,0,1,.18-.59.79.79,0,0,1,.23-.29l.26-.16a1,1,0,0,0,.26-.24,1.21,1.21,0,0,0,.2-.48.53.53,0,0,1,.13-.3.67.67,0,0,1,.32-.1.46.46,0,0,0,.25-.09.42.42,0,0,0,.09-.14,1.42,1.42,0,0,1,.05-.16.43.43,0,0,1,.15-.16,1.69,1.69,0,0,1,.63-.26,4.26,4.26,0,0,1,.64-.05h.76c.42,0,.84,0,1.24-.06s.81-.06,1.23-.06a3.94,3.94,0,0,1,.88.1,5.86,5.86,0,0,1,.7.22c.2.08.38.15.52.22a1.1,1.1,0,0,0,.36.1,1.38,1.38,0,0,0,.49-.1,1.36,1.36,0,0,1,.49-.12,1.31,1.31,0,0,0,.27.19.68.68,0,0,0,.33.09.22.22,0,0,0,.18-.08.36.36,0,0,0,.07-.2,1.26,1.26,0,0,1,.41.22,1.66,1.66,0,0,1,.35.35,1.48,1.48,0,0,1,.25.44,1.19,1.19,0,0,1,.09.44,6.91,6.91,0,0,1-.08,1.11,8,8,0,0,0-.08,1.1,3.64,3.64,0,0,0,.15,1.07,3.64,3.64,0,0,1-.46.3,1.1,1.1,0,0,0-.42.35h0l-.26-.24-.34-.28a2.19,2.19,0,0,0-.33-.23.66.66,0,0,0-.3-.1h0a.4.4,0,0,1-.12-.1.2.2,0,0,1-.06-.15.49.49,0,0,1,.09-.28.44.44,0,0,0,.09-.27.53.53,0,0,0-.13-.21,4.57,4.57,0,0,0-.31-.34c-.11-.11-.23-.22-.34-.31a.63.63,0,0,0-.24-.16,1.52,1.52,0,0,1-.32-.11l-.33-.15-.31-.13a.6.6,0,0,0-.23-.06,1.74,1.74,0,0,0-.39,0,1.85,1.85,0,0,1-.41.07h0l-.68-.08a4.25,4.25,0,0,1-1-.24,2.8,2.8,0,0,0-1-.18.9.9,0,0,0-.66.21,1.65,1.65,0,0,0-.35.48c-.09.17-.18.33-.27.47a.49.49,0,0,1-.45.21h-.14c.1.32.19.59.28.81a2.83,2.83,0,0,0,.31.6,2.56,2.56,0,0,0,.45.49,5.63,5.63,0,0,0,.69.51.76.76,0,0,1,.13.1l.17.16a1.1,1.1,0,0,0,.18.14.24.24,0,0,0,.13.06,1,1,0,0,0,.48-.12A1.07,1.07,0,0,1,722,220a.77.77,0,0,1,.34.08.69.69,0,0,0,.34.09.84.84,0,0,0,.35-.07.86.86,0,0,1,.36-.07l.16,0,.15,0a3.19,3.19,0,0,0,.91.11h.92a2,2,0,0,1,.67.12,3.51,3.51,0,0,1,.65.31,4,4,0,0,1,1.06.92,2.43,2.43,0,0,0,.33.38c.12.11.24.22.35.34a2.17,2.17,0,0,1,.31.37,1.32,1.32,0,0,1,.2.45,5.93,5.93,0,0,0,.2.66A2.14,2.14,0,0,1,729.45,224.35Z"/><path class="cls-2" d="M745.69,223.61a3.79,3.79,0,0,1-.1.91c-.07.29-.15.57-.24.85s-.19.55-.28.84a5.15,5.15,0,0,0-.22.88,2.69,2.69,0,0,1-.54,1.25,3.13,3.13,0,0,1-1,.79,5,5,0,0,1-1.27.44q-.7.13-1.44.21c-.49.05-1,.09-1.45.11a12.56,12.56,0,0,0-1.32.11,1.91,1.91,0,0,1-.38-.37l-.28-.36a1.17,1.17,0,0,0-.3-.29.76.76,0,0,0-.44-.11c-.06,0-.11-.09-.14-.25s-.07-.35-.1-.56-.07-.39-.1-.56-.08-.24-.14-.24a.9.9,0,0,1-.55-.16,1,1,0,0,1-.32-.38,2.1,2.1,0,0,1-.15-.52,5.46,5.46,0,0,1,0-.56.86.86,0,0,0-.09-.39,3.9,3.9,0,0,0-.19-.35c-.07-.12-.14-.23-.2-.36a.81.81,0,0,1-.09-.37c0-.15,0-.34,0-.57s0-.46,0-.7,0-.47,0-.7,0-.43,0-.58a1.44,1.44,0,0,1,.06-.45,2.39,2.39,0,0,1,.16-.32l.16-.24a.4.4,0,0,0,.07-.24.56.56,0,0,0-.08-.3.4.4,0,0,1-.09-.24.56.56,0,0,1,.11-.32,1.21,1.21,0,0,0,.15-.33,5.34,5.34,0,0,0,.16-1.31v-.26l0-.25a1.74,1.74,0,0,0-.76-.37l-.85-.12c-.28,0-.55-.06-.81-.1a1.2,1.2,0,0,1-.66-.31,2.73,2.73,0,0,1-.41-.48.89.89,0,0,0-.48-.35,1.25,1.25,0,0,1-.36-.2.5.5,0,0,1-.14-.37.67.67,0,0,1,.22-.55,1.58,1.58,0,0,1,.52-.3,6.4,6.4,0,0,1,.62-.2,1.47,1.47,0,0,0,.55-.25.92.92,0,0,1,.55-.16h.52a1.34,1.34,0,0,0,.63-.13,1.07,1.07,0,0,0,.39-.34,1.65,1.65,0,0,0,.2-.51,3.86,3.86,0,0,0,0-.61,7.19,7.19,0,0,0-.06-.94,7,7,0,0,1-.06-.93,3.31,3.31,0,0,1,.15-1,2,2,0,0,1,.57-.86,1.88,1.88,0,0,0,.2-.2,2.39,2.39,0,0,1,.22-.23,1.38,1.38,0,0,1,.25-.19.52.52,0,0,1,.26-.08.38.38,0,0,1,.16,0l.15.1a2.66,2.66,0,0,1,.42.49.66.66,0,0,1,.1.37,2.35,2.35,0,0,1,0,.26v.37a3.81,3.81,0,0,0,.12,1,3.3,3.3,0,0,1,.12.8,1.33,1.33,0,0,1-.12.55,1.46,1.46,0,0,0-.11.55.72.72,0,0,0,.1.38,2.54,2.54,0,0,0,.23.34,4,4,0,0,1,.23.34.74.74,0,0,1,.1.4,2.12,2.12,0,0,0,.68.19c.35.05.75.1,1.18.13s.87.06,1.31.08l1.1,0a2.3,2.3,0,0,1,.6.06,2.65,2.65,0,0,1,.35.13l.27.14a.57.57,0,0,0,.31.1,1.29,1.29,0,0,1,.42.12.43.43,0,0,1,.17.39.8.8,0,0,1-.19.57,1.13,1.13,0,0,1-.47.32,1.88,1.88,0,0,1-.59.12l-.59,0q-.43,0-.87,0l-.87,0a5.81,5.81,0,0,0-1.31.13,2.71,2.71,0,0,0-1,.45,2,2,0,0,0-.66.84,3.11,3.11,0,0,0-.24,1.3,12.49,12.49,0,0,0,.1,1.51,10.6,10.6,0,0,1,.1,1.5c0,.48,0,.87,0,1.16a2,2,0,0,0,.17.74,4.42,4.42,0,0,1,.32,1,6.56,6.56,0,0,0,.31,1.06,2.28,2.28,0,0,0,.53.83,1.33,1.33,0,0,0,1,.34,4,4,0,0,0,.6-.06,4.13,4.13,0,0,0,.75-.19,2.09,2.09,0,0,0,.65-.33.6.6,0,0,0,.27-.5,1,1,0,0,0-.15-.52,1.13,1.13,0,0,1-.15-.57.61.61,0,0,1,.1-.36,1.13,1.13,0,0,1,.25-.29,2.54,2.54,0,0,1,.34-.23l.33-.17a2.62,2.62,0,0,1,.66-.58,1.61,1.61,0,0,1,.82-.23,1.65,1.65,0,0,1,.58.1,2.33,2.33,0,0,1,.52.27A3.43,3.43,0,0,1,745.69,223.61Z"/><path class="cls-2" d="M763.67,226.32a1.28,1.28,0,0,1-.09.48c-.06.15-.11.31-.16.47s-.07.26-.09.35a.77.77,0,0,1-.06.23.43.43,0,0,1-.15.18,1.12,1.12,0,0,1-.31.19l-.95.49a2.39,2.39,0,0,1-1,.25,1.7,1.7,0,0,1-.82-.21,4.73,4.73,0,0,1-.71-.45l-.58-.46a.81.81,0,0,0-.45-.21.58.58,0,0,0-.34.11l-.28.22a2.62,2.62,0,0,1-.32.23.81.81,0,0,1-.43.1,1.35,1.35,0,0,0-.43.08l-.46.17-.46.2-.42.16a6.5,6.5,0,0,1-1.37.21q-.67,0-1.38,0h-.55a4.9,4.9,0,0,1-.76-.08,2.26,2.26,0,0,1-.68-.21.45.45,0,0,1-.29-.43.31.31,0,0,1,0-.1.88.88,0,0,1-.24.19.52.52,0,0,1-.3.08,1,1,0,0,1-.59-.33,5.65,5.65,0,0,1-.66-.77,6.86,6.86,0,0,1-.54-.87,1.57,1.57,0,0,1-.23-.63.48.48,0,0,1,.1-.31.54.54,0,0,0,.1-.3,1.34,1.34,0,0,0-.06-.4,1.62,1.62,0,0,1-.05-.4,1.85,1.85,0,0,1,.11-.58,5.22,5.22,0,0,1,.25-.61c.1-.21.21-.41.32-.61l.3-.54a1.19,1.19,0,0,1,.42-.49,3.91,3.91,0,0,1,.57-.31l.61-.27a1.73,1.73,0,0,0,.52-.36.75.75,0,0,0,.59.25,2.65,2.65,0,0,0,.74-.11,2.33,2.33,0,0,1,.74-.11,2.78,2.78,0,0,1,.58.06,2.72,2.72,0,0,0,.58.06,1,1,0,0,0,.49-.09,2.12,2.12,0,0,0,.39-.29,1.61,1.61,0,0,1,.61-.32,6.66,6.66,0,0,1,.77-.19l.8-.14a2.9,2.9,0,0,0,.72-.22,1.25,1.25,0,0,0,.51-.39,1.06,1.06,0,0,0,.19-.68,2.18,2.18,0,0,0-.28-1,4,4,0,0,0-.71-1,4.2,4.2,0,0,0-1-.73,2.15,2.15,0,0,0-1-.28h-.12l-.11,0c-.24,0-.51.06-.81.08a3.87,3.87,0,0,0-.85.13,1.55,1.55,0,0,0-.66.38,1,1,0,0,0-.27.78,3.92,3.92,0,0,0,.05.59,3,3,0,0,1,.06.6,1.28,1.28,0,0,1-.22.75,1.63,1.63,0,0,1-.56.48,2.48,2.48,0,0,1-.74.25,5.64,5.64,0,0,1-.79.07,2.28,2.28,0,0,1-.78-.12,1,1,0,0,1-.54-.56l-.36-.69a1.65,1.65,0,0,1-.18-.74,1.9,1.9,0,0,1,.14-.76,6.29,6.29,0,0,1,.32-.7l.36-.67a3,3,0,0,0,.24-.73,1.86,1.86,0,0,1,.3-.12l.41-.12.42-.12.33-.09a7.41,7.41,0,0,0,.71-.25,7.07,7.07,0,0,1,.69-.27c.23-.08.47-.15.71-.21a3.38,3.38,0,0,1,.73-.1l.46,0a8.73,8.73,0,0,1,1.33.11,7.58,7.58,0,0,1,1.32.36,7.73,7.73,0,0,1,1.23.59,5,5,0,0,1,1,.84,3,3,0,0,1,.55.85,6,6,0,0,1,.35,1,10.32,10.32,0,0,1,.18,1.09c0,.37.05.71.05,1s0,.84,0,1.24,0,.82,0,1.24a11.9,11.9,0,0,0,.06,1.2c0,.4.1.79.16,1.19s.11.79.16,1.19a9.45,9.45,0,0,1,.07,1.18,1,1,0,0,0,.1.45.19.19,0,0,0,.14.08.72.72,0,0,0,.53-.2,2.76,2.76,0,0,0,.37-.46,3.94,3.94,0,0,1,.36-.45.67.67,0,0,1,.5-.22l.28,0a.77.77,0,0,1,.26.07.43.43,0,0,1,.2.15A.4.4,0,0,1,763.67,226.32Zm-4.95-3.75c0-.06,0-.16,0-.31a3.42,3.42,0,0,0,0-.46,2.2,2.2,0,0,0-.09-.42q-.08-.18-.21-.18l-.07,0-.08,0-1,.52a7.53,7.53,0,0,1-.8.33,4.57,4.57,0,0,1-.85.17c-.3,0-.68,0-1.13,0a3.75,3.75,0,0,0-.5.07l-.89.17-.9.2-.53.13a1,1,0,0,0-.28.15.61.61,0,0,0-.12.16,1.14,1.14,0,0,1-.1.19.49.49,0,0,1-.16.21,1.5,1.5,0,0,1-.32.19,1,1,0,0,0-.33.23,2.56,2.56,0,0,0-.42.59,1.51,1.51,0,0,0-.19.7,1.25,1.25,0,0,0,.21.73,1.89,1.89,0,0,0,.55.54,3.88,3.88,0,0,0,.79.39,6.82,6.82,0,0,0,.88.26c.29.05.58.1.86.13a6.72,6.72,0,0,0,.71,0,7.32,7.32,0,0,0,.86-.06,8.5,8.5,0,0,0,1-.16,5.75,5.75,0,0,0,.94-.31,1.92,1.92,0,0,0,.69-.5.86.86,0,0,0,.15-.22,1.74,1.74,0,0,1,.1-.19,1.13,1.13,0,0,1,.12-.21.75.75,0,0,1,.22-.22,2.23,2.23,0,0,0,.53-.63,2.82,2.82,0,0,0,.28-.73,4,4,0,0,0,.1-.78C758.71,223.13,758.72,222.85,758.72,222.57Z"/><path class="cls-2" d="M782.68,228.56a.54.54,0,0,1-.11.35.75.75,0,0,1-.26.21,1.29,1.29,0,0,1-.35.1l-.35,0-.46,0-.45-.06c-.2.07-.44.15-.71.22a2.72,2.72,0,0,1-.75.11.47.47,0,0,1-.17,0l-.16,0a1.65,1.65,0,0,0-.52.1,1.37,1.37,0,0,1-.52.1,3.2,3.2,0,0,1-.83-.11,3.89,3.89,0,0,0-.84-.15,1.47,1.47,0,0,1-1.09-.55,1.92,1.92,0,0,1-.41-1.16,3,3,0,0,1,1-.39,5.35,5.35,0,0,1,1.05-.11h.59l.6.05c0-.75-.1-1.51-.2-2.26a17.19,17.19,0,0,1-.15-2.27c0-.26,0-.52,0-.79a6.93,6.93,0,0,1,.1-.78,6.69,6.69,0,0,1,.2-.77,2.64,2.64,0,0,0,.12-.78,1.4,1.4,0,0,0-.08-.47,2.88,2.88,0,0,0-.19-.45,1.06,1.06,0,0,1-.14-.4c0-.16,0-.31-.07-.46a2.44,2.44,0,0,0-.14-.46,1.14,1.14,0,0,0-.29-.41,1.52,1.52,0,0,0-.57-.29,3.54,3.54,0,0,0-.95-.1,4.72,4.72,0,0,0-.53,0c-.24,0-.48.08-.72.14a6.46,6.46,0,0,0-.7.19,1.32,1.32,0,0,0-.44.24l-.19.21-.24.28a3,3,0,0,1-.25.25.41.41,0,0,1-.21.13l-.34.07a.52.52,0,0,0-.18.1.45.45,0,0,0-.11.17l-.15.32-.12.24c-.06.11-.12.17-.18.17a.11.11,0,0,1-.11-.06.1.1,0,0,0-.1-.06.16.16,0,0,0-.09,0l-.08.06v.42c-.07.09-.13.13-.19.13l-.13,0a.11.11,0,0,0-.08.07,1.48,1.48,0,0,0,0,.29.61.61,0,0,1-.08.3l-.15.27a2.54,2.54,0,0,0-.16.28.66.66,0,0,0-.08.32,2.2,2.2,0,0,0,.08.58,1.9,1.9,0,0,1,.09.58.81.81,0,0,1-.06.33,1,1,0,0,1-.15.25l-.14.22a.5.5,0,0,0-.06.26,1,1,0,0,0,.08.38l.18.35c.06.12.12.25.17.38a1,1,0,0,1,.08.42,2.31,2.31,0,0,1-.06.52,2.42,2.42,0,0,0-.06.54,1,1,0,0,0,.1.48.68.68,0,0,0,.26.27,1.15,1.15,0,0,0,.37.13,3.38,3.38,0,0,1,.42.13,2.4,2.4,0,0,1,.45.23,1.44,1.44,0,0,1,.42.43l.09,0a.41.41,0,0,1,.38.21.88.88,0,0,1,.12.44.75.75,0,0,1-.09.37.8.8,0,0,0-.09.41q0,.18-.39.3a5.35,5.35,0,0,1-.89.19,8.17,8.17,0,0,1-1,.09l-.61,0h-.55l-.83,0-.95-.07a7.84,7.84,0,0,1-.92-.13,3.08,3.08,0,0,1-.72-.21.7.7,0,0,1-.37-.31c-.05-.12-.1-.25-.15-.4a1.29,1.29,0,0,1-.07-.43.77.77,0,0,1,.11-.4,1.75,1.75,0,0,1,.28-.33.83.83,0,0,1,.5-.25,5,5,0,0,1,.53,0,4.06,4.06,0,0,0,.51,0,.8.8,0,0,0,.44-.24,1.29,1.29,0,0,0,.3-.61,4.7,4.7,0,0,0,.11-1.19,2.69,2.69,0,0,0,0-.4,3.91,3.91,0,0,0-.07-.39c0-.13-.06-.24-.08-.34a1.31,1.31,0,0,1,0-.23.38.38,0,0,1,.06-.19,1.19,1.19,0,0,1,.12-.22L768,223a.94.94,0,0,0,0-.3,1.24,1.24,0,0,0-.1-.5,1.44,1.44,0,0,1-.1-.5,1.1,1.1,0,0,1,.08-.4,1.14,1.14,0,0,0,.07-.41.62.62,0,0,0-.09-.32.63.63,0,0,1-.09-.33,1.06,1.06,0,0,1,.06-.34,1,1,0,0,0,.06-.35,3.86,3.86,0,0,0-.09-.81c-.06-.27-.11-.54-.16-.8a1.22,1.22,0,0,0-.34-.7,1.6,1.6,0,0,0-.57-.35,3.6,3.6,0,0,0-.66-.2,2.48,2.48,0,0,1-.63-.23A1.29,1.29,0,0,1,765,216a1.54,1.54,0,0,1-.19-.86.75.75,0,0,1,.23-.6,1.37,1.37,0,0,1,.57-.31,2.63,2.63,0,0,1,.7-.12H767a2.8,2.8,0,0,1,.86.13,4.43,4.43,0,0,0,.87.16.85.85,0,0,1,.37.12,2.16,2.16,0,0,1,.33.27,1.23,1.23,0,0,1,.25.36,1.12,1.12,0,0,1,.1.39,1.48,1.48,0,0,0,.06.32c0,.16.09.32.14.48a3.46,3.46,0,0,0,.19.43c.06.12.13.19.2.19a.46.46,0,0,0,.13-.18l.06-.19q0-.09.21-.24c.12-.1.26-.2.42-.31l.45-.32a2.11,2.11,0,0,0,.31-.24.74.74,0,0,0,.14-.22l.11-.21a.51.51,0,0,1,.13-.16.49.49,0,0,1,.27-.06h.07a.49.49,0,0,0,.32-.14,3.73,3.73,0,0,1,.39-.32A2.62,2.62,0,0,1,774,214a3.26,3.26,0,0,1,1-.14l1.12,0a5.21,5.21,0,0,1,1.06.16,3.49,3.49,0,0,1,.95.42,2.69,2.69,0,0,1,.77.8,5.62,5.62,0,0,0,.42.6,2.7,2.7,0,0,1,.27.38,1.28,1.28,0,0,1,.15.43,7.24,7.24,0,0,1,0,.77,1,1,0,0,0,.08.39c0,.12.11.25.17.37a2.87,2.87,0,0,1,.18.4,1.43,1.43,0,0,1,.07.48,9.11,9.11,0,0,1-.06,1.05,9.24,9.24,0,0,0-.06,1,2.06,2.06,0,0,1-.14.73,1.94,1.94,0,0,0-.14.74.73.73,0,0,0,.09.35.75.75,0,0,1,.09.37,2.24,2.24,0,0,1-.06.52,2.4,2.4,0,0,0-.07.52.77.77,0,0,0,.12.43.77.77,0,0,1,.11.4.39.39,0,0,1,0,.2l-.12.15a.61.61,0,0,0-.12.16.32.32,0,0,0-.06.2,1,1,0,0,0,.12.46,1.37,1.37,0,0,0,.29.42,1.31,1.31,0,0,0,.41.3,1,1,0,0,0,.45.12.64.64,0,0,0,.34-.09.65.65,0,0,1,.31-.08.53.53,0,0,1,.38.17,1.6,1.6,0,0,1,.3.42,2.3,2.3,0,0,1,.2.49A2,2,0,0,1,782.68,228.56Zm-13-6a1.41,1.41,0,0,0,0-.25,1.82,1.82,0,0,0-.11-.3,1,1,0,0,0-.16-.24.37.37,0,0,0-.24-.1.45.45,0,0,0-.28.1.44.44,0,0,1-.3.1h-.06a1.19,1.19,0,0,0-.05.32l0,.09v0a.44.44,0,0,0,.18.26,1.4,1.4,0,0,0,.3.15l.32.13a.92.92,0,0,1,.29.17A.56.56,0,0,0,769.67,222.54Zm9.75.35a.58.58,0,0,0-.09-.3.33.33,0,0,0-.27-.14.21.21,0,0,0-.22.16.83.83,0,0,0-.06.29.87.87,0,0,0,.06.32.23.23,0,0,0,.24.15.26.26,0,0,0,.23-.1.62.62,0,0,0,.11-.35Zm.26,2.89a.21.21,0,0,0-.08-.17.94.94,0,0,0-.18-.12.54.54,0,0,1-.1.18l-.15.2-.15.21a.42.42,0,0,0-.06.21.21.21,0,0,0,.07.18.78.78,0,0,0,.18.11.41.41,0,0,1,.1-.18,1.56,1.56,0,0,0,.16-.2l.14-.2A.36.36,0,0,0,779.68,225.78Z"/><path class="cls-2" d="M798.91,225.85a.23.23,0,0,1-.11.22l-.22.12a1,1,0,0,0-.27.21,1.79,1.79,0,0,0-.2.26c-.06.1-.12.2-.17.3a2.85,2.85,0,0,1-.16.3,1.05,1.05,0,0,1-.58.43l-.73.23a2.81,2.81,0,0,0-.66.29,1,1,0,0,0-.37.64h-.07a1.69,1.69,0,0,0-.64.12l-.59.26a6.28,6.28,0,0,1-.59.27,1.68,1.68,0,0,1-.63.12.93.93,0,0,1-.34-.06l-.32-.14-.32-.13a.88.88,0,0,0-.33-.06,3.48,3.48,0,0,0-.47,0,3.4,3.4,0,0,1-.45,0,3.22,3.22,0,0,1-.39,0,1.44,1.44,0,0,1-.43-.13,1.14,1.14,0,0,1-.33-.23.5.5,0,0,1-.13-.36.41.41,0,0,1,0-.12.31.31,0,0,1-.16.1.55.55,0,0,1-.18,0,1.71,1.71,0,0,1-.84-.2,3.2,3.2,0,0,1-.72-.5,4.69,4.69,0,0,1-.63-.63c-.2-.22-.39-.43-.58-.62a2.41,2.41,0,0,1-.54-.8,7.09,7.09,0,0,0-.44-.87,4.6,4.6,0,0,1-.67-1.77,14.26,14.26,0,0,1-.12-1.88,3.17,3.17,0,0,1,0-.41.66.66,0,0,1,.09-.34.33.33,0,0,1,.15-.11l.18-.08.14-.08a.17.17,0,0,0,.06-.14.7.7,0,0,0-.1-.38.74.74,0,0,1-.11-.39.41.41,0,0,1,.07-.25l.14-.23a2.39,2.39,0,0,0,.22-.65c.06-.31.13-.61.21-.92a3.82,3.82,0,0,1,.29-.81.51.51,0,0,1,.46-.36,1.23,1.23,0,0,1,.39.06,1.23,1.23,0,0,0,.39.06,1.27,1.27,0,0,0,.34,0l0-.12c0-.12,0-.2-.11-.23a1.05,1.05,0,0,0-.24-.06l-.25,0c-.07,0-.11-.06-.11-.15a.18.18,0,0,1,.09-.16.62.62,0,0,1,.19-.12l.23-.1a.74.74,0,0,0,.18-.09.77.77,0,0,0,.22-.23c0-.08.07-.15.11-.22a.46.46,0,0,1,.16-.18,1,1,0,0,1,.34-.14,2,2,0,0,1,.42,0l.43,0,.42,0a2,2,0,0,0,.42-.07l-.15-.16a.53.53,0,0,1,.21-.21,1,1,0,0,1,.31-.13,1.33,1.33,0,0,1,.34-.05H791a3.93,3.93,0,0,1,1,.13,3.76,3.76,0,0,0,1,.14,2,2,0,0,0,.42-.05,1.4,1.4,0,0,1,.41-.06,1.21,1.21,0,0,1,.59.16l.54.29.06,0a.25.25,0,0,0,.22-.11.26.26,0,0,1,.18-.1.14.14,0,0,1,.13.07,1.25,1.25,0,0,0,.09.12.51.51,0,0,0,.32.18.39.39,0,0,1,.28.16.55.55,0,0,0,.24.24,1,1,0,0,0,.27.1l.29.06a.67.67,0,0,1,.28.14v.42a3.34,3.34,0,0,0,.57.6,3.11,3.11,0,0,1,.46.42,1.44,1.44,0,0,1,.32.54,2.86,2.86,0,0,1,.11.94,5,5,0,0,1-.11,1.16,2.06,2.06,0,0,1-.39.83,1.78,1.78,0,0,1-.75.52,3.05,3.05,0,0,1-1.16.15h-1l-.34-.55c-.15-.24-.3-.48-.45-.74s-.29-.49-.4-.72a1.27,1.27,0,0,1-.18-.52,3.42,3.42,0,0,1,0-.45,2.28,2.28,0,0,0,0-.45,1.28,1.28,0,0,0-.28-.47,1.26,1.26,0,0,0-.4-.28,1.86,1.86,0,0,0-.49-.13,4.58,4.58,0,0,0-.53,0,5.12,5.12,0,0,0-.78.06,3.86,3.86,0,0,0-.74.2.45.45,0,0,0-.07-.25.26.26,0,0,0-.23-.11,1.16,1.16,0,0,0-.52.16,4,4,0,0,0-.6.38,5.49,5.49,0,0,0-.57.47,3.15,3.15,0,0,0-.38.43c-.07.1-.16.26-.28.47s-.25.42-.39.63a4.2,4.2,0,0,1-.42.57.67.67,0,0,1-.4.26l.12.57c0,.23.1.48.14.74s.07.51.1.75a4.79,4.79,0,0,1,.05.55,1.69,1.69,0,0,0,.12.64,1.75,1.75,0,0,1,.12.65,1.79,1.79,0,0,1-.07.51,2.22,2.22,0,0,0-.06.51.56.56,0,0,0,.06.31.66.66,0,0,0,.28.13.57.57,0,0,1,.34.26,2.48,2.48,0,0,1,.17.37,1.37,1.37,0,0,0,.16.32.42.42,0,0,0,.36.14H789l.18,0a1.17,1.17,0,0,1,.22.54,1.07,1.07,0,0,0,.22.54.15.15,0,0,0,.13-.09l.06-.15a.41.41,0,0,1,.1-.13.49.49,0,0,1,.52,0,1.89,1.89,0,0,1,.2.2,1.21,1.21,0,0,0,.19.2.29.29,0,0,0,.24.09,2.09,2.09,0,0,0,.57-.09l.63-.23.64-.26a5.17,5.17,0,0,1,.57-.21,4.51,4.51,0,0,0,1.16-.53,2.77,2.77,0,0,0,.88-.92,3.12,3.12,0,0,1,.39-.56,1.93,1.93,0,0,0,.37-.57h.3l.32,0h.14l.21,0,.19,0s.08.05.08.08a.27.27,0,0,1-.1.22l-.21.15a.75.75,0,0,0-.2.15.29.29,0,0,0-.09.23h.16a1.77,1.77,0,0,1,.48.09,3.75,3.75,0,0,1,.6.24,3.3,3.3,0,0,1,.51.36A.53.53,0,0,1,798.91,225.85Zm-1.09.85a.23.23,0,0,0-.06-.16.21.21,0,0,0-.16-.07c-.07,0-.13.05-.18.14a.51.51,0,0,0-.08.21c0,.06,0,.09.11.08h.13a.45.45,0,0,0,.16,0A.15.15,0,0,0,797.82,226.7Z"/><path class="cls-2" d="M815.65,225.81a1.6,1.6,0,0,1-.13.69,1.72,1.72,0,0,1-.33.51,3.16,3.16,0,0,1-.46.43q-.27.19-.54.42a2.26,2.26,0,0,1-.37.27,2.41,2.41,0,0,1-.33.15l-.33.12-.4.16-.5.28a4.36,4.36,0,0,1-.41.24,2.52,2.52,0,0,1-.44.17,3.56,3.56,0,0,1-.61.11l-1.21.18a7.07,7.07,0,0,1-1.21.11.79.79,0,0,1-.25-.05l-.29-.11-.37-.1a1.77,1.77,0,0,0-.49-.06,1.08,1.08,0,0,1-.48-.09,1.85,1.85,0,0,1-.33-.21l-.29-.26a1.25,1.25,0,0,0-.39-.25,5.89,5.89,0,0,1-1.54-1,6.27,6.27,0,0,1-1.08-1.28,7.76,7.76,0,0,1-.75-1.53,13.52,13.52,0,0,1-.52-1.74,5,5,0,0,1-.16-1.26,3.15,3.15,0,0,1,.39-1.54,2.4,2.4,0,0,1-.15-.81,3,3,0,0,1,.17-.85,8.75,8.75,0,0,1,.42-1.14,7.71,7.71,0,0,1,.58-1,1.36,1.36,0,0,1,.58-.56,2.24,2.24,0,0,0,.29-.13s.08-.14.08-.3a.37.37,0,0,1,.15-.3,1.11,1.11,0,0,1,.34-.19l.41-.14.34-.12c.37-.18.72-.33,1.06-.46a9,9,0,0,1,1-.31,6.84,6.84,0,0,1,1-.19,10.71,10.71,0,0,1,1.16-.06,2.37,2.37,0,0,1,.65.09,4,4,0,0,1,.61.23,6.55,6.55,0,0,1,.58.32l.56.34h0a1.52,1.52,0,0,1,.43.12,1.33,1.33,0,0,0,.43.13,2.42,2.42,0,0,0,.55.49c.23.16.45.32.66.49a3.25,3.25,0,0,1,.56.55,1,1,0,0,1,.23.67v.12l0,.14.06-.08a.49.49,0,0,1,.12.15q0,.1.09.24a2.41,2.41,0,0,1,.08.25c0,.09,0,.15,0,.21a.87.87,0,0,0,.32.31.92.92,0,0,1,.32.33.53.53,0,0,0-.15.39,1.34,1.34,0,0,0,.11.51,1.24,1.24,0,0,1,.1.5,5.35,5.35,0,0,1,0,.58,5.49,5.49,0,0,0,0,.58.41.41,0,0,1-.17.35,2.32,2.32,0,0,1-.38.21l-.37.18a.28.28,0,0,0-.16.26c0,.08-.05.11-.14.11h-.24a5.42,5.42,0,0,1-1.32-.16,5.27,5.27,0,0,0-1.3-.17,9.32,9.32,0,0,0-1.4.1,10.85,10.85,0,0,1-1.4.1q-.52,0-1,0c-.34,0-.69,0-1,0a3.42,3.42,0,0,0-.51.05c-.26,0-.52.08-.79.13s-.54.12-.8.2a1.77,1.77,0,0,0-.52.22,1.06,1.06,0,0,0,0,.21,3,3,0,0,0,.42,1.46,5.22,5.22,0,0,0,1.09,1.37,6.32,6.32,0,0,0,1.52,1,3.9,3.9,0,0,0,1.7.41c.33,0,.66,0,1,0a3.2,3.2,0,0,1,1,.22,4.07,4.07,0,0,0,.75-.46c.23-.17.44-.35.65-.54s.42-.38.62-.59l.62-.6a.63.63,0,0,1,.29-.11,3.86,3.86,0,0,1,.51-.09l.52-.06a2.53,2.53,0,0,1,.34,0,1.91,1.91,0,0,1,.64.1A2.71,2.71,0,0,1,815.65,225.81Zm-2.26-6.11a1.31,1.31,0,0,0-.07-.44,3.17,3.17,0,0,1-.12-.44,4.65,4.65,0,0,1-.08-.82,2.82,2.82,0,0,0-.12-.8h0a.29.29,0,0,1-.06.17.19.19,0,0,1-.17.08.69.69,0,0,1-.34-.09,1.06,1.06,0,0,1-.29-.22c-.38-.17-.73-.33-1-.49a9,9,0,0,0-.92-.39,5.87,5.87,0,0,0-1-.28,7.07,7.07,0,0,0-1.2-.09h-.11a.21.21,0,0,0-.1.06l.08.16-.12,0c-.27.05-.5.1-.67.15a1.71,1.71,0,0,0-.48.18,2.26,2.26,0,0,0-.41.3l-.52.44a1,1,0,0,1-.32.2l-.35.13-.33.11a.58.58,0,0,0-.27.19,3.12,3.12,0,0,1-.3.73,1.47,1.47,0,0,0-.21.75.56.56,0,0,0,.19.4,1.86,1.86,0,0,0,.48.29,5,5,0,0,0,.65.21,6.19,6.19,0,0,0,.7.14l.64.07.46,0a6.1,6.1,0,0,0,1.13-.11,5.35,5.35,0,0,1,1.13-.12,11.46,11.46,0,0,1,1.17.06c.39,0,.79.05,1.18.05l.45,0a2.89,2.89,0,0,0,.59-.08,1.61,1.61,0,0,0,.52-.2A.37.37,0,0,0,813.39,219.7Z"/></g></g></svg>