<svg xmlns="http://www.w3.org/2000/svg" viewBox="0 0 598.31 467.62"><defs><style>.cls-1{fill:#f66f7c;}</style></defs><title>Fichier 8home</title><g id="Calque_2" data-name="Calque 2"><g id="Calque_1-2" data-name="Calque 1"><path class="cls-1" d="M185.49,6c-.07-1.83-.26-3.66-.49-5.48-.46-1.18-1.11-.47-.84,3C184.63,4.34,185.06,5.17,185.49,6Z"/><path class="cls-1" d="M182.2,29.8c-.32-4.16.41-5-.3-9.48.44-3.36,1.31-5.8,1.73-5.17-.17-1.23.87-5.3.1-7.2a79,79,0,0,0-2.32,15.75c-.53,1.17-.63-.1-.82-.42C180.46,27.28,180.39,32,182.2,29.8Z"/><path class="cls-1" d="M199.26,250c.57-.09,1.28-.24,2.06-.44C200.64,249.71,199.94,249.85,199.26,250Z"/><path class="cls-1" d="M200.63,363.14c1.24-.9,1.68-1.38,1.67-1.53C201.2,362.52,200.28,363.24,200.63,363.14Z"/><path class="cls-1" d="M172.1,378a6.13,6.13,0,0,0-1.86.74Z"/><path class="cls-1" d="M201.32,249.57q2.66-.56,5.31-1C206.89,248,203.87,248.91,201.32,249.57Z"/><path class="cls-1" d="M170.18,67.77a23.11,23.11,0,0,0,.72-2.91c-.27.9-.55,1.77-.85,2.67A.89.89,0,0,1,170.18,67.77Z"/><path class="cls-1" d="M112.46,249.62c.37.44.77.87,1.15,1.29-.33-.52-.7-1-1-1.56a15.64,15.64,0,0,0-1.23-1.1Z"/><path class="cls-1" d="M117.45,181.42c-.55,1.48.36,2.35.64,3.08a8.38,8.38,0,0,1,.34-3.5C118.23,180.91,117.93,181,117.45,181.42Z"/><path class="cls-1" d="M162.39,261.8a1.25,1.25,0,0,0,.7.27C163.06,261.93,162.79,261.85,162.39,261.8Z"/><path class="cls-1" d="M67.67,415.55c0-.09-.1-.08-.13-.14C67.31,415.76,67.27,415.9,67.67,415.55Z"/><path class="cls-1" d="M5.14,465.53l.75-.83a1.55,1.55,0,0,0-.27-.61Z"/><path class="cls-1" d="M110.19,389.69l.27,0C112.07,389.66,111.16,389.65,110.19,389.69Z"/><path class="cls-1" d="M277.8,341.34c-2.79-1.94-.19-1,2-.29s4.06,1.19-.22-1.5C280.25,340.36,270.6,337,277.8,341.34Z"/><path class="cls-1" d="M169.4,69.4c-.32.87-.65,1.77-1,2.65C168.89,70.86,169.2,70,169.4,69.4Z"/><path class="cls-1" d="M10,310.31a5.08,5.08,0,0,0-.42,1.45C9.73,311.7,9.85,311.37,10,310.31Z"/><path class="cls-1" d="M74.46,385.07c-.82-.33-1.62-.71-2.42-1.06A22,22,0,0,0,74.46,385.07Z"/><path class="cls-1" d="M22.1,256.64c-.2.29-.4.59-.65,1C21.71,257.26,21.92,256.94,22.1,256.64Z"/><path class="cls-1" d="M23.42,254.25a4.9,4.9,0,0,0-.41.46,8.3,8.3,0,0,1-.91,1.93A14.36,14.36,0,0,0,23.42,254.25Z"/><path class="cls-1" d="M57.08,212.19c-.28.14-.63.37-.94.55L54.82,214Z"/><path class="cls-1" d="M208.52,305.14a10.83,10.83,0,0,1-2.81.69C206.91,306,199.93,311.1,208.52,305.14Z"/><path class="cls-1" d="M169.58,67.57a3,3,0,0,1-.18,1.83c.22-.65.44-1.27.65-1.87C170,67.31,169.82,67.21,169.58,67.57Z"/><path class="cls-1" d="M14.81,251.3c1.58-2.85,3.34-5.57,5.07-8.31C18.38,245.26,16.45,248.22,14.81,251.3Z"/><path class="cls-1" d="M573.56,272a9.68,9.68,0,0,0,1.16,1.74C574.33,273.13,574,272.54,573.56,272Z"/><path class="cls-1" d="M37.05,219.94a53.46,53.46,0,0,0,4.23-3.51,5.34,5.34,0,0,0,.57-1C40.2,216.87,38.63,218.41,37.05,219.94Z"/><path class="cls-1" d="M70,190.52c.39-.3.74-.58,1-.81Z"/><path class="cls-1" d="M178,37.38a3.89,3.89,0,0,0-.39,1Z"/><path class="cls-1" d="M113.81,390.22c.83,0,1.62,0,2.34-.1C115.15,390.14,114.4,390.18,113.81,390.22Z"/><path class="cls-1" d="M597.36,305c-.75-.3-1.52-.58-2.3-.86a51.36,51.36,0,0,0-3.34-16,101.17,101.17,0,0,0-7.58-15.84c-2.88-4.95-5.9-9.44-8.4-13.33-1.29-1.92-2.39-3.73-3.36-5.34a28.11,28.11,0,0,1-2.23-4.33c-3.23-3.35-6.81-7.82-10.34-10.8l1-.58c-2.09-2.45-4.07-4.46-5.91-6.39l-2.82-2.73-1.4-1.33-1.47-1.28A109.16,109.16,0,0,0,534.08,215l3.17,1.14a24.91,24.91,0,0,0-9.44-4c-1.41-.3-2.79-.58-4.27-1a26.34,26.34,0,0,1-4.93-1.84l-1.55-2.55a158.45,158.45,0,0,0-22-8.22,85.85,85.85,0,0,0-23.07-3.3c.28-.21.78-.7,3.3-.47a153.86,153.86,0,0,0-16.55-1.38c-5.43-.08-9.74.36-9.23,1.31a6.3,6.3,0,0,0-2.53-.34,62,62,0,0,0-6.36.47c-5,.57-10.88,1.79-14.93,2.67l1.13-1.27c-6.74,2.41-6.89,2.77-16.35,5-2.12.29-2.16-.37.3-.72a21.85,21.85,0,0,0-6.23,1.6,37.53,37.53,0,0,1-8,2.11l3.2-1.51a42.49,42.49,0,0,0-6.87,1.95c-1.28.53-2.1,1.05-4.07,2a76.54,76.54,0,0,1-9.11,2.55c-3.18.73-6,1.16-6.68.86-.81.94-4.65,3-9.1,4.32-.72-.16.8-.94,1.56-1.33-12.69,3.68-17.86,8-26.61,10.46-.32-.27-.94-.22-1.67,0,8.86-3.74,16.26-6.45,16.84-6.59-.45-.92-8.3,1.9-2.55-1.82-6.11,3.14-16.18,9.13-23.87,12.06a5.27,5.27,0,0,1-1.14.12l.73-.45a29,29,0,0,0-4.67,2.29c-2.46.94-4,1.53-6.32,2.6-1.25-.36-8.95,3.75-12.72,5.63.81.85-4.19,3.14.84,1.67-.64.23.65-.47,3.13-1.76.55-.32,1.21-.65,1.56-.89l-.22.21c2.47-1.24,5.7-2.83,9.4-4.58a37.24,37.24,0,0,1-10.13,5.33c-1.62,1.61-3.4,3.33-4.44,4.24-5.83,1.15-16,5.56-17.85,5.47-5.36,3.19-11.7,6.85-17.47,10.46a.87.87,0,0,0-.07-.17,27,27,0,0,0-8-10.39,25.7,25.7,0,0,1,2.32,2.23c-1.57-.11-3.64-2.33-7-4.45a28.23,28.23,0,0,0-5.61-2.79,20.82,20.82,0,0,0-6.35-1.22c2,.13,2.87-.71,2.27-.59a54,54,0,0,0-17.93-.41,135,135,0,0,0-21.29,4.7l1.87-1A94.79,94.79,0,0,0,197,246.18c-2.09.6-4.16,1.27-6.14,1.89l-.17.05q-1.48-4.05-2.6-8.19a90.86,90.86,0,0,1-2.29-12.26l-.35-3.14-.41-3.48c-.14-1.16-.27-2.32-.43-3.47l-.66-3.47a24.43,24.43,0,0,0-2.22-7,18.53,18.53,0,0,0-1.09-1.91c-.37-.54-.77-1-1.14-1.52a19.89,19.89,0,0,1-2.36-4c-1.05-1.84-2-4.54-4-8.51l1.84,1.84.93.94c.3.32.56.65.84,1a58.13,58.13,0,0,0-14-16.76A47.82,47.82,0,0,0,142.73,169a57.89,57.89,0,0,0-14.39-1c1.2-2.34,2.54-4.95,2.44-3.89.94-5.17,3.83-7.75,5.24-15.06.48-.15,2.13-5.11,2.59-3.66,2.28-6.34-1.23,1.21-1.47.51,2.69-10.13,10.9-21.91,15.07-36.4,4.33-12.19,4.07-14.9,8-26.23,2.1-3.52.07,3.6.07,3.6a90.91,90.91,0,0,0,6.54-16.34c-.14,1.29.6.2,1.68-1.4,1.66-4.67-.14-3.59,2.65-9.51a21.56,21.56,0,0,1-.24,5.18c1.71-5.6,3-11.29,4.51-17.14,1.15-1.31-.16,3.79-.45,6,1-3.27,2.21-7.52,3.08-11.26s1.4-7,1.16-8.11L178,37.38c.46-.74.79.43.53,1.87-.84,5.86-2.85,7.93-3.31,8.12l1.06-4.17c-1.74,1.77-3,5.88-4.21,10.57a129.92,129.92,0,0,1-4.11,14l-.29-4q-.9,4.38-1.87,8.76c-1.09,1.6-2.42,2.46-1.1-1.6-3,5.45-1.45,5.31-4.27,9.9-.35.49-.33.22-.19-.31l-1.81,5.78c.12-1.23-1.47.48.15-2.86-5,9.66-5.54,16.62-8.29,19.89l.26-.87c-5.34,14.07.56,1.81-2.52,12.76l-5.74,5.82.54,1.84c-.64,1.41-1.92,4.21-2.15,3.49-1.48,5.65.87-.7.29,2.7-3.94,6.45-7.42,19.22-9.84,20.06-.14,2.83,3.35-6.36,1,1.28-2.79,1.34-3.1,8.69-6.4,14.74-.28-2.35,2.6-8.2-.76-2.15a14.29,14.29,0,0,1-1.29,5.45c-.77.1-1.54.2-2.3.32a79.69,79.69,0,0,0-19.52,5.8c1.38-.82,1.28-1.23,3.74-2.09a36.6,36.6,0,0,0-5.45,1.55c-2,.82-4.3,1.78-6.29,2.82s-3.81,2.06-5.06,2.93-2,1.5-1.93,1.68c-3.65,1.85-1.19-.21-3.59.69a33.27,33.27,0,0,0-4,2.26c-1.35.9-2.67,1.94-3.94,2.89s-2.45,1.9-3.5,2.65a10.34,10.34,0,0,1-2.72,1.53c-.33.1.25-.42.92-1-.65.49-1.43,1.06-2.27,1.71l-4.19,3.18c-2.58,2.12-4.4,3.74-2.7,3.09-8,5.75-13.78,12.69-19.58,17.93a28.51,28.51,0,0,1-2.89,3.86c-.6.69-1.24,1.4-1.89,2.1l-1.88,2.16c-2.51,2.8-4.52,5.46-4.33,6.62-.25-.41-1.1.17-2.29,1.38a56.61,56.61,0,0,0-4.12,5.21,71.53,71.53,0,0,0-7,12.52c.53-2.1-3.12,4.47-2.6,2-.89,1.55-1.61,3.16-2.29,4.62a37.87,37.87,0,0,0-1.63,3.92c-.78,2.27-1,3.6-.35,3.22-3.57,5.62-5.42,12.13-6.48,18-.34,1.44-.48,2.89-.74,4.25s-.53,2.65-.71,3.9a27.2,27.2,0,0,1-1.91,6.47L0,300.66c0,1.35.05,2.69.07,4l0,2c0,.66.11,1.33.16,2,.12,1.31.23,2.62.35,3.93A82.12,82.12,0,0,0,4,327.7c.7,2.45,1.72,4.76,2.64,7.08a37.13,37.13,0,0,0,1.58,3.38l1.66,3.31c.64,1.06,1.27,2.11,1.89,3.16s1.22,2.12,2,3.09l2.1,3c.35.49.68,1,1,1.46L18,353.53c-.44.12-1.6-.78-2.8-2.42a48.64,48.64,0,0,1-4-6c-.65-1.13-1.3-2.24-1.9-3.27s-1-2.05-1.5-2.86c-.9-1.62-1.62-2.57-2-2.2a74.2,74.2,0,0,0,13.56,19.6,174.38,174.38,0,0,0,17.12,15.69c1.8,1.44,1.16,1.22-.13.54s-3.1-2-3.82-2.35a166.9,166.9,0,0,0,22,14.21,106.72,106.72,0,0,0,11.35,5.3,85.72,85.72,0,0,0,11.58,3.74c-1.2-.95,1.65-.6,5.05-.19l-1.66,1.9c-9.21,9.19-19,12.4-30,24.78l2.12-.8C48.39,423,39.32,432,39.43,430.67a7.61,7.61,0,0,1-2.85,3.17L36,433.5l-9.94,10.62c-8.52,7.35-.45-3.07-12.49,8.12-4.28,4.37-11.24,13.43-9.3,12.13,1.79-1.72,4.79-4.12,5.36-3.79L5.89,464.7c.29,1,0,2.62,1,2.88s3.18-.81,8.54-5.06l6.09-7.37,2.85-1.45-5.77,5.54c3.87-2.51,5.44-5,7.44-7.6a10,10,0,0,0,3.59-2L35.26,442c1.32-.23-2.1,3.9,2.78,0,2.66-3.56-4.2,1.63.78-3.66,3.93-2.45,3.41-1,6.88-5.16.88-.15.24.84-1.18,2.41,3.13-3.62,9.18-8.59,10.35-11,4.23-2.38,11.86-10.82,12.67-9.18A75.91,75.91,0,0,1,76.2,406c-2.33,3.4.78.76,4.47-2.34s8-6.62,7.9-5.08a22.38,22.38,0,0,1,2.8-3.41,37.7,37.7,0,0,0,4.28,1.11c3.43.74,6.57,1.39,2.15,2.34,2.1.14,4.74,0,4.31-.6a9.88,9.88,0,0,1,2.75.63c.22.18-.33.42-1.92.56a53.34,53.34,0,0,0,6.1,0,30,30,0,0,0,3.11-.34,70.37,70.37,0,0,1,8.33-.59c0,.38-2.07.66-3.12,1.12,5.18-.91,10.26-2,18.77-3-.38.26.24.41-.92.67a81.32,81.32,0,0,0,9.11-2.11c3.18-.9,6.19-1.95,9.22-3,6-2.24,12.11-4.72,19.58-7.64-1.81,1.76-.51,1.33,1.43.58s4.47-1.88,5.18-1.4c2.54-1.43,5.05-2.89,7.5-4.43-1.13.35-2.26.7-3.4,1,6.73-3.54,11.84-8,17.47-11.19-1.43,1.22-2.89,2.42-4.35,3.6q5.9-3.93,11.5-8.28c-2.25,1.45-4.54,2.84-6.84,4.19,2.91-2.49,2.46-2.76,2.35-3.08s.13-.67,4.24-3.48c-.77.67.75-.43,2.86-2a71.81,71.81,0,0,1,6.61-4.45v0a86.94,86.94,0,0,1,9.29-9.22c1.36-.66.31,2,1.2,1.57.9-1.73,4-4.88,7-8.27s6-7,6.93-9.22c-.75,1.38-.21,1.95.25,1.66.41-1,.79-2,1.17-3,2.43-2.52,2.85-2.85,3-2,.86-1.08,1.42-1.85,1.78-2.4a199.58,199.58,0,0,0,19.65,11.86c-5.33-5.55,5.36,2.79,5.38,0,4.29,2.05,5.94,2.84,6.26,3.19l-.86-.54.88.57h0c4.13,2.55,8.3,5,12.54,7.43,2.87,2-4.4-1.34-4.22-.69,9.55,4.46,3.61,2.76,9.79,6.12-1-1.37,3.85.29,9.33,2.78-2.5-1.36-5-2.79-7.42-4.2a53,53,0,0,1,12.62,5.4c2.8,1.61,5.65,3.22,12.87,5l-4.69-.82c3.67,1.07,10.32,3.33,17.07,5.22s13.57,3.43,17.42,3.42c1.22.62,2.76,1.73-.51,1a248.72,248.72,0,0,0,28.17,5.89c9.47,1.56,18.46,2.77,25.34,4.42l-1.46.39c3.38.34,6-.24,10.11.92-.25.22-1.43.41.12.65a106,106,0,0,1,13.48.86l-3.89.27A116.62,116.62,0,0,0,448.34,385c6.47-.2,12.56-.68,20-.83,0,.89,3.44,1.49,7.82,1.82s9.63.34,13.14.29l-.23.26a162.23,162.23,0,0,0,27.68-3.69,216.1,216.1,0,0,0,25.8-7.52c6-.92,15.89-4.2,25.72-10.14a75.56,75.56,0,0,0,14-10.82,64.53,64.53,0,0,0,10.36-13.48c-1.8,2.68-.85-1.06.34-4.47a30.2,30.2,0,0,0,2.25-8,27,27,0,0,1,.59-3.13c.18-.73.44-1.09.81-.84-.1.56-.15,1.13-.29,1.69a12.45,12.45,0,0,0,1.39-3.63,32.62,32.62,0,0,0,.63-5.35A61,61,0,0,0,597.36,305ZM310.82,234.45c-.06.08-.19.19-.24.27a2.74,2.74,0,0,1,.75-1c2.45-1.37,3.4-1.55,3.84-1.51C314,232.79,312.6,233.49,310.82,234.45Zm32-7.23c-.78.61,3.1-.78,5.65-1.43-2,.74-4.44,1.75-7,2.83C340.76,228.5,341.22,227.88,342.85,227.22Zm-10.44,5.37v0l-3.89,1.8Zm-65.87,34.47a31,31,0,0,1-.31,5.88,9.25,9.25,0,0,0-.29-2.42c-.08-.22-.14,0-.16.09s0,.18,0-.33.05-1.13,0-2.41C266,267.61,266.25,267.34,266.54,267.06Zm-71.38-14.78c3.68-1.3,6.26-2.29,3.74-2.19l-1.09.25.67-.26a76.45,76.45,0,0,1,10.35-3.25,98.76,98.76,0,0,1,10.83-2,112.06,112.06,0,0,1,21.46-.73l-.06.39a35.11,35.11,0,0,1,12.39,2.76,29,29,0,0,1,9,6.13,9.46,9.46,0,0,1,1.6,3.21c.24,1,.17,1.59-.25,1.25.38.71.69,1.35,1,1.94l-.72.48c0-.17.12-.28.26-.24l-1.15-.12c.12.3.21.54.3.74a62.68,62.68,0,0,0-9.65,7.49c-3,2.11-3.9,1.64-5.24,2.06,1.69-1.27,3.85-2.53,4.67-3.38-6,4.18-18.29,11.46-18.95,13.66-8.1,4.35,3.61-3.93-6.88,3.06l1.19-1.3a110.27,110.27,0,0,0-11.1,6.56,122.3,122.3,0,0,1-19.64-25.46,95.68,95.68,0,0,1-5.09-10.18Zm27.52,41.49-.7-.63a56.46,56.46,0,0,1,4.8-3.09C227.65,290.24,224.91,292.19,222.68,293.77Zm-36.85-38.15c2,3.69,4.31,7.4,6.35,10.53a51.84,51.84,0,0,1-6.33-8.75c-.29-.48-.57-1-.85-1.45C185.25,255.84,185.53,255.74,185.83,255.62Zm-59.26-89.56c-.16.83-.3,1.54-.41,2.14h-.06C126.27,167.51,126.42,166.8,126.57,166.06Zm-4.26,14.24c.37-1.1.76-2.22,1.16-3.37l2.07-.4a26.72,26.72,0,0,1,3.51-.4l1.81-.12c.61,0,1.22,0,1.83,0,0,0-.48.22-.06.39.84-.14,1.77-.26,2.8-.38s2.1,0,3.26,0a25.22,25.22,0,0,1,3.59.33,17.59,17.59,0,0,1,1.89.28l1.9.46c.63.17,1.29.29,1.92.5l1.88.69c.63.25,1.28.46,1.89.73l1.79.9c.6.31,1.2.6,1.78.91l1.64,1.08,1.6,1c.51.37,1,.79,1.43,1.17-.73-.3-1.28-.65-1.78-.85s-.85-.38-1.09-.47c-.48-.17-.46,0,0,.94.89.55,1.26.8,1.53.8s.39-.16.61-.25.55-.1,1.24.27a13.31,13.31,0,0,1,1.34.88,15.33,15.33,0,0,1,1.92,1.83c.36.63.92,1.37,1.42,2.25s1,1.86,1.44,2.76a10.82,10.82,0,0,1,1,2.55,3,3,0,0,1,.12,1.64,46.61,46.61,0,0,0-4.49-6.5,16.91,16.91,0,0,0,1.52,3c.32.51.71,1,1,1.51s.68,1.07,1,1.61a31.59,31.59,0,0,1,3.59,6.32l-.8-.24a21.3,21.3,0,0,1,.85,2l.74,1.77c.48,1.1.93,2.07,1.25,3,.68,1.85,1.38,3.32,1.94,4.88s1.06,3.17,1.62,5.22.87,4.57,1.33,8l.27-1.5a23.83,23.83,0,0,1,1.12,4.26,15.43,15.43,0,0,1,.23,2.7,13,13,0,0,0,.21,2.72,17.84,17.84,0,0,0,1.34,4.19l-.91,2.69c.77,2,2,5.12,3.75,8.6l-.84.38c-.78-1.58-1.5-3.09-2.13-4.42.43,1.21,1,2.83,1.75,4.61-.66.34-.81.56.25.6v0c-10.57,1.56-20.15,4.27-29.7,5.85a60.3,60.3,0,0,1-14.19.85c-4.62-.36-9.21-1.58-12.75-4.15,1.82,1,4.73,1.39,3.17.87a21.31,21.31,0,0,1-11.37-8.32,2.88,2.88,0,0,0,.42,1.87,12,12,0,0,0,.69,1.16c.14.23.29.49.47.77s.38.59.61.93a12.34,12.34,0,0,1-3.35-2.92,17.9,17.9,0,0,1-3-5.14,7.46,7.46,0,0,0,1.65,2.5c.28.17.3-.21.19-.85a50.42,50.42,0,0,1-.89-5.19c-.13.55-.72-.34-.93,0a20,20,0,0,0-.34-3.8,2.32,2.32,0,0,0-.78-1.21c-.54-.64-1.51-1.72-.94-7.45l.49.61c-.22-4.23-.49-8.25.35-12.81.68-.87.61.28.52,1.69s-.21,3.08.22,3.27c.61-6.32,0-12.95,2.45-18.43-.39,2.74-1.25,6.61-1.46,9.36a74.37,74.37,0,0,0,3.7-11.17l.09-.25c.61-1.8,1.23-3.59,1.89-5.37-.43,1.1-.78,2.06-1.09,2.92.82-2.44,1.65-4.87,2.54-7.29l-1.13,2.57C119.71,188.54,120.86,184.55,122.31,180.3Zm-32.58,207c-.34-.08-.66-.15-.93-.19.35.07.64.15.91.22l-.54.6-2.23.29-.11.13-.47-.05c-1.82-.58-3.23-1-4.38-1.34s-2.06-.53-2.86-.7a25.77,25.77,0,0,1-4.66-1.19c1.41.59,2.82,1.18,4.26,1.71-1.7.23-5.35-1.07-10.42-2.93-.11-.35,1,.06,2,.38s1.79.61.94.16c-3-.49-6-2.14-9.15-4.07A106.64,106.64,0,0,0,52,374.37c-3-2.45.38-1.34-2.28-3.39-1-.52-2-1-2.73-1.46s-1.44-1-2-1.43c-1.21-.91-2.15-1.74-3.11-2.58s-1.8-1.81-3-2.82c-.58-.52-1.23-1.06-2-1.64s-1.52-1.29-2.47-2c1.35,2.57,1.91,2.77-3.7-1.21a104.48,104.48,0,0,0,12.57,9.71L41,366.33c-.75-.42-1.46-.89-2.2-1.34-1.45-.9-3-1.78-4.4-2.74,1.83,1.59,3.94,3.06,5.79,4.42S43.85,369,45,369.94c-4.44-2.22-3.92-2.13-2.47-.13a50.85,50.85,0,0,0-7.81-6.39c-1.4-1-2.73-2.15-4.1-3.33a21.37,21.37,0,0,1-3.73-4.16l1.9-1.43c-3.48-4.44-6.57-8.25-9.72-12.65-.73-1.13-1.49-2.28-2.26-3.46s-1.37-2.53-2.08-3.88a32.92,32.92,0,0,1-1.85-4.38c-.29-.78-.59-1.57-.85-2.4s-.43-1.7-.64-2.59l.43,2.32c.13.78.39,1.52.58,2.28a5.9,5.9,0,0,1-1.17-2.06c-.33-1-.66-2.14-1-3.41a38.24,38.24,0,0,1-.84-4c-.25-1.34-.6-2.64-.79-3.83.85.33.74-2.66,1-4.68-.28.14-.43-2.51-.62-5.38,0-1.43-.08-2.92-.23-4.14s-.26-2.18-.65-2.54l.81-3.25c.26-1.07.65-2.13,1-3.19,1.1-5.83,1.5-9.23,1.84-12.65a39.09,39.09,0,0,1,3.15-12.23c-.46,3.6,1.93-1.11-.24,6.34,1.34-3.6,2.76-6.76,2.32-7a12.27,12.27,0,0,0,1.14-2.43c.4-1.1.85-2.42,1.4-3.74s1.09-2.69,1.66-3.9A15.81,15.81,0,0,1,23,254.71c.24-.8.25-1.42.47-2.32a14.63,14.63,0,0,1,1.89-3.91c.24-.2.31-.07.32.06a19.56,19.56,0,0,1,1.14-2.64c.52-1.14.73-1.92-.71-.54,4.28-4.47,9.2-11.3,14.5-17.65s11-12.18,15.52-15a156.69,156.69,0,0,1,20.42-17c-.28.48.2.34-1,1.11,1.15-.69,2.08-1.28,2.84-1.82a20.19,20.19,0,0,0,1.91-1.38,17.32,17.32,0,0,0,2.23-2.27A14.44,14.44,0,0,1,85,189.05c.61-.45,1.36-.93,2.29-1.48s2.11-1.07,3.51-1.69c6.09-1.78-5.4,3.63-1.74,2.24,1.37.76,4.49-1.07,8.43-3.12,1-.56,2-1,3.09-1.54s2.13-1.05,3.25-1.45a25.62,25.62,0,0,1,6.45-1.75l-1.8.71a33.43,33.43,0,0,0,4.9-1.26c.88-.24,1.79-.52,2.73-.82l1.44-.47,1.49-.4.42-.12a26.69,26.69,0,0,0-1.07,3.1c1.28.71-3.47,12.12-5.25,21.73-.15-.36-1.5,4-2.72,9.73-.6,2.85-1.17,6-1.55,9.1s-.61,6-.69,8.36l-.25-.27c.76.9,1.08,3.73,1.76,7.18a44.53,44.53,0,0,0,1.37,5.43,28.45,28.45,0,0,0,2.27,5.16c-.86.15-2-.8-3.59-4.48a30.39,30.39,0,0,0,2.83,6.41c.64.59,1.29,1.32,2.21,2.28a34.19,34.19,0,0,0,3.84,3.57,18.48,18.48,0,0,1-2-.39,26.93,26.93,0,0,0,12.74,6.52,84.63,84.63,0,0,0,15.45,1.8c.3-.5-1.93-1.22-2.72-1.9-.4-.35-.44-.67.32-.94a29.13,29.13,0,0,1,5.15-.79c.44.5.95,1.49-2.09,1.8a44.14,44.14,0,0,1,5.52-.55c-1.5.46-3,.87-4.57,1.23,5.05.14,2.58-.9,6.55-1.18,0,.8,3,.2,2.52.89-.51.1-1.39.13-2.33.19a12.21,12.21,0,0,0-2.7.34c4.55-.21,10-.68,11.94-.42-.48-.37-.19-1,3-1.79,4.17-.92,4.93-.89,5.28-.67s.27.62,2.75.21c1.88-1,7.3-1.94,7.1-3.14a7.18,7.18,0,0,1,3.68-.29l.39.77c.88,1.83,1.91,3.49,2.72,4.88a21.13,21.13,0,0,0,2.12,2.86l-1.88-2.79a17,17,0,0,1-1.51-3c3.89,5.07,8.47,11.76,14.55,19.69-1.75.21,2.07,5.6,7.25,11.34,1,1.14,2.11,2.29,3.2,3.43-3.3,2.48-6.44,5-9.6,7.58-7.76,6.32-15.75,12.79-27,19.34a4.17,4.17,0,0,1,1.45-.62c-26.21,17.26-50.82,39.7-76,57.7C93.32,382.31,92.85,383.79,89.73,387.3Zm142.92-54.4c-1.15,2,.51.38,2.21-1.26s3.4-3.39,2.52-1.5c-5.21,5.9-12.34,10.3-14.08,11.95a39.54,39.54,0,0,0-7.2,7.46,31.59,31.59,0,0,1-7.8,7.46c.71-.25,1.53-.34,1.38.33s-1.26,2.11-4.54,4.81c-3.24,2.27-5.55,3.21-6.51,3.23s-.6-.86,1.31-2.43c1.51-1.1,2.33-1.51,2.36-1.34,2-1.61,4.46-3.77,1.69-2.33l-.53,1c-1.71.95-4.75,3-7.2,4.42s-4.28,2.38-3.43,1.38c-4.12,3-2.37,2.32.66.67-3.69,2.07-6.68,3.82-9.71,5.53A96.56,96.56,0,0,1,172.1,378c1.59-.44,3.18-.6,1.71.1-7,2.9-8.46,3.57-9.31,4.3a8.48,8.48,0,0,1-1.48,1.12,25.69,25.69,0,0,1-4.44,2c-2.88.6-2.52,0-2.64-.23s-.7-.09-5.54,1.64c-6.16,1.19-1.59-.85.66-1.9a47.63,47.63,0,0,1-12.38,3.05c-3.8.44-7.12.53-9.73.74,1.58-.31,3.15-.67,4.72-1a39.46,39.46,0,0,1-3.93.75c-1.24.19-2.42.32-3.61.43.94.22,1.89.46,2.84.65-2.85.17-5.24.35-5.22-.06-2.89.82,2.39,1.45-3.43,2.65-1.94-.15-4.85.07-7.47.05a26.27,26.27,0,0,1-3.51-.18,3.61,3.61,0,0,1-2-.68,26.35,26.35,0,0,0,5,.17c.6-.1.38-.28.1-.48-.44-.33-1-.68,1.37-.86h-.9c-1.19,0-2.49-.1-3.9-.24-.42-.16.41-.25,1.18-.29-5.62-.8-6.91-.68-8.32-.31a11.22,11.22,0,0,1-2.7.42,16.34,16.34,0,0,1-2,0c4.81-4.21,10.52-8.85,14.67-13a8.38,8.38,0,0,1-1.83,2c4.66-3.6,6.35-4.22,9.51-6.32-.4-1.7,6.53-7.71,9.81-11.52,6.6-3.29-2.3,4.15.39,3.89-1.09-.78,9.05-8.74,6.47-8.06,4.92-2.65,4-2.56,7.07-3.27-.43-2.14,3.85-3.41,6.76-7.13,6.93-4.07,2.74.21,9.37-5.55,1.85-1,1.31-.2.32.85s-2.43,2.37-2.43,2.37c7.13-5.34,2.47-3.67,3.48-5.49,8.28-6.71,4.6-2.07,8-3.62,5.11-4.26,8.43-8.36,12.49-11.21.44,0,1.28-.51.54.4,5-5.08,17-12.13,22.89-17.95a2.86,2.86,0,0,1,1.09-.3c-1.51.14-2.1-.37-2.18-1,3.29-2.29,5.63-4.95,7.41-5a8.85,8.85,0,0,0-2.78,2.69l3.24-2.7c3.91-1-4.48,3.6-3.89,4.46,2.62-2,5.38-4.22,8.1-6.35l.58.6-2.1,1.23c7.34-2.33-5,3.15,1.95,1.28l1.59-1a35.08,35.08,0,0,1,4,4.77c7.15,5.4,14.14,10.78,21.64,16.13l.07,0A44.46,44.46,0,0,1,232.65,332.9Zm15.55-20a79.32,79.32,0,0,1-11.95-9.43l.26,1.11c-3.57-1.87-3.51-3.28-5.66-5.24,0,.69,2.92,3.2.77,1.95-2.4-1.86-4.77-3.8-7.08-5.82a154.69,154.69,0,0,1,13.88-9.29c2-2.16-1.39-.43.62-2.6,7.3-5.38,10.81-6.49,13.74-7.35s5.32-1.43,10.57-5.57c.91-.91,1.53-1.78,2.36-2.71a35.91,35.91,0,0,1-.19,3.69c-.16,1.41-.34,2.62-.54,3.86-.38,2.52-.77,5.11-1.42,9.39-.09-1.57-.78-.18-1.66,2s-2,5.21-2.67,7.05c1-1.65,1.89-3.34,2.76-5.06a67.2,67.2,0,0,1-4.8,11.11l-.27-2.47C253.65,302.88,250.92,308,248.2,312.86Zm339.46,7a54.64,54.64,0,0,1-2.3,11.74L585,330a46.56,46.56,0,0,1-10.82,17.37,66.28,66.28,0,0,1-18.61,13.16c2.63-1.08,3.79-1.22,3.83-.74,0,.24-.25.63-.79,1.1a14.73,14.73,0,0,1-2.39,1.57c-.75-.1-1.52-.25-2.26-.38-2.43,2,4.68-1.62-.59,1.9-5.63,2.26-4.28.21-1.31-1.49l-3.25,1.61-3.32,1.52c-.53-.21,1-1,1.22-1.63a10.35,10.35,0,0,1-3,1.28c-1.31.41-2.89.78-4.5,1.16s-3.27.73-4.75,1.19a14,14,0,0,0-3.79,1.51l-.5-.28c-7.82,1.91-13.61,3-19.06,3.93s-10.58,1.61-17.22,2.15c-.17,1.16-5.4,1.27-9.35,2.34-9.87.07-20.8-.82-32.65-1.33-8.37.1-2.49.82-6.29,1.26-.55-1-12.4-1.9-6.2-2.12-7.11-.51-11.64-1-16.66-1.42s-10.5-1-19.49-2c1.87.73,4,1.26,2.84,1.42-3.28-.34-7.32-1.64-6.77-2.05l.88,0c-10.15-1-21.54-4-32.24-7.33s-20.76-6.81-28.77-8.19l.89.16c-5.43-1.31-10.86-2.69-16.24-4.21-7.21-2.74,4.61.82-.55-1.68a129.68,129.68,0,0,1-21.56-7.63c-6.15-2.74-11.82-5.5-18.74-8.24-4.5-3.86-13.53-8.42-22.73-13.72-2.29-1.3-4.59-2.66-6.83-4.05a107.1,107.1,0,0,0,6.1-10.54c2.71-5.3,5-10.65,7.11-16.06,1.26-1.39.56,1.07-.28,3.43s-1.8,4.59-.43,3c3.12-7.87,5.31-16.65,5.07-25.63a41,41,0,0,0-.64-6.14,45.61,45.61,0,0,1,4.47-2.26l-2,2.93c10.79-5.91,5-5.43,16.87-10.68-1.75,1.59-8.26,5.08-6.54,4.34,7.9-3,4.77-3.59,10.44-6.63l1.81.59c11.49-6.28,24-13.56,37.19-19.64-.57.7-2.66,2.09.6,1.1a237.7,237.7,0,0,1,26.38-10.83c9.12-3.15,18.31-5.78,26.82-7.84,2-1,4.07-2,6.11-3,1.51-.39,2.93-.22,1.36.42,6.71-1.28.15-.81,3.21-2.08,3.76-1,5.15-.56,2.84.35a171.22,171.22,0,0,1,22.5-5.88c8.51-1.61,17.24-2.42,23.57-2.08l-2.44.48a46.32,46.32,0,0,0,10.33-1.25,31.92,31.92,0,0,1,4.22-.61,27.55,27.55,0,0,1,5.63.37c-.59,0-1.18.09-1.76.14,5.32.34,10.77.8,16.16,1.56A145.12,145.12,0,0,1,493.89,207c10.2,2.64,19.35,6.65,26,11.14a12.12,12.12,0,0,1,4.3,1.64c1.82,1.07,4,2.38,6,3.85,4.14,2.8,7.86,5.79,9.13,5.3a76.4,76.4,0,0,1,7.42,8.17l3.33,4c.36.43.76.89,1.19,1.38l1.35,1.67c1,1.2,2.14,2.56,3.41,4.25a17.21,17.21,0,0,0,2.11,2.2c.69.63,1.37,1.21,2.1,1.79s1.48,1.2,2.29,1.94a27,27,0,0,1,2.48,2.74l-.92.83c1.87,1.77,3.62,3.7,5.44,5.58l1,4.23c1.05,1.42,2,2.89,3,4.34-1-1.84-1.84-4.12-1.37-4a58.65,58.65,0,0,1,6.23,11.61,47.47,47.47,0,0,1,1.64,4.76,4.6,4.6,0,0,1,.31,2.13,88.74,88.74,0,0,1,6.91,17.7c-.55-.31-1.4-3.35-2.41-5.65,2,4.68,1.62,5.24,1.37,5.63a1.31,1.31,0,0,0-.2,1.05,12.4,12.4,0,0,0,.29,1.44c.14.64.35,1.48.66,2.57.09-1.23.84.56,1.07.74C588,312.23,588,315.91,587.66,319.89Z"/><path class="cls-1" d="M77.47,393.49h0Z"/><path class="cls-1" d="M74.07,392.91c1.51.48,3.25,1.09,4.6,1.47s2.32.5,2.25.06c-1-.22-2-.4-3-.65-.18-.11-.32-.21-.44-.3A12.87,12.87,0,0,1,74.07,392.91Z"/><path class="cls-1" d="M174.51,320.25l-1.48.87Z"/><path class="cls-1" d="M135.21,397.07l-1.05.18C134.61,397.19,135,397.13,135.21,397.07Z"/><path class="cls-1" d="M354,216.92a0,0,0,0,0,0,0C354.08,216.9,354.07,216.9,354,216.92Z"/><path class="cls-1" d="M25.7,248.7a1.47,1.47,0,0,0,0-.16C25.68,248.62,25.67,248.68,25.7,248.7Z"/><path class="cls-1" d="M307.45,237.26c-.35.2-.53.34-1,.59.56-.17,1.08-.34,1.61-.52l.73-.75Z"/><path class="cls-1" d="M198.63,250.07l.27,0,.36-.08A5.5,5.5,0,0,1,198.63,250.07Z"/><polygon class="cls-1" points="563.93 258.01 564.14 257.82 563.07 256.77 563.93 258.01"/><path class="cls-1" d="M114.32,239a3.66,3.66,0,0,0,0,1.22A4.14,4.14,0,0,0,114.32,239Z"/><path class="cls-1" d="M74.07,392.91c-.42-.15-.84-.28-1.22-.38C69.93,391.74,71.89,392.34,74.07,392.91Z"/><path class="cls-1" d="M214.19,359c2.18-1.64,3.82-3,3.47-3.55C216.54,356.6,215.44,357.8,214.19,359Z"/><path class="cls-1" d="M14.28,252.23s0,0,0,0l.52-.95Z"/><path class="cls-1" d="M214.19,359c-1.79,1.36-3.95,2.89-5.66,4.38A36.17,36.17,0,0,0,214.19,359Z"/><path class="cls-1" d="M180,38.73l-.36,1.73.48-1.5C180.05,39,180,38.86,180,38.73Z"/><path class="cls-1" d="M180,38.73l.35-1.71A6.25,6.25,0,0,0,180,38.73Z"/><path class="cls-1" d="M181.05,33.4,180.36,37A11.89,11.89,0,0,0,181.05,33.4Z"/><path class="cls-1" d="M164.91,81.21a.64.64,0,0,0-.2-.6Z"/><path class="cls-1" d="M165.06,81.71l-.15-.5c-.19,2.12-4.5,8.47-5,11.44C161.19,89.84,163.68,85.81,165.06,81.71Z"/><path class="cls-1" d="M138.8,130.57c-1.13,1.58-2.64,3.66-.82-.93-6.48,12.11,2-2.24-3.65,10.82Z"/><path class="cls-1" d="M263.43,301.13c0-.77.05-1.55.06-2.33-.82,2.05-1.72,4.05-2.64,6.05C261.72,303.62,262.59,302.39,263.43,301.13Z"/><path class="cls-1" d="M239.8,323.61l1.06-1.59c-1.4,2-2.81,4-4.29,5.91C237.67,326.51,238.74,325.06,239.8,323.61Z"/><path class="cls-1" d="M50.37,220.07l-1.82.08C46.64,222.47,47.26,223.88,50.37,220.07Z"/><path class="cls-1" d="M177.64,235.78a28.76,28.76,0,0,1-.48-3c-.12-1-.24-1.94-.32-2.84a33.37,33.37,0,0,0-.46-4.32,20.79,20.79,0,0,0,0,4.72A20,20,0,0,0,177.64,235.78Z"/><path class="cls-1" d="M595.82,298.26c-.33-1.15-.72-2.26-1.12-3.37s-.77-2.22-1.23-3.3c.35,1,.65,2.1.93,3.16C594.9,295.91,595.4,297.06,595.82,298.26Z"/></g></g></svg>