<svg xmlns="http://www.w3.org/2000/svg" viewBox="0 0 441.37 243.33"><defs><style>.cls-1{fill:#f55a69;}</style></defs><title>Fichier 3home</title><g id="Calque_2" data-name="Calque 2"><g id="Calque_1-2" data-name="Calque 1"><path class="cls-1" d="M221,241.65c-.59.25-.26.85,1.36.7l1.13-1Z"/><path class="cls-1" d="M231.9,243.33c1.89-.54,4-1.49,2.78-2.35-1.84,1-2.31.67-4.3,1.83-1.61.13-2.83-.28-2.56-.65-.57.26-2.51-.19-3.37.45a13.64,13.64,0,0,0,7.55.06C232.6,242.87,232,243.15,231.9,243.33Z"/><path class="cls-1" d="M383.79,204.44l-.93.45A5.17,5.17,0,0,0,383.79,204.44Z"/><path class="cls-1" d="M439.79,126.73c0,.76.07,1.09.16,1.14C439.92,127.15,439.89,126.56,439.79,126.73Z"/><path class="cls-1" d="M439.68,109.4c.05.38.12.68.15,1A2.06,2.06,0,0,0,439.68,109.4Z"/><path class="cls-1" d="M383.79,204.44l2.39-1.16C386.16,202.91,384.91,203.81,383.79,204.44Z"/><path class="cls-1" d="M253.46,239.74a6.84,6.84,0,0,0-1.39.36c.45-.08.88-.14,1.32-.2A1.11,1.11,0,0,1,253.46,239.74Z"/><path class="cls-1" d="M345.13,224.32l-.75.3a4.11,4.11,0,0,0-.48.62Z"/><path class="cls-1" d="M313.36,234.62c.74-.15.79-1,1-1.46a2.9,2.9,0,0,1-1.45,1C312.91,234.28,313.06,234.44,313.36,234.62Z"/><path class="cls-1" d="M261.16,242.42l-.92.21Z"/><path class="cls-1" d="M367.13,214.88a.7.7,0,0,0,.41.14C367.49,214.92,367.33,214.88,367.13,214.88Z"/><path class="cls-1" d="M225.65,217.51c0,.07,0,.1,0,.15C225.85,217.54,225.9,217.48,225.65,217.51Z"/><path class="cls-1" d="M263.59,212.35l-.49.21a1.51,1.51,0,0,0,0,.48Z"/><path class="cls-1" d="M428.41,79.66l.06.13C429,80.45,428.73,80.05,428.41,79.66Z"/><path class="cls-1" d="M166.27,3c1.65.17.38.55-.67,1s-1.9.82.54.86C165.64,4.54,170.31,3,166.27,3Z"/><path class="cls-1" d="M254.32,239.77l1.34-.14A11.8,11.8,0,0,0,254.32,239.77Z"/><path class="cls-1" d="M166.14,4.83h0Z"/><path class="cls-1" d="M373.56,33.38a2,2,0,0,0,.48.67C374.05,34,374,33.79,373.56,33.38Z"/><path class="cls-1" d="M415.55,66.2l-.81-1A11.58,11.58,0,0,0,415.55,66.2Z"/><path class="cls-1" d="M348,22.86a6.58,6.58,0,0,0-1.77-.77,1.69,1.69,0,0,0,.24.2A3.37,3.37,0,0,1,348,22.86Z"/><path class="cls-1" d="M320.89,13.67a4.6,4.6,0,0,0,.46.3l.88.21Z"/><path class="cls-1" d="M140.94,217a4.07,4.07,0,0,1,1.15,1C141.77,217.26,145.86,217.74,140.94,217Z"/><path class="cls-1" d="M253.52,240.21a1.15,1.15,0,0,1,.8-.44l-.93.13C253.32,240,253.31,240.15,253.52,240.21Z"/><path class="cls-1" d="M344.49,28.62c-1.37-.57-2.72-1.18-4.1-1.73C341.53,27.39,343,28.05,344.49,28.62Z"/><path class="cls-1" d="M11.66,100l-.21,1A2.58,2.58,0,0,0,11.66,100Z"/><path class="cls-1" d="M327.87,22.73a10.6,10.6,0,0,0-2.21-1.32,2,2,0,0,0-.56.05Z"/><path class="cls-1" d="M142.1,217.94a0,0,0,0,1,0,0A0,0,0,0,0,142.1,217.94Z"/><path class="cls-1" d="M171.45,219.22c-4.22-.28-2,.95-3,1.53-5.08-.06-2.27-1-3.94-1.68-3.16,0-5.69.8-8,.47-.16-.2-.6-.32,0-.49-3.44.55-9.85-1.23-13.88-.76a1.21,1.21,0,0,1-.46-.35,1.46,1.46,0,0,1,.35,1.6c-1.9-.31-3.64.08-4.22-.76a2.9,2.9,0,0,0,1.88-.18l-2,0c-1.6-1.33,2.76.11,2.89-.65-1.95-.16-4.09-.22-6.09-.4a23.65,23.65,0,0,1-5.33-.86c-.2-.57,1.53-.28,2.84-.08s2.22.3.35-.53l4.47,1.26c-3.17-2.24,2.73.64-.14-1.66a53.91,53.91,0,0,0-6.31-1.14,37,37,0,0,1-6.27-1.29c-1.46.25.25.92-1.21,1.16-8.65-1.08-5.94-4.12-12.38-4.5-1.75.17-2.76,1.29-6.86-.74l1.81-.64c-5.56-1.88-3.72.57-9.31-2.14,1.18-.06,4.5,1.12,3.7.71-3.48-2.13-2.88-.28-5.78-1.32l-.25-1.17c-5.91-2-12.58-3.89-19-6.63.48-.12,1.69.08.35-.87-8.14-3.18-16.6-8.47-23.26-13.49-1.06-.32-2.11-.65-3.15-1-.62-.42-.92-1.1-.16-.79-2.51-2.09-.46.37-2-.22-1.57-1-1.71-1.83-.61-1.36A74.82,74.82,0,0,1,37,174.3a41.28,41.28,0,0,1-8.21-7.76l1,.63a13.32,13.32,0,0,0-4-3,7.92,7.92,0,0,1-3.39-3.26l.67.52a97.54,97.54,0,0,1-9-12.51,34.55,34.55,0,0,1-4.67-12.51,3.47,3.47,0,0,1-1-1.92,27.05,27.05,0,0,1-.67-3.28c-.37-2.3-.49-4.5-1.42-4.76.13-1.43.31-2.39.43-3.15s.37-1.35.52-2,.32-1.36.49-2.41c.1-.52.15-1.13.3-1.85s.35-1.54.56-2.51a6.7,6.7,0,0,0-.17-2.77,9.44,9.44,0,0,1-.06-3.19l.92.15c0-1.23-.15-2.5-.09-3.74l1.65-1.51.53-2.43c-.35.92-1,1.87-1.24,1.65a17.42,17.42,0,0,1,.91-3c.46-1,1-1.94,1.46-2.76a22,22,0,0,1,1.34-2c.36-.49.71-.73.81-.7l1.75-4.27a20,20,0,0,1,1-2.1l1-2.08c.21.37-.49,1.76-.92,2.92,1.75-4.69,1.3-.26,2.9-4.55-.49.4-.3-.59-.38-.76a26,26,0,0,0,3.29-3.84c.59-.84,1.28-1.66,1.92-2.49s1.27-1.67,1.83-2.44l0,1c4.51-5.14,9.52-11,15.57-15.92-2.31,1.6-2.55.35-.87-1.24l1.32.15c.76-1.42-2.08,1.26-.2-1.26,2.4-1.73,2.25-.35,1.13.93l2.59-2.45c.34.1-.22.73-.16,1.16.39-.69,1.74-1.44,3.12-2.27s2.88-1.64,3.43-2.68l.33.12c6.41-4.44,9.3-6.53,14.81-9.78-.16-.39.33-.87,1-1.44a16.51,16.51,0,0,0,2.32-1.91c4.28-2,9.28-3.73,14.42-6.15,3.5-2,.79-1.12,2.24-2.3.58.59,5.76-1.76,3.27-.07,6.29-2.67,8-3.46,16-6.92-1,0-2,.24-1.6-.19,1.44-.65,3.48-.9,3.39-.47l-.37.21c4.45-2.05,10-3.27,15.3-4.19l3.9-.74c1.28-.22,2.53-.45,3.71-.71a31.89,31.89,0,0,0,6.33-2l-.41.17L145.41,13c3.65-.66-2,1,.72.92a55.29,55.29,0,0,1,10.71-2.55,62.61,62.61,0,0,0,9.71-1.71,18.93,18.93,0,0,0,5.6.23c2.21-.15,4.69-.58,7.24-.89s5.16-.68,7.61-.91a32.48,32.48,0,0,1,6.62,0l-.47-.5c1.89-.66,2.35.14,3.77.16-.23-.4-2.12-.33-.94-.7L199,6.75l3.1-.18c2.07-.11,4.16-.19,6.26-.26,4.19-.09,8.43,0,12.67.13,4.25.25,8.5.44,12.73.79l6.32.54,3.15.26,3.12.32a8,8,0,0,0,5.07-.81c1.11-.48,2.42-.81,6.21.23l-2.27.77c12.44-.13,25.08,2.93,37.12,4.28-.76.09-.83.38-2,.15a21.66,21.66,0,0,0,5.53,1.3c2,.29,3.79.35,3.88.07,1.83.46.31.61,1.38,1.15,2.41.92,6.47.57,7.62,1.6.19.17-.76.05-1.23,0,1.71.07,7.51,2,6.18.78a53.71,53.71,0,0,0,6.24,1.8,26,26,0,0,1,5.53,1.75c2.53-.15,7.26,2.75,8.37,1.81-.37.59,1.41,1.51,3.64,2.34,1.12.41,2.36.79,3.49,1.1a21.38,21.38,0,0,0,2.88.72c-1,0,2.16,1.31.91,1.43A33.52,33.52,0,0,0,349,30.16c1.06.27,1.7.31,1.58-.13,2.43,2,5.34,2.82,7.89,3.72s4.78,1.77,5.83,3.43a157.1,157.1,0,0,1,24.33,12.5c-.94.84-8.15-5.14-8.57-3.75,3.59,2,6.61,3.32,9.4,5,1.41.81,2.84,1.61,4.26,2.59s2.85,2.12,4.42,3.45-1.32-.29-2-.54c.85.58,1.68,1.16,2.5,1.75s1.56,1.27,2.32,1.9L403.2,62c.74.64,1.47,1.28,2.14,2,1.38,1.34,2.74,2.65,4.12,3.91s2.61,2.62,4,3.84c-.11.07-.74-.42-1.32-.89,1,1,2.11,2.56,2.45,2.06-.34-.32-.71-.62-1.06-.93-.47-1.12.9-.43,2.34.66a24.06,24.06,0,0,0,3.29,2.45c-1.47-.41-.39,1.06.48,2.44s1.46,2.73-.56,1.82c.64.7,1.56,1.49,1.77,1.07.71,1.22.77,1.71-.43.83a23.7,23.7,0,0,0,1.83,2.06c.42.46.71.74,1,1a12.87,12.87,0,0,1,2.28,3c-.27.14-.86-.6-1.4-.83.43.43.86.85,1.29,1.31l.65.71c.2.26.4.53.59.81a24.71,24.71,0,0,1,2.37,4.3c-.27-.13-.28.37-.81-.67l.6,1.09.51,1.08c.35.7.7,1.39,1.05,2.05l1.07,2c.37.64.62,1.33.94,2,.58,1.36,1.2,2.75,1.71,4.27a44.81,44.81,0,0,1,1.05,5c-.88-.94-.84-.3-.71.63s.16,2.21-.36,2.48c.27,1.27.59,2.55.84,3.83.15-.53.23-1.07.35-1.62.05.43.12.85.2,1.27s.1.83.14,1.24c.12.81.24,1.61.35,2.39s.21,1.56.27,2.32a12.27,12.27,0,0,1-.17,2.27c-.14-.87-.19-1.73-.39-2.58,0,2.15,0,4.32,0,6.49l.59-3.66c.39,3.56,1.49-.31.85,4.37,0-1-.5,3.53-1.39,5.23v0a17.74,17.74,0,0,1-.92,6.1c-.52.56-1.06-.85-1.4-.49.22.93-.37,2.9-.94,4.93-.25,1-.64,2-.92,2.92a7.68,7.68,0,0,0-.44,2.31c.07-.76-.46-1-.66-.85l.14,1.63c-.82,1.42-1.11,1.54-1.39,1.12-2.35,4.28,2-.77-1.22,4.14a8.43,8.43,0,0,1,.29-1.19c-1.39,2.57-2.87,5-4.18,7.41-.67,1.21-1.48,2.32-2.24,3.46a28.62,28.62,0,0,1-2.47,3.22c-1,.25-.22-.66.39-1.63s1.24-1.87.33-1.42c-4.32,6.3-9.19,13.2-15,18.1.39-.27.75-.56,1.11-.86.19,1-1,1.74-2.55,2.67-.76.46-1.61.95-2.41,1.53a14,14,0,0,0-2.2,1.94c.66-.67.4-1.44.32-1.15-2.12,1.47-4.09,3.21-6.37,5.13l-3.67,3c-.66.53-1.32,1.12-2.05,1.66L385,200.49l.59-.87c-1.38.67-3.09,1.71-4.82,2.78s-3.57,2-5,2.79c-.64.84-2.31,1.74-1,1.68-5,1.43-9.14,4-13.26,6.27l-3.05,1.75c-1,.54-2.07,1.05-3.12,1.52a26.7,26.7,0,0,1-6.51,2.13c1-.38,2.24-1.3,1.45-1l-7,3.18c.82.43,1.09,0,2.8-.07a15,15,0,0,1-4.47,2.52c3.09-1.65-.42-1-2-.89.31.11-.1.5.1.66-4.22.19-.17,1.54-5.64,2.61l.15-.44a37.31,37.31,0,0,1-5.71,2.45c-1.12-.49,2-1,1.91-1.7-2.95,1-5.4,3.38-8.37,3.35.61-.29,1.37-.56,2.13-.84s1.51-.6,2.11-.91a19.32,19.32,0,0,0-5.72.82l.23,0-5.18,1,1.35-.12a11.29,11.29,0,0,1-5.59,2.66,28.59,28.59,0,0,0-6.78,2.3c4.69-2.46.65-.92.83-1.89-1.36.06-3.41.2-2.9-.16-2.27,1.24-4.16.32-7.35,2.11-.21-.26-2.61.46-2.21-.36-3.11.82.85.36.65.77-2.34.95-5.28,1.19-8.46,1.52A37.61,37.61,0,0,0,275.06,238a48.64,48.64,0,0,0-6.5,1.89,36.35,36.35,0,0,1-6.22,1.73c-2-.28,1.46-1.22,1.46-1.22a31.2,31.2,0,0,0-8.38.81c.57-.31-.06-.46-1-.7-2.34.27-1.48,1.18-4.63,1a8.51,8.51,0,0,1,2.26-1.33c-2.74.46-5.44,1.2-8.3,1.67-.79-.46,1.68-.9,2.67-1.3-3.2.51-8.33.89-9.3,1.76l2.09.2c-1.18.08-.63-.67.23-.86,2.73-.74,4,.12,4.18.39-.68.12-1.36.19-2,.29,2.21,1.65,8.23-.84,12.34-1l-1.62,1.37c1.39-.43,2.77-.92,4.15-1.4.92.23,1.61.86-.41,1.25,3,.32,2.57-.7,5.18-.27.29.08.17.15-.08.23l2.85-.66c-.53.32.58.83-1.22.83a20.9,20.9,0,0,0,6.37-.84c1.66-.42,2.91-.76,3.95-.41l-.42.13c3.57-.66,3.7-1,3.61-1.25s-.42-.65,2.17-1.6l4,1.66.56-1c.74-.08,2.21-.25,2,.16,2.64-1.09-.53-.3,1-1.17,3.68.15,9.66-2.19,10.74-.95,1.12-.95-3.47.19.18-1.09,1.39,1.3,4.28-1.21,7.64-1.21-.81,1-3.95,1.26-.57,1.26,1.64-1.71,6.3-1.24,8.94-2.15-.07-.56,1.37-1,3.36-1.57s4.55-1.25,6.74-2.06c-.16.49,8.56-2,12.8-3l-.07.21c.44-1.33,4.73-2.6,7.7-4,.11.67-.34,1.14-1.91,2,1-.34,1.93-.69,2.88-1.08a9.84,9.84,0,0,1,3.18-2l-.42,1c1.89-.79,3.74-1.71,5.69-2.76a39.64,39.64,0,0,1,6.59-2.87c-.06-.82-4.67-.25.14-3,.36.28.84.84-.39,1.62a9.08,9.08,0,0,1,2.31-1.3l-1.7,1.6c2.29-.76.88-1.08,2.63-1.84.22.55,1.45-.23,1.41.31a10.43,10.43,0,0,0-2.17,1,19.46,19.46,0,0,1,5.48-1.63c-.33-.23-.35-.69,1-1.49,3.59-1.95,1.56,0,3.82-.87.68-.83,3.2-1.68,2.83-2.48a2.91,2.91,0,0,1,2-.36c.82-.7,2.95-2,4.55-3s2.64-1.94,1.39-1.68l-.49.23.27-.21h0a42.39,42.39,0,0,1,4.28-3.1c.75-.48,1.52-1,2.28-1.41l2.27-1.45c1.52-1,3.05-1.9,4.53-2.89s2.84-2.11,4.13-3.25l.18.24c1.55-1.36,3.22-2.93,4.79-4.4.78-.73,1.52-1.45,2.18-2.13a18.13,18.13,0,0,0,1.61-2c.87-.84,2.43-1.61,2.31-1,2.14-2.33,2.08-2.86,5.53-5.87-1.77,2.68,1.09-.5-1.93,2.65,1.49-1.43,2.48-2.23,3.41-3.16a18.66,18.66,0,0,0,2.75-4c-.38,1.64,2.77-1.79,3.66-3.6-.72.68-1.4,1.38-2.14,2,1.23-1.83,2.37-3.38,3.57-4.94l.21,1.43a21,21,0,0,0,3.51-5c.46-.86.89-1.72,1.29-2.57l1-2.6c.32-.85.64-1.67,1-2.48l.51-1.19c.14-.4.3-.8.46-1.19a16.52,16.52,0,0,1,2.54-4.34c.21-2.34-2.24,4.12-2.22,1.94a24.6,24.6,0,0,1,1.39-2.58c.44-.86.9-1.67,1.33-2.41a26.11,26.11,0,0,0,1.82-3.26c1.72-5.22-.1-5.23,1-10.74-.47.67-1.42,1.19-1.31-2.93.3-3.81,1.71-4.72,1.88-2.21,0,.94-.15,1.39-.27,1.35,0,.63.08,1.38.15,1.77s.21.43.45-.34l-.33-.54c.23-1,.4-2.81.57-4.26s.25-2.5.58-1.86c-.49-3-.61-1.27-.77.94a45.75,45.75,0,0,0,0-6.54c-.23-2-.58-4-.76-6.62-.08.86-.39,1.68-.5.87A15.12,15.12,0,0,0,439,109c-.13-.61-.25-1.08-.35-1.44a3.63,3.63,0,0,0-.57-1.27,4,4,0,0,1-.57-.78,23.24,23.24,0,0,1-.89-2.26c-.37-2.93,1.56.62-.46-4.19-.72-3.12.69-1,1.34.16-2.22-4.28-2.88-8.5-4.09-11l1.41,2.13a35.47,35.47,0,0,1-2-3.52l0,1.62c-.57-1.38-1.14-2.5-.87-2.61-.55-.57-.67-.17-.9.08s-.55.32-1.61-.78c-.72-1.84-3.35-4.86-3-5.88a22.14,22.14,0,0,0,1.42,2.13c.22.22.27,0,.32-.15.1-.4.19-.95,1.62,1.25a23.2,23.2,0,0,1-1.95-3.18c-.05-.23.3.06.55.38-1.34-2.68-2-3.08-2.68-3.44a4.94,4.94,0,0,1-1.24-.79,19.63,19.63,0,0,1-2.11-2.31c.91.28-.1-1.72-.82-2.42,1.55,1.92,0,1.46-1.68,0a10.38,10.38,0,0,0-2.49-2.89,12.27,12.27,0,0,1-1.84-1.6L417,68c-.92-.22-2.16-1.68-4.11-3.52.15-.47,1.86,1.58,1.34.75a13.49,13.49,0,0,1-3.5-3.56,15.37,15.37,0,0,0-4.12-4.21c-1.21-1.54.53-.87-.6-2.17-4-2.57-3.45-3.81-7.67-6.43.68,1.45,1,1.44-2.17-.1,2.23,1.49,4.44,3,6.67,4.55L398.09,51c1,.74,2,1.44,3,2.08.49.31,1,.62,1.35.9a10.4,10.4,0,0,1,1,.85,6.53,6.53,0,0,0-1.76-.82c-.14,0,.08.3.33.91a11.07,11.07,0,0,0-3.8-3.22c-.74-.44-1.48-.89-2.21-1.4a13.79,13.79,0,0,1-2.14-1.75L395,47.16a27.54,27.54,0,0,0-6.85-4.58,85.88,85.88,0,0,1-8.27-4.69l1.91,1.48c-1.22.1-4-2.23-6.25-3.2.48-.42-.75-1.31-1.48-2.12-.1.45-4.83-2.6-6-1.86L365.43,30a17.33,17.33,0,0,0-6.09-2.12,19.25,19.25,0,0,1-6-1.77c1.85.1-.4-1.33,3.34-.21-1.77-.77-3.32-1.57-3.51-1.2-.88-.85-5.26-1.26-6.69-2.45a5.46,5.46,0,0,1-3.31-.41c-.18-.2.11-.27.11-.27-.11.25-3.32-.77-1.77.48-4.93-3.79-15.63-5.28-20.15-8.12l-6.51-1.53c-2.21-.48-4.37-1-6.22-1.41.27-.11.08-.28.76,0-5-1.83-3.52.87-9.2-1-2.77-1.58,3.21.17,1.43-.59-.2-1-2-1.36-4.17-1.67s-4.8-.48-6.67-1.42l1,.06a18.15,18.15,0,0,0-5.47-.92,48.27,48.27,0,0,1-7-.61s.27-.13.07-.28c-3.54.37-10,0-14.83-.39,1.58-.59,2.22-.13,1.4-1-2.16-.16.49,1.28-3.82,1.06-1.35-.55-4.41-1.22-4.74-2.09l4.06.36c-2-1.27-5.26-.49-7.38-.88l.31-.44c-6.26-.27-6.42.82-13.11.38l.68.38c-3.71,1-3-.78-6.73-.07L234.14.6c-2.43.15-8.5,1-12.83,1.13C223.77.89,228.85.51,232,0c-2.4,0-8.17,0-9.42.54A10.75,10.75,0,0,1,225.73.4a29.76,29.76,0,0,1-5.11,1,56.1,56.1,0,0,1-6.47.42c.41-1.13-2.71-1.32-6.37-1.23s-7.85.22-9.64-.57c-8.4,1.42-16.82.83-26.63,2.27,3.7,1.33-2.86.42-2,2.16a13.11,13.11,0,0,1-3.35.41h-7c-1.72-.27,2.1-.74,1.82-1.11-5,.65-2.22-.45-5.61-.39.79.52-1.56,1.25-4.44,1.54L155,5a14.68,14.68,0,0,1-6.53.94,13.25,13.25,0,0,0-6.55,1l2.08-1c-1.75.56-5.05,1.28-8.31,2.13s-6.42,2.05-8,3.19c-.67,0-1.63-.32-.1-.84-8.54,2-18.24,6.83-24.88,8.36l.48-.64c-1.5.67-2.39,1.74-4.47,2,0-.21.46-.64-.26-.41a27.55,27.55,0,0,1-5.85,2.87l1.53-1.15a38.58,38.58,0,0,0-5.37,2.11c-1.56.78-2.95,1.58-4.29,2.4-2.69,1.58-5.08,3.37-8.23,5-.27-.58-2-.31-4,.43S68,33.16,66.46,33.85l0-.22c-2.23,1.15-4.18,2.41-6,3.6A61.31,61.31,0,0,0,55.23,41c-3.35,2.48-6.39,5.23-10,8.12a49.19,49.19,0,0,0-10.71,7.54L33,57.92,31.5,59.33l-3,2.79c-1,.9-1.92,1.87-2.84,2.78S23.87,66.67,23,67.46c1.17-.88.57.82-.37,2.19-1.59,1.53-3.08,5.25-3.82,4.24l.51-.6c-1,.26-2.1,1.39-3.19,2.81-.55.71-1.1,1.49-1.64,2.27-.27.39-.55.78-.81,1.17s-.48.8-.72,1.18l1,1.34a27.92,27.92,0,0,0-2.46,2.83c-.2.26-.39.53-.59.8l-.53.86c-.34.59-.68,1.19-1,1.81a42.1,42.1,0,0,0-1.88,3.81c-.51,1.34-1,2.68-1.48,4-.23.66-.5,1.29-.68,1.94L4.83,100c-.35,1.24-.71,2.42-1.07,3.5a18.18,18.18,0,0,1-2,5.14c0,.57-.11,1.17-.14,1.78s-.07,1.26-.1,1.89a35.3,35.3,0,0,0-.1,3.65l-.83-.21A18.4,18.4,0,0,0,.36,118c-.06.7-.11,1.37-.16,2-.07,1.31-.23,2.52-.2,3.83A37.5,37.5,0,0,0,.25,128a47.85,47.85,0,0,0,.84,5.15l-.87-1.5c.78,4.53,3.55,5,4.86,8.71L4.31,142A89.12,89.12,0,0,0,9,152.49a36.51,36.51,0,0,0,6.81,9.06c-.22,0-.64.07-1.43-.88.52.73,1.3,1.79,2.18,2.93S18.4,166,19.34,167c1.91,2.1,3.65,3.49,3.81,2.43-.39.44,1,1.82,2.84,3.38s4.3,3.17,6,4.26l-1,.23c1.63.7,2.51,1,3.48,1.44a35.19,35.19,0,0,1,3.93,2.4c.82.75.38,1.12-.67.06,2.69,2.59,2.77,1.09,6.15,4l-1.67-.53c3.08,2.26,3,1.8,5.09,2.46a20.92,20.92,0,0,1,3.8,2.52c1.23,1,2.22,1.95,2.27,2.42a8.47,8.47,0,0,1,4.6,1.69c.12.39-.67.15-1.07,0,5.26,3.64,8.73,3.65,12.26,6.31,0,.28.16.53.45.76-4.54-2.2-8.09-4.19-7.73-4.06-.37.69,3.2,2.72-.18,2.13,3.2,1,8.76,2.42,12.23,4.37a1.6,1.6,0,0,1,.37.46l-.41-.1a9.34,9.34,0,0,0,2.34.93,31.49,31.49,0,0,0,2.93,1.52c.18.8,4.2,2.12,6.08,2.91.15-.84,2.59.24.52-1.3.27.17-.4-.05-1.66-.53a7.57,7.57,0,0,0-.83-.24l.15,0c-1.24-.47-2.86-1.11-4.67-1.9a11.85,11.85,0,0,1,5.21,1.84c1.17-.11,2.43-.2,3.13-.22,2.13,2.11,7,4.53,7.42,5.46,6,1.64,14,4.23,18.2,3.7,1.74.27,1.82,1,2.39,1.39a19.7,19.7,0,0,0-2.76-.38c3.48.59,10.13,2.45,11.2,1.55,4.2,1.48-2.66.44,3.32,1.61l-.88.16c5.67,2.15,10.63,2.37,15.68,2.57a63.86,63.86,0,0,1,16.7,2.16c-.89-.24-1.34-.36-1.51-.56a136,136,0,0,0,23,1.68c7.77.05,15.47-.17,23,.17,4.26,0,4.67-.7,7.19-1.48l1,.82c1.44-.5,2.87-1,4.3-1.49a19.66,19.66,0,0,1,4.43-.52c1.44,0,2.86,0,4.35,0a31.13,31.13,0,0,0,4.65-.22A21.27,21.27,0,0,0,234,222l-1.12-.41c2.83-.38,8.76-2.19,8.45-1.4a2.62,2.62,0,0,1,1.92-.78l.2.44c2.2-.82,4.41-1.62,6.58-2.52,2.66-.55,2.59,0,2.8.35s.73.69,4.57-.43c2.8-1,7.58-3.95,6.42-3.88-1.14.36-3,.68-3.21.26l2.47-1.08c0-1.48,1.44-3.46-5-2.35-1.33.76-2.7,1.43-4.05,2.15l-1.59-.22,3.62-1.14c-2.25,0-3.37,1-4.74,1.74a3.4,3.4,0,0,0-2-.22c-1.31.81-2.61,1.66-3.95,2.43-.65-.41,1.66-1.53-1.29-1.11-1.87,1.09,2.23.71-1,1.93-2.25-.1-1.74-.76-4.1.32-.43-.28,0-.62,1-1a34.55,34.55,0,0,1-3.81,1.18,8.21,8.21,0,0,0-3,1.18c-2.35-.3-7.49,1.52-7.48.19a23,23,0,0,1-5.83,2c3.55-2.05-7.72.88-6.91-1-2.64,1.72-10,1.55-14.93,2.52a2.62,2.62,0,0,1,1.25-.33,27.65,27.65,0,0,1-5.42-.62c-.33,1.22-4.68,1.54-7.05,2.27-1.72-.57-1.19-.92-.37-1.25s1.92-.69,1.38-1.23c.18,1-6,.91-4.8,1.72-2.61-.73-2.26-.38-3.58-1.39-.51,1.45-2.45.18-4.66,1-3.76-.93-.9-1.42-5.09-1.21-1-.3-.52-.51.16-.64A15.53,15.53,0,0,1,171.45,219.22Zm-96.33-21v0L77,199Zm-7.52-3.64c.89.49,2,1.08,3.22,1.65.14.39-.28.52-1,.14C70.28,196.38,68.59,195.35,67.6,194.56Zm13.81,12.79c-1.3-.39-1.65-.75-1.76-1,.6.24,1.3.5,2.23.82l.19,0A1.39,1.39,0,0,1,81.41,207.35Z"/><path class="cls-1" d="M84.08,207.24c.19.06.3.07.54.15-.23-.17-.45-.33-.68-.47l-.54.06Z"/><path class="cls-1" d="M382.7,205l.16-.09a1.31,1.31,0,0,1-.38.11A1,1,0,0,1,382.7,205Z"/><polygon class="cls-1" points="9.57 108.7 9.36 108.67 9.39 109.39 9.57 108.7"/><path class="cls-1" d="M339.58,222.31a1.32,1.32,0,0,0-.65,0A2.12,2.12,0,0,0,339.58,222.31Z"/><path class="cls-1" d="M320.54,228.31l-2.79.48C319,228.62,319.85,228.46,320.54,228.31Z"/><path class="cls-1" d="M305.61,231.82a1,1,0,0,0-.21.43h0Z"/><path class="cls-1" d="M412.13,70.81a5.07,5.07,0,0,0-.42-.4C410.67,69.52,411.34,70.15,412.13,70.81Z"/><path class="cls-1" d="M435.67,135.11c-.05-.78-.1-1.54-.09-2.34C435.35,134,435.2,135,435.67,135.11Z"/><path class="cls-1" d="M344.93,28.82h0l-.46-.19Z"/><path class="cls-1" d="M436.05,129.49a13,13,0,0,0-.47,3.28A20.09,20.09,0,0,0,436.05,129.49Z"/><path class="cls-1" d="M239.81,240.53h-.74c0,.05,0,.1-.08.14Z"/><path class="cls-1" d="M239,240.67l-.82.13A2,2,0,0,0,239,240.67Z"/><path class="cls-1" d="M236.46,241.09l1.71-.29A3.72,3.72,0,0,0,236.46,241.09Z"/><path class="cls-1" d="M260.09,239.4l.2-.32A.39.39,0,0,0,260.09,239.4Z"/><path class="cls-1" d="M266.22,238.66c-1.47.14-3.74-.24-5.76.16l-.17.26C261.2,238.52,264.89,239.39,266.22,238.66Z"/><path class="cls-1" d="M292.38,238.42l-5.18.72c.95.15,2.21.36-.11.88C293.75,239.76,285.62,239.55,292.38,238.42Z"/><path class="cls-1" d="M308.32,235.44c-2.69.84.15.45.05.67C310,235.39,310.43,235.21,308.32,235.44Z"/><path class="cls-1" d="M412.1,183l.34.74C413.94,182.13,412.24,183.51,412.1,183Z"/><path class="cls-1" d="M423.21,163.35c-.52.48-1,.94-1.58,1.41V166Z"/><path class="cls-1" d="M434.42,154.4c-.08.32-.21.62-.32.93.48-1.15.82-2.38,1.23-3.55Z"/><path class="cls-1" d="M326,14.37l.35,1.1C327.79,15.75,328.4,14.84,326,14.37Z"/><path class="cls-1" d="M242,1a8.07,8.07,0,0,0-4.77-.51C239.18.65,241.06,1.1,242,1Z"/><path class="cls-1" d="M10.69,85.2l.65-1.67a32.27,32.27,0,0,0-1.43,3C10.17,86.11,10.4,85.63,10.69,85.2Z"/></g></g></svg>