<svg xmlns="http://www.w3.org/2000/svg" viewBox="0 0 242.02 243.33"><defs><style>.cls-1{fill:#f55a69;}</style></defs><title>Fichier 2home</title><g id="Calque_2" data-name="Calque 2"><g id="Calque_1-2" data-name="Calque 1"><path class="cls-1" d="M121.19,241.65c-.32.25-.14.85.75.7l.62-1Z"/><path class="cls-1" d="M127.16,243.33c1-.54,2.21-1.49,1.52-2.35-1,1-1.26.67-2.35,1.83-.89.13-1.55-.28-1.41-.65-.31.26-1.37-.19-1.85.45a4.29,4.29,0,0,0,4.14.06C127.54,242.87,127.23,243.15,127.16,243.33Z"/><path class="cls-1" d="M210.45,204.44l-.51.45A2.73,2.73,0,0,0,210.45,204.44Z"/><path class="cls-1" d="M241.16,126.73a3.16,3.16,0,0,0,.08,1.14C241.23,127.15,241.21,126.56,241.16,126.73Z"/><path class="cls-1" d="M241.09,109.4c0,.38.07.68.09,1A3.66,3.66,0,0,0,241.09,109.4Z"/><path class="cls-1" d="M210.45,204.44l1.31-1.16C211.75,202.91,211.06,203.81,210.45,204.44Z"/><path class="cls-1" d="M139,239.74a2.54,2.54,0,0,0-.76.36c.24-.08.48-.14.72-.2A.94.94,0,0,1,139,239.74Z"/><path class="cls-1" d="M189.25,224.32l-.41.3a3.84,3.84,0,0,0-.26.62Z"/><path class="cls-1" d="M171.83,234.62c.41-.15.43-1,.53-1.46a2,2,0,0,1-.79,1A.81.81,0,0,0,171.83,234.62Z"/><path class="cls-1" d="M143.2,242.42l-.5.21Z"/><path class="cls-1" d="M201.31,214.88a.3.3,0,0,0,.22.14C201.51,214.92,201.42,214.88,201.31,214.88Z"/><path class="cls-1" d="M123.73,217.51c0,.07,0,.1,0,.15C123.84,217.54,123.87,217.48,123.73,217.51Z"/><path class="cls-1" d="M144.54,212.35l-.27.21a2.5,2.5,0,0,0,0,.48Z"/><path class="cls-1" d="M234.91,79.66l0,.13C235.23,80.45,235.09,80.05,234.91,79.66Z"/><path class="cls-1" d="M91.17,3c.91.17.21.55-.37,1s-1,.82.3.86C90.83,4.54,93.39,3,91.17,3Z"/><path class="cls-1" d="M139.45,239.77l.74-.14A3.75,3.75,0,0,0,139.45,239.77Z"/><path class="cls-1" d="M91.1,4.83h0Z"/><path class="cls-1" d="M204.84,33.38a2.36,2.36,0,0,0,.26.67C205.11,34,205.06,33.79,204.84,33.38Z"/><path class="cls-1" d="M227.86,66.2l-.44-1C227.58,65.59,227.73,65.92,227.86,66.2Z"/><path class="cls-1" d="M190.82,22.86a3.21,3.21,0,0,0-1-.77l.13.2C190.18,22.31,190.43,22.44,190.82,22.86Z"/><path class="cls-1" d="M176,13.67a3.48,3.48,0,0,0,.26.3l.48.21Z"/><path class="cls-1" d="M77.28,217a3.28,3.28,0,0,1,.63,1C77.74,217.26,80,217.74,77.28,217Z"/><path class="cls-1" d="M139,240.21a.71.71,0,0,1,.44-.44l-.51.13C138.9,240,138.9,240.15,139,240.21Z"/><path class="cls-1" d="M188.89,28.62c-.74-.57-1.48-1.18-2.24-1.73C187.28,27.39,188.08,28.05,188.89,28.62Z"/><path class="cls-1" d="M6.39,100l-.11,1A4.57,4.57,0,0,0,6.39,100Z"/><path class="cls-1" d="M179.79,22.73a6.75,6.75,0,0,0-1.22-1.32c-.11,0-.22,0-.3.05Z"/><path class="cls-1" d="M77.92,217.94a0,0,0,0,1,0,0A0,0,0,0,0,77.92,217.94Z"/><path class="cls-1" d="M94,219.22c-2.31-.28-1.12.95-1.64,1.53-2.79-.06-1.25-1-2.17-1.68-1.73,0-3.11.8-4.4.47-.08-.2-.33-.32,0-.49-1.89.55-5.4-1.23-7.61-.76a.88.88,0,0,1-.25-.35,2.45,2.45,0,0,1,.19,1.6c-1-.31-2,.08-2.31-.76.63.22.71-.05,1-.18l-1.12,0c-.87-1.33,1.52.11,1.59-.65-1.07-.16-2.24-.22-3.34-.4a7.77,7.77,0,0,1-2.92-.86c-.11-.57.83-.28,1.56-.08s1.21.3.19-.53l2.45,1.26c-1.74-2.24,1.5.64-.08-1.66a18,18,0,0,0-3.46-1.14,12.71,12.71,0,0,1-3.44-1.29c-.8.25.14.92-.66,1.16-4.75-1.08-3.26-4.12-6.79-4.5-1,.17-1.51,1.29-3.76-.74l1-.64c-3-1.88-2,.57-5.1-2.14.64-.06,2.47,1.12,2,.71-1.91-2.13-1.59-.28-3.17-1.32l-.14-1.17A101.14,101.14,0,0,1,41.26,198c.26-.12.92.08.19-.87-4.46-3.18-9.1-8.47-12.76-13.49-.58-.32-1.15-.65-1.72-1-.34-.42-.51-1.1-.09-.79-1.38-2.09-.25.37-1.07-.22-.86-1-.94-1.83-.33-1.36a46.74,46.74,0,0,1-5.17-5.91,37.32,37.32,0,0,1-4.51-7.76l.57.63a10.12,10.12,0,0,0-2.17-3,7,7,0,0,1-1.86-3.26l.37.52a117.07,117.07,0,0,1-4.93-12.51,54.65,54.65,0,0,1-2.57-12.51,4.89,4.89,0,0,1-.57-1.92c-.13-1-.29-2.12-.37-3.28-.2-2.3-.27-4.5-.78-4.76.07-1.43.17-2.39.24-3.15s.2-1.35.29-2,.17-1.36.26-2.41c.06-.52.09-1.13.17-1.85s.19-1.54.31-2.51a12.54,12.54,0,0,0-.1-2.77,16.48,16.48,0,0,1,0-3.19l.5.15c0-1.23-.08-2.5,0-3.74L6,103.42,6.28,101c-.19.92-.57,1.87-.68,1.65a27.77,27.77,0,0,1,.5-3c.25-1,.53-1.94.8-2.76s.53-1.53.73-2,.39-.73.45-.7l1-4.27c.14-.73.34-1.41.53-2.1l.57-2.08a13.43,13.43,0,0,1-.51,2.92c1-4.69.72-.26,1.59-4.55-.26.4-.16-.59-.2-.76a27.24,27.24,0,0,0,1.8-3.84c.32-.84.7-1.66,1.06-2.49s.69-1.67,1-2.44v1a131.21,131.21,0,0,1,8.54-15.92c-1.26,1.6-1.4.35-.48-1.24l.73.15c.41-1.42-1.14,1.26-.11-1.26,1.31-1.73,1.23-.35.62.93l1.42-2.45c.19.1-.12.73-.09,1.16a7.72,7.72,0,0,1,1.71-2.27,6.76,6.76,0,0,0,1.88-2.68l.18.12c3.51-4.44,5.1-6.53,8.12-9.78A2.2,2.2,0,0,1,38,40.83a12.65,12.65,0,0,0,1.27-1.91c2.35-2,5.1-3.73,7.91-6.15,1.92-2,.43-1.12,1.23-2.3.32.59,3.16-1.76,1.79-.07,3.45-2.67,4.39-3.46,8.77-6.92-.55,0-1.12.24-.88-.19.79-.65,1.91-.9,1.86-.47l-.2.21a24.11,24.11,0,0,1,8.38-4.19l2.14-.74c.7-.22,1.39-.45,2-.71a12.94,12.94,0,0,0,3.47-2l-.23.17L79.73,13c2-.66-1.12,1,.4.92A19.82,19.82,0,0,1,86,11.4a21.07,21.07,0,0,0,5.33-1.71,5.8,5.8,0,0,0,3.07.23c1.21-.15,2.57-.58,4-.89s2.83-.68,4.17-.91a9.83,9.83,0,0,1,3.63,0l-.26-.5c1-.66,1.29.14,2.07.16-.13-.4-1.16-.33-.52-.7l1.68-.32,1.7-.18c1.14-.11,2.28-.19,3.43-.26,2.3-.09,4.63,0,7,.13,2.33.25,4.66.44,7,.79l3.47.54,1.72.26,1.72.32a2.82,2.82,0,0,0,2.78-.81c.6-.48,1.32-.81,3.4.23L140,8.54c6.83-.13,13.76,2.93,20.36,4.28-.42.09-.46.38-1.09.15a7.82,7.82,0,0,0,3,1.3c1.12.29,2.08.35,2.13.07,1,.46.17.61.75,1.15,1.33.92,3.55.57,4.18,1.6.11.17-.41.05-.67,0,.93.07,4.12,2,3.39.78a20.61,20.61,0,0,0,3.42,1.8,10.42,10.42,0,0,1,3,1.75c1.39-.15,4,2.75,4.59,1.81-.2.59.77,1.51,2,2.34a17.68,17.68,0,0,0,1.91,1.1,7.79,7.79,0,0,0,1.58.72c-.57,0,1.18,1.31.5,1.43a13.47,13.47,0,0,0,2.23,1.35c.58.27.93.31.86-.13a12.74,12.74,0,0,0,4.33,3.72c1.39.93,2.62,1.77,3.2,3.43a86.21,86.21,0,0,1,13.34,12.5c-.52.84-4.47-5.14-4.7-3.75,2,2,3.62,3.32,5.15,5,.77.81,1.56,1.61,2.34,2.59s1.56,2.12,2.42,3.45-.72-.29-1.11-.54c.47.58.93,1.16,1.37,1.75s.86,1.27,1.28,1.9L221.09,62c.41.64.8,1.28,1.17,2,.76,1.34,1.51,2.65,2.26,3.91s1.44,2.62,2.19,3.84c-.06.07-.41-.42-.72-.89.54,1,1.15,2.56,1.34,2.06-.19-.32-.39-.62-.58-.93-.26-1.12.49-.43,1.28.66a16.94,16.94,0,0,0,1.81,2.45c-.81-.41-.22,1.06.26,2.44s.8,2.73-.31,1.82c.35.7.86,1.49,1,1.07.39,1.22.42,1.71-.23.83.44,1,.75,1.62,1,2.06s.39.74.55,1a14.81,14.81,0,0,1,1.25,3c-.15.14-.47-.6-.77-.83.23.43.47.85.71,1.31l.36.71.32.81a34.33,34.33,0,0,1,1.3,4.3c-.15-.13-.16.37-.44-.67l.32,1.09c.1.37.19.72.28,1.08.19.7.38,1.39.58,2.05l.58,2c.21.64.35,1.33.52,2,.32,1.36.66,2.75.94,4.27s.42,3.2.58,5c-.49-.94-.47-.3-.4.63s.09,2.21-.2,2.48c.16,1.27.33,2.55.47,3.83.08-.53.12-1.07.19-1.62,0,.43.07.85.11,1.27s.05.83.08,1.24c.06.81.13,1.61.19,2.39s.12,1.56.15,2.32a21.31,21.31,0,0,1-.1,2.27c-.07-.87-.1-1.73-.21-2.58,0,2.15,0,4.32,0,6.49l.32-3.66c.22,3.56.82-.31.47,4.37,0-1-.28,3.53-.77,5.23v0a31.84,31.84,0,0,1-.5,6.1c-.29.56-.58-.85-.77-.49a25.32,25.32,0,0,1-.51,4.93c-.14,1-.35,2-.51,2.92a13.91,13.91,0,0,0-.24,2.31c0-.76-.25-1-.36-.85l.08,1.63c-.46,1.42-.61,1.54-.77,1.12-1.29,4.28,1.09-.77-.66,4.14a10.8,10.8,0,0,1,.15-1.19c-.76,2.57-1.57,5-2.29,7.41-.37,1.21-.81,2.32-1.23,3.46a31.42,31.42,0,0,1-1.35,3.22c-.53.25-.12-.66.21-1.63s.68-1.87.19-1.42c-2.37,6.3-5,13.2-8.2,18.1.21-.27.41-.56.61-.86.1,1-.57,1.74-1.4,2.67-.42.46-.88.95-1.32,1.53a11.21,11.21,0,0,0-1.21,1.94c.36-.67.22-1.44.17-1.15-1.16,1.47-2.24,3.21-3.49,5.13l-2,3c-.36.53-.73,1.12-1.13,1.66s-.81,1.11-1.25,1.69l.33-.87a35.3,35.3,0,0,0-2.65,2.78c-1,1-1.95,2-2.75,2.79-.35.84-1.27,1.74-.56,1.68-2.76,1.43-5,4-7.27,6.27l-1.68,1.75c-.56.54-1.13,1.05-1.71,1.52a10.81,10.81,0,0,1-3.57,2.13c.56-.38,1.23-1.3.8-1l-3.84,3.18c.44.43.59,0,1.53-.07a8.91,8.91,0,0,1-2.45,2.52c1.7-1.65-.23-1-1.08-.89.17.11,0,.5.06.66-2.31.19-.09,1.54-3.09,2.61l.08-.44a17.78,17.78,0,0,1-3.13,2.45c-.62-.49,1.09-1,1-1.7-1.62,1-3,3.38-4.59,3.35a11.41,11.41,0,0,1,1.17-.84,12.47,12.47,0,0,0,1.15-.91,6.29,6.29,0,0,0-3.13.82l.12,0-2.84,1,.74-.12a5.82,5.82,0,0,1-3.07,2.66,11.78,11.78,0,0,0-3.71,2.3c2.57-2.46.36-.92.45-1.89-.74.06-1.87.2-1.59-.16-1.24,1.24-2.28.32-4,2.11-.12-.26-1.43.46-1.21-.36-1.71.82.47.36.36.77a11,11,0,0,1-4.64,1.52,12.65,12.65,0,0,0-5.52,1.82,18.92,18.92,0,0,0-3.57,1.89,13.78,13.78,0,0,1-3.41,1.73c-1.09-.28.8-1.22.8-1.22a9.76,9.76,0,0,0-4.59.81c.31-.31,0-.46-.54-.7-1.28.27-.82,1.18-2.54,1a5.13,5.13,0,0,1,1.24-1.33c-1.5.46-3,1.2-4.55,1.67-.44-.46.92-.9,1.46-1.3-1.75.51-4.56.89-5.1,1.76l1.15.2c-.65.08-.35-.67.12-.86,1.5-.74,2.2.12,2.3.39-.37.12-.75.19-1.12.29,1.21,1.65,4.51-.84,6.77-1l-.89,1.37c.76-.43,1.52-.92,2.27-1.4.51.23.88.86-.23,1.25,1.66.32,1.42-.7,2.85-.27.16.08.09.15-.05.23l1.57-.66c-.3.32.32.83-.67.83a6.77,6.77,0,0,0,3.49-.84c.91-.42,1.6-.76,2.17-.41l-.23.13c1.95-.66,2-1,2-1.25s-.24-.65,1.19-1.6l2.17,1.66.3-1c.41-.08,1.22-.25,1.1.16,1.45-1.09-.29-.3.53-1.17,2,.15,5.29-2.19,5.88-.95.62-.95-1.9.19.1-1.09.77,1.3,2.35-1.21,4.19-1.21-.44,1-2.16,1.26-.31,1.26.9-1.71,3.45-1.24,4.91-2.15,0-.56.75-1,1.84-1.57s2.49-1.25,3.69-2.06c-.09.49,4.7-2,7-3l0,.21c.24-1.33,2.6-2.6,4.22-4,.07.67-.18,1.14-1,2,.53-.34,1.06-.69,1.58-1.08a6.4,6.4,0,0,1,1.74-2l-.23,1a33.07,33.07,0,0,0,3.12-2.76,18.83,18.83,0,0,1,3.62-2.87c0-.82-2.57-.25.07-3a1.19,1.19,0,0,1-.22,1.62,5.5,5.5,0,0,1,1.27-1.3l-.93,1.6c1.25-.76.48-1.08,1.44-1.84.12.55.8-.23.78.31-.23.26-.89.5-1.19,1a7.54,7.54,0,0,1,3-1.63c-.18-.23-.19-.69.56-1.49,2-1.95.86,0,2.09-.87.38-.83,1.76-1.68,1.56-2.48.58-.57.78-.34,1.07-.36.45-.7,1.62-2,2.5-3s1.44-1.94.76-1.68l-.27.23.15-.21h0a30.33,30.33,0,0,1,2.35-3.1c.41-.48.83-1,1.25-1.41l1.24-1.45c.83-1,1.67-1.9,2.48-2.89s1.56-2.11,2.27-3.25l.1.24c.85-1.36,1.76-2.93,2.62-4.4.43-.73.84-1.45,1.2-2.13a18.43,18.43,0,0,0,.88-2c.48-.84,1.34-1.61,1.27-1a43.93,43.93,0,0,1,3-5.87c-1,2.68.6-.5-1.06,2.65.82-1.43,1.37-2.23,1.87-3.16a22.72,22.72,0,0,0,1.51-4c-.21,1.64,1.52-1.79,2-3.6-.4.68-.77,1.38-1.18,2,.68-1.83,1.3-3.38,2-4.94l.12,1.43a25.76,25.76,0,0,0,1.92-5c.25-.86.49-1.72.71-2.57l.54-2.6c.17-.85.35-1.67.53-2.48.09-.4.18-.79.28-1.19s.16-.8.25-1.19a22.5,22.5,0,0,1,1.39-4.34c.12-2.34-1.23,4.12-1.22,1.94.23-.89.49-1.75.77-2.58s.49-1.67.73-2.41c.48-1.47.89-2.66,1-3.26.94-5.22-.06-5.23.53-10.74-.26.67-.78,1.19-.72-2.93.16-3.81.93-4.72,1-2.21,0,.94-.08,1.39-.15,1.35,0,.63,0,1.38.08,1.77s.12.43.25-.34l-.18-.54c.13-1,.22-2.81.31-4.26s.14-2.5.32-1.86c-.27-3-.33-1.27-.42.94.12-2.54,0-4.54,0-6.54s-.32-4-.41-6.62c-.05.86-.22,1.68-.28.87a22.77,22.77,0,0,0-.19-2.32c-.07-.61-.13-1.08-.19-1.44a5.31,5.31,0,0,0-.31-1.27,5.21,5.21,0,0,1-.31-.78c-.12-.4-.24-1.06-.49-2.26-.2-2.93.86.62-.25-4.19-.39-3.12.38-1,.73.16-1.21-4.28-1.58-8.5-2.24-11l.77,2.13c-.46-1.28-.77-2.39-1.08-3.52v1.62a8.89,8.89,0,0,1-.47-2.61c-.31-.57-.37-.17-.5.08s-.3.32-.88-.78c-.39-1.84-1.84-4.86-1.66-5.88.46,1.28.65,1.92.78,2.13s.15,0,.18-.15c0-.4.1-.95.88,1.25a29.74,29.74,0,0,1-1.07-3.18c0-.23.16.06.3.38-.73-2.68-1.08-3.08-1.47-3.44a3.47,3.47,0,0,1-.68-.79,19.9,19.9,0,0,1-1.15-2.31c.5.28-.06-1.72-.45-2.42.85,1.92,0,1.46-.92,0a11,11,0,0,0-1.37-2.89,10.68,10.68,0,0,1-1-1.6l.78,1.83c-.51-.22-1.19-1.68-2.25-3.52.08-.47,1,1.58.73.75a12.94,12.94,0,0,1-1.92-3.56A14.86,14.86,0,0,0,223,57.49c-.67-1.54.28-.87-.34-2.17-2.17-2.57-1.89-3.81-4.2-6.43.37,1.45.54,1.44-1.19-.1,1.22,1.49,2.43,3,3.65,4.55L218.29,51c.52.74,1.11,1.44,1.64,2.08.27.31.52.62.75.9a8.73,8.73,0,0,1,.53.85c-.6-.59-.88-.85-1-.82s.05.3.18.91a9.15,9.15,0,0,0-2.08-3.22c-.4-.44-.82-.89-1.21-1.4A11.32,11.32,0,0,1,216,48.53l.62-1.37a18.56,18.56,0,0,0-3.75-4.58,49.63,49.63,0,0,1-4.54-4.69l1.05,1.48c-.67.1-2.21-2.23-3.43-3.2.27-.42-.41-1.31-.81-2.12,0,.45-2.65-2.6-3.27-1.86L200.38,30A7.24,7.24,0,0,0,197,27.92a7.49,7.49,0,0,1-3.3-1.77c1,.1-.21-1.33,1.83-.21-1-.77-1.82-1.57-1.92-1.2-.48-.85-2.88-1.26-3.67-2.45-.47-.05-.72.43-1.81-.41-.1-.2.06-.27.06-.27-.06.25-1.82-.77-1,.48-2.71-3.79-8.57-5.28-11-8.12l-3.57-1.53c-1.21-.48-2.4-1-3.41-1.41.15-.11,0-.28.42,0-2.73-1.83-1.94.87-5.05-1-1.52-1.58,1.76.17.78-.59-.1-1-1.08-1.36-2.28-1.67s-2.64-.48-3.66-1.42l.54.06a6.07,6.07,0,0,0-3-.92,15,15,0,0,1-3.84-.61.21.21,0,0,0,0-.28c-1.94.37-5.49,0-8.13-.39.87-.59,1.22-.13.77-1-1.18-.16.27,1.28-2.09,1.06C143,3.64,141.31,3,141.12,2.1l2.23.36c-1.08-1.27-2.88-.49-4-.88l.18-.44C136,.87,136,2,132.29,1.52l.37.38c-2,1-1.67-.78-3.69-.07L128.39.6c-1.34.15-4.66,1-7,1.13C122.7.89,125.49.51,127.22,0c-1.32,0-4.48,0-5.16.54A3.3,3.3,0,0,1,123.78.4a10.26,10.26,0,0,1-2.8,1,17.2,17.2,0,0,1-3.55.42c.22-1.13-1.49-1.32-3.5-1.23s-4.3.22-5.28-.57C104,1.42,99.43.83,94.05,2.27c2,1.33-1.57.42-1.11,2.16-1.24.41-1.71.48-1.83.41H87.24c-.94-.27,1.15-.74,1-1.11-2.75.65-1.22-.45-3.08-.39.43.52-.86,1.25-2.44,1.54L85,5a4.78,4.78,0,0,1-3.58.94c-.86-.11-1.74-.21-3.59,1L79,5.9C78,6.46,76.2,7.18,74.42,8a13.93,13.93,0,0,0-4.37,3.19c-.37,0-.9-.32-.06-.84-4.68,2-10,6.83-13.64,8.36l.26-.64c-.82.67-1.31,1.74-2.45,2,0-.21.25-.64-.14-.41a14.91,14.91,0,0,1-3.21,2.87l.84-1.15a17.65,17.65,0,0,0-2.95,2.11,33.09,33.09,0,0,0-2.35,2.4c-1.48,1.58-2.78,3.37-4.51,5-.15-.58-1.1-.31-2.19.43s-2.36,1.76-3.21,2.45v-.22a45.76,45.76,0,0,0-3.31,3.6A45.44,45.44,0,0,0,30.28,41c-1.83,2.48-3.5,5.23-5.47,8.12a34.61,34.61,0,0,0-5.87,7.54l-.85,1.3-.81,1.41-1.64,2.79c-.56.9-1.05,1.87-1.56,2.78s-1,1.77-1.47,2.56c.64-.88.32.82-.2,2.19-.87,1.53-1.69,5.25-2.1,4.24l.28-.6c-.55.26-1.15,1.39-1.74,2.81-.3.71-.61,1.49-.91,2.27-.14.39-.3.78-.44,1.17l-.39,1.18.57,1.34a25.88,25.88,0,0,0-1.35,2.83l-.33.8c-.09.29-.19.57-.29.86-.18.59-.37,1.19-.55,1.81-.36,1.24-.74,2.49-1,3.81s-.55,2.68-.81,4c-.13.66-.28,1.29-.38,1.94s-.2,1.29-.29,1.92c-.2,1.24-.39,2.42-.59,3.5A29,29,0,0,1,1,108.65c0,.57-.06,1.17-.08,1.78s0,1.26-.06,1.89c0,1.27-.08,2.53,0,3.65l-.46-.21c-.08.78-.1,1.52-.13,2.22s-.06,1.37-.09,2c0,1.31-.13,2.52-.11,3.83s0,2.68.14,4.2.24,3.2.46,5.15l-.48-1.5c.43,4.53,1.95,5,2.67,8.71L2.36,142c.76,3.58,1.56,7.16,2.56,10.53a43.26,43.26,0,0,0,3.73,9.06c-.12,0-.35.07-.78-.88.29.73.71,1.79,1.19,2.93s1,2.35,1.55,3.41c1,2.1,2,3.49,2.09,2.43-.22.44.53,1.82,1.55,3.38a52.44,52.44,0,0,0,3.29,4.26l-.56.23c.89.7,1.38,1,1.91,1.44a22.52,22.52,0,0,1,2.16,2.4c.45.75.2,1.12-.37.06,1.47,2.59,1.52,1.09,3.37,4l-.91-.53c1.68,2.26,1.65,1.8,2.79,2.46A14.13,14.13,0,0,1,28,189.71a7,7,0,0,1,1.24,2.42c.37-.12,1.52.41,2.53,1.69.06.39-.37.15-.59,0,2.88,3.64,4.79,3.65,6.72,6.31a1.18,1.18,0,0,0,.25.76,51.41,51.41,0,0,1-4.24-4.06c-.2.69,1.75,2.72-.1,2.13,1.75,1,4.8,2.42,6.71,4.37a2.13,2.13,0,0,1,.2.46l-.23-.1a4.37,4.37,0,0,0,1.29.93,17.29,17.29,0,0,0,1.61,1.52c.09.8,2.3,2.12,3.33,2.91.08-.84,1.42.24.28-1.3.15.17-.21-.05-.91-.53a2.92,2.92,0,0,0-.45-.24l.08,0c-.68-.47-1.57-1.11-2.56-1.9A5,5,0,0,1,46,206.92c.64-.11,1.33-.2,1.71-.22,1.17,2.11,3.82,4.53,4.07,5.46,3.29,1.64,7.69,4.23,10,3.7,1,.27,1,1,1.32,1.39-.56-.11-1.2-.46-1.52-.38,1.91.59,5.56,2.45,6.14,1.55,2.3,1.48-1.46.44,1.82,1.61l-.48.16c3.11,2.15,5.83,2.37,8.6,2.57a20.49,20.49,0,0,1,9.16,2.16c-.5-.24-.74-.36-.83-.56A41.77,41.77,0,0,0,98.62,226c4.26.05,8.48-.17,12.6.17,2.33,0,2.56-.7,3.94-1.48l.55.82c.79-.5,1.58-1,2.36-1.49a6.21,6.21,0,0,1,2.42-.52,23.89,23.89,0,0,1,2.39,0,9.44,9.44,0,0,0,2.55-.22,7.8,7.8,0,0,0,2.89-1.34l-.61-.41c1.55-.38,4.8-2.19,4.63-1.4.14-.18.42-.81,1.06-.78l.1.44c1.21-.82,2.42-1.62,3.61-2.52,1.46-.55,1.42,0,1.54.35s.4.69,2.5-.43c1.54-1,4.16-3.95,3.52-3.88-.62.36-1.63.68-1.76.26l1.36-1.08c0-1.48.79-3.46-2.74-2.35-.73.76-1.48,1.43-2.23,2.15l-.86-.22,2-1.14c-1.23,0-1.85,1-2.6,1.74a1.13,1.13,0,0,0-1.11-.22c-.72.81-1.43,1.66-2.16,2.43-.36-.41.91-1.53-.71-1.11-1,1.09,1.22.71-.56,1.93-1.23-.1-1-.76-2.25.32-.23-.28,0-.62.54-1a13.76,13.76,0,0,1-2.08,1.18,3.8,3.8,0,0,0-1.64,1.18c-1.29-.3-4.11,1.52-4.1.19a9.64,9.64,0,0,1-3.2,2c2-2.05-4.23.88-3.79-1-1.44,1.72-5.48,1.55-8.18,2.52.15-.13.44-.38.68-.33a8.77,8.77,0,0,1-3-.62c-.18,1.22-2.57,1.54-3.86,2.27-1-.57-.66-.92-.21-1.25s1-.69.76-1.23c.1,1-3.27.91-2.63,1.72-1.44-.73-1.24-.38-2-1.39-.27,1.45-1.34.18-2.55,1-2.06-.93-.5-1.42-2.79-1.21-.54-.3-.29-.51.09-.64A4.79,4.79,0,0,1,94,219.22Zm-52.82-21v0l1,.81Zm-4.12-3.64c.48.49,1.1,1.08,1.76,1.65.08.39-.15.52-.56.14C38.54,196.38,37.61,195.35,37.07,194.56Zm7.57,12.79c-.72-.39-.9-.75-1-1,.32.24.71.5,1.22.82,0,0,.07,0,.1,0A.56.56,0,0,1,44.64,207.35Z"/><path class="cls-1" d="M46.1,207.24c.11.06.17.07.3.15-.13-.17-.25-.33-.37-.47l-.3.06Z"/><path class="cls-1" d="M209.85,205l.09-.09a.53.53,0,0,1-.21.11C209.8,205,209.8,205,209.85,205Z"/><polygon class="cls-1" points="5.25 108.7 5.13 108.67 5.15 109.39 5.25 108.7"/><path class="cls-1" d="M186.2,222.31c-.06,0-.16-.06-.35,0C185.87,222.35,186,222.33,186.2,222.31Z"/><path class="cls-1" d="M175.77,228.31l-1.54.48A13.3,13.3,0,0,0,175.77,228.31Z"/><path class="cls-1" d="M167.58,231.82a1.42,1.42,0,0,0-.12.43h0Z"/><path class="cls-1" d="M226,70.81a3.52,3.52,0,0,0-.24-.4C225.18,69.52,225.55,70.15,226,70.81Z"/><path class="cls-1" d="M238.89,135.11c0-.78,0-1.54,0-2.34C238.72,134,238.64,135,238.89,135.11Z"/><path class="cls-1" d="M189.14,28.82s0,0,0,0l-.26-.19Z"/><path class="cls-1" d="M239.1,129.49a23.91,23.91,0,0,0-.25,3.28C239,131.75,239.09,130.54,239.1,129.49Z"/><path class="cls-1" d="M131.5,240.53h-.41a.18.18,0,0,1,0,.14Z"/><path class="cls-1" d="M131.05,240.67l-.45.13C130.81,240.78,131,240.76,131.05,240.67Z"/><path class="cls-1" d="M129.66,241.09l.94-.29A1.27,1.27,0,0,0,129.66,241.09Z"/><path class="cls-1" d="M142.62,239.4l.11-.32A.44.44,0,0,0,142.62,239.4Z"/><path class="cls-1" d="M146,238.66c-.81.14-2-.24-3.16.16l-.09.26C143.23,238.52,145.25,239.39,146,238.66Z"/><path class="cls-1" d="M160.32,238.42l-2.84.72c.52.15,1.22.36-.06.88C161.07,239.76,156.62,239.55,160.32,238.42Z"/><path class="cls-1" d="M169.07,235.44c-1.48.84.07.45,0,.67C170,235.39,170.22,235.21,169.07,235.44Z"/><path class="cls-1" d="M226,183l.19.74C227,182.13,226.05,183.51,226,183Z"/><path class="cls-1" d="M232.06,163.35c-.28.48-.58.94-.86,1.41V166Z"/><path class="cls-1" d="M238.21,154.4c-.05.32-.12.62-.18.93.27-1.15.45-2.38.68-3.55Z"/><path class="cls-1" d="M178.76,14.37l.19,1.1C179.74,15.75,180.08,14.84,178.76,14.37Z"/><path class="cls-1" d="M132.72,1A2.66,2.66,0,0,0,130.1.51,19.6,19.6,0,0,0,132.72,1Z"/><path class="cls-1" d="M5.86,85.2l.36-1.67c-.28,1-.57,2-.79,3C5.58,86.11,5.7,85.63,5.86,85.2Z"/></g></g></svg>